<mxfile host="app.diagrams.net" agent="Mozilla/5.0 (Macintosh; Intel Mac OS X 10_15_7) AppleWebKit/537.36 (KHTML, like Gecko) Chrome/129.0.0.0 Safari/537.36" version="24.7.6">
  <diagram name="Page-1" id="5TcIu798sjOMgyEJKH2Y">
    <mxGraphModel dx="3910" dy="1808" grid="1" gridSize="10" guides="1" tooltips="1" connect="1" arrows="1" fold="1" page="1" pageScale="1" pageWidth="850" pageHeight="1100" math="0" shadow="0">
      <root>
        <mxCell id="0" />
        <mxCell id="1" parent="0" />
        <mxCell id="LvrDcGgFmxN_GRHWmqSq-224" value="Admins" style="shape=image;editableCssRules=.*;verticalLabelPosition=bottom;labelBackgroundColor=default;verticalAlign=top;aspect=fixed;imageAspect=0;image=data:image/svg+xml,PHN2ZyB4bWxucz0iaHR0cDovL3d3dy53My5vcmcvMjAwMC9zdmciIHZpZXdCb3g9Ii0wLjUgLTAuNSAyNC4yMzMgMjgiIGhlaWdodD0iMjgiIHdpZHRoPSIyNC4yMzMiPiYjeGE7CSAgPHN0eWxlIHR5cGU9InRleHQvY3NzIj4mI3hhOwkJLnN0MHtzdG9wLWNvbG9yOiMwMGNlYWM7fSYjeGE7CQkuc3Qxe3N0b3AtY29sb3I6IzA3ODM4Zjt9JiN4YTsJICA8L3N0eWxlPiYjeGE7CTxkZWZzPiYjeGE7CQk8bGluZWFyR3JhZGllbnQgZ3JhZGllbnRVbml0cz0idXNlclNwYWNlT25Vc2UiIHkyPSIyMi4yMjkiIHgyPSIyMi45NSIgeTE9IjMuNDc0IiB4MT0iMS42OTgiIGlkPSJBIj4mI3hhOwkJCTxzdG9wIGNsYXNzPSJzdDAiLz4mI3hhOwkJCTxzdG9wIGNsYXNzPSJzdDEiIG9mZnNldD0iMSIvPiYjeGE7CQk8L2xpbmVhckdyYWRpZW50PiYjeGE7CTwvZGVmcz4mI3hhOwk8cGF0aCBmaWxsPSJ1cmwoI0EpIiBkPSJNMTUuNTUyIDExLjYwOGwtLjkzMS0uNDM4aC4wMDJhNy4wMyA3LjAzIDAgMCAwIDEuNDgtMi4xOTJjLjQwMS0uODQuNjAzLTEuNzUzLjYwMy0yLjczOSAwLS45NS0uMTg0LTEuODI3LS41NDktMi42M2E2LjQ1IDYuNDUgMCAwIDAtMS40MjQtMi4xMzdDMTQuMTExLjg1MiAxMy4zOTkuMzc3IDEyLjU5Ni4wNDlBNi4yNyA2LjI3IDAgMCAwIDkuOTY2LS41Yy0uOTE0IDAtMS43OS4xODItMi42My41NDdhNi4zMiA2LjMyIDAgMCAwLTIuMTkyIDEuNDI1QTcuOCA3LjggMCAwIDAgMy43MTkgMy42MWMtLjM2NS44MDMtLjU0NyAxLjY4LS41NDcgMi42M2E2LjYzIDYuNjMgMCAwIDAgLjYwMSAyLjc5M2MuMzk3LjgzMy45NTYgMS41NzggMS42NDUgMi4xOTItMS43NTMuNjk0LTMuMTc3IDEuODQ2LTQuMjczIDMuNDUyQy4wNDkgMTYuMjQ4LS41IDE4LjA1NS0uNSAyMC4xMDF2Mi43NGMtLjAwOS4zNC4xMDguNjcyLjMyOC45MzFhMS4zOCAxLjM4IDAgMCAwIC45MzMuMzI4aDkuMzFjLjE1Mi4wMDQuMzA0LS4wMjMuNDQ1LS4wOHMuMjctLjE0Mi4zNzctLjI1YTEuMjcgMS4yNyAwIDAgMCAuMzg0LS45MjkgMS4wNCAxLjA0IDAgMCAwLS4zODQtLjgyMmMtLjIxOS0uMjU2LS40OTMtLjM4NC0uODIyLS4zODRIMS45NjZ2LTEuNTM0YzAtLjk4Ny4xNjMtMS44OTkuNDkxLTIuNzQuMzQxLS44MzkuODQzLTEuNjAyIDEuNDgtMi4yNDYuNjIxLS42NTggMS4zMzQtMS4xNjggMi4xMzctMS41MzRhNi42NyA2LjY3IDAgMCAxIDIuNjg0LS41NDdoMi42M2MuODA2LS4wMDYgMS42MDYuMTQyIDIuMzU3LjQzOC43NjYuMjU2IDEuMzY5LjU4NCAxLjgwOC45ODdhMi41OCAyLjU4IDAgMCAwIC42NTcuNDkxYy4xOTguMDY3LjM5OS4xMjIuNjAzLjE2NS4yOTMgMCAuNTY2LS4xMjguODIyLS4zODIuMTgyLS4xODIuMjczLS4zODQuMjczLS42MDN2LS4xNjVjLS4wMDgtLjM0Ny0uMTQ1LS42NzktLjM4NC0uOTMxYTUuMTggNS4xOCAwIDAgMC0uOTMxLS44MjIgNC4zMSA0LjMxIDAgMCAwLTEuMDQxLS42MDN6bS0yLjU3Ni0yLjMwMmMtLjgzOC44NDItMS44NDQgMS4yNjItMy4wMTIgMS4yNjJ2LS4wMDJjLTEuMTY5IDAtMi4xOTItLjQxOS0zLjA2OC0xLjI1OUE0LjE4IDQuMTggMCAwIDEgNS42MzUgNi4yNGE0LjExIDQuMTEgMCAwIDEgMS4yNjEtMy4wMTRjLjg3Ny0uODQgMS44OTktMS4yNjEgMy4wNjgtMS4yNjFhNC4xMSA0LjExIDAgMCAxIDMuMDEyIDEuMjYxYy44NzcuODQgMS4zMTUgMS44NDQgMS4zMTUgMy4wMTJhNC4wOCA0LjA4IDAgMCAxLTEuMzE1IDMuMDY4em0uMTUxIDE2LjMwOWEuODUuODUgMCAwIDEgLjIxMy0uNTdsNC4wMDEtNC4xNDJjLS4wOTUtLjMxNC0uMTQyLS42MzctLjE0Mi0uOTY3YTMuNjEgMy42MSAwIDAgMSAuMjYtMS4zNjRjLjE3NC0uNDMuNDE4LS44MDIuNzM0LTEuMTE2YTMuMTQgMy4xNCAwIDAgMSAxLjA2NS0uNzY5Yy4zOTUtLjE5OC44MjktLjI5OCAxLjMwMi0uMjk4YTMuMDkgMy4wOSAwIDAgMSAxLjk2NS42N2MuNTY4LjQzLjk3MS45OTIgMS4yMDcgMS42ODZIMjAuOTRjLS4yMjEgMC0uNDM0LjA3NC0uNjM5LjIyMy0uMjIxLjE0OS0uMzMxLjMzOS0uMzMxLjU3di43OTRjMCAuMjMyLjExLjQzLjMzMS41OTUuMjA1LjE0OS40MTguMjIzLjYzOS4yMjNoMi43OTRjLS4yMzcuNjYxLS42MzkgMS4yMTUtMS4yMDcgMS42NjItLjU2OC40My0xLjIyMy42NDUtMS45NjUuNjQ1LS40NTggMC0uODY4LS4wODMtMS4yMzEtLjI0OGwtMy44NTkgNC4wNjdhLjcyLjcyIDAgMCAxLS41NDQuMjIzYy0uMTg5IDAtLjM1NS0uMDc0LS40OTctLjIyM2wtMS4wODktMS4xNDFhLjczLjczIDAgMCAxLS4yMTMtLjUyMXoiIGZpbGwtcnVsZT0iZXZlbm9kZCIvPiYjeGE7PC9zdmc+;" vertex="1" parent="1">
          <mxGeometry x="490" y="43.5" width="31.29" height="36.5" as="geometry" />
        </mxCell>
        <mxCell id="LvrDcGgFmxN_GRHWmqSq-225" value="" style="group" vertex="1" connectable="0" parent="1">
          <mxGeometry x="180" y="170" width="390" height="60" as="geometry" />
        </mxCell>
        <mxCell id="LvrDcGgFmxN_GRHWmqSq-226" value="" style="rounded=1;whiteSpace=wrap;html=1;dashed=1;" vertex="1" parent="LvrDcGgFmxN_GRHWmqSq-225">
          <mxGeometry width="390" height="60" as="geometry" />
        </mxCell>
        <mxCell id="LvrDcGgFmxN_GRHWmqSq-227" value="Mobile Application&lt;br&gt;(React Native)" style="rounded=0;whiteSpace=wrap;html=1;" vertex="1" parent="LvrDcGgFmxN_GRHWmqSq-225">
          <mxGeometry x="19" y="10" width="160" height="40" as="geometry" />
        </mxCell>
        <mxCell id="LvrDcGgFmxN_GRHWmqSq-228" value="Web Application&lt;br&gt;(React JS)" style="rounded=0;whiteSpace=wrap;html=1;" vertex="1" parent="LvrDcGgFmxN_GRHWmqSq-225">
          <mxGeometry x="213" y="10" width="160" height="40" as="geometry" />
        </mxCell>
        <mxCell id="LvrDcGgFmxN_GRHWmqSq-229" value="Customers" style="verticalLabelPosition=bottom;html=1;verticalAlign=top;align=center;strokeColor=none;fillColor=#00BEF2;shape=mxgraph.azure.mobile;pointerEvents=1;" vertex="1" parent="1">
          <mxGeometry x="234" y="40" width="30" height="40" as="geometry" />
        </mxCell>
        <mxCell id="LvrDcGgFmxN_GRHWmqSq-230" value="" style="endArrow=classic;html=1;rounded=0;entryX=0.179;entryY=0;entryDx=0;entryDy=0;entryPerimeter=0;" edge="1" parent="1">
          <mxGeometry width="50" height="50" relative="1" as="geometry">
            <mxPoint x="250" y="105" as="sourcePoint" />
            <mxPoint x="249.80999999999995" y="165" as="targetPoint" />
          </mxGeometry>
        </mxCell>
        <mxCell id="LvrDcGgFmxN_GRHWmqSq-231" value="" style="endArrow=classic;html=1;rounded=0;entryX=0.179;entryY=0;entryDx=0;entryDy=0;entryPerimeter=0;" edge="1" parent="1">
          <mxGeometry width="50" height="50" relative="1" as="geometry">
            <mxPoint x="505.34000000000003" y="105" as="sourcePoint" />
            <mxPoint x="505.15" y="165" as="targetPoint" />
          </mxGeometry>
        </mxCell>
        <mxCell id="LvrDcGgFmxN_GRHWmqSq-232" value="UI Stiching Layer" style="rounded=0;whiteSpace=wrap;html=1;" vertex="1" parent="1">
          <mxGeometry x="35" y="283" width="680" height="33" as="geometry" />
        </mxCell>
        <mxCell id="LvrDcGgFmxN_GRHWmqSq-233" value="" style="endArrow=classic;html=1;rounded=0;entryX=0.5;entryY=0;entryDx=0;entryDy=0;exitX=0.5;exitY=1;exitDx=0;exitDy=0;" edge="1" parent="1" source="LvrDcGgFmxN_GRHWmqSq-226" target="LvrDcGgFmxN_GRHWmqSq-232">
          <mxGeometry width="50" height="50" relative="1" as="geometry">
            <mxPoint x="375" y="230" as="sourcePoint" />
            <mxPoint x="374.49999999999994" y="310" as="targetPoint" />
          </mxGeometry>
        </mxCell>
        <mxCell id="LvrDcGgFmxN_GRHWmqSq-234" value="" style="group" vertex="1" connectable="0" parent="1">
          <mxGeometry x="50" y="361" width="60" height="61.289999999999964" as="geometry" />
        </mxCell>
        <mxCell id="LvrDcGgFmxN_GRHWmqSq-235" value="User&amp;nbsp;" style="whiteSpace=wrap;html=1;aspect=fixed;" vertex="1" parent="LvrDcGgFmxN_GRHWmqSq-234">
          <mxGeometry y="1.2899999999999636" width="60" height="60" as="geometry" />
        </mxCell>
        <mxCell id="LvrDcGgFmxN_GRHWmqSq-236" value="" style="endArrow=classic;startArrow=classic;html=1;rounded=0;" edge="1" parent="LvrDcGgFmxN_GRHWmqSq-234">
          <mxGeometry width="50" height="50" relative="1" as="geometry">
            <mxPoint x="30" as="sourcePoint" />
            <mxPoint x="30" y="-41" as="targetPoint" />
          </mxGeometry>
        </mxCell>
        <mxCell id="LvrDcGgFmxN_GRHWmqSq-237" value="Account" style="whiteSpace=wrap;html=1;aspect=fixed;" vertex="1" parent="1">
          <mxGeometry x="351.5" y="362.2899999999999" width="60" height="60" as="geometry" />
        </mxCell>
        <mxCell id="LvrDcGgFmxN_GRHWmqSq-238" value="Admin" style="whiteSpace=wrap;html=1;aspect=fixed;" vertex="1" parent="1">
          <mxGeometry x="146" y="361.64000000000004" width="60" height="60" as="geometry" />
        </mxCell>
        <mxCell id="LvrDcGgFmxN_GRHWmqSq-239" value="Shopping Cart" style="whiteSpace=wrap;html=1;aspect=fixed;" vertex="1" parent="1">
          <mxGeometry x="621" y="360.99999999999994" width="60" height="60" as="geometry" />
        </mxCell>
        <mxCell id="LvrDcGgFmxN_GRHWmqSq-240" value="Product" style="whiteSpace=wrap;html=1;aspect=fixed;" vertex="1" parent="1">
          <mxGeometry x="490" y="359.7099999999999" width="60" height="60" as="geometry" />
        </mxCell>
        <mxCell id="LvrDcGgFmxN_GRHWmqSq-241" value="" style="endArrow=classic;startArrow=classic;html=1;rounded=0;exitX=0.5;exitY=0;exitDx=0;exitDy=0;" edge="1" parent="1" source="LvrDcGgFmxN_GRHWmqSq-237">
          <mxGeometry width="50" height="50" relative="1" as="geometry">
            <mxPoint x="380" y="362.42" as="sourcePoint" />
            <mxPoint x="380" y="320" as="targetPoint" />
          </mxGeometry>
        </mxCell>
        <mxCell id="LvrDcGgFmxN_GRHWmqSq-242" value="" style="endArrow=classic;startArrow=classic;html=1;rounded=0;entryX=0.713;entryY=1.127;entryDx=0;entryDy=0;entryPerimeter=0;exitX=0.5;exitY=0;exitDx=0;exitDy=0;" edge="1" parent="1" source="LvrDcGgFmxN_GRHWmqSq-240" target="LvrDcGgFmxN_GRHWmqSq-232">
          <mxGeometry width="50" height="50" relative="1" as="geometry">
            <mxPoint x="520" y="362.42" as="sourcePoint" />
            <mxPoint x="570" y="312.42" as="targetPoint" />
          </mxGeometry>
        </mxCell>
        <mxCell id="LvrDcGgFmxN_GRHWmqSq-243" value="" style="endArrow=classic;startArrow=classic;html=1;rounded=0;entryX=0.904;entryY=1.121;entryDx=0;entryDy=0;entryPerimeter=0;exitX=0.5;exitY=0;exitDx=0;exitDy=0;" edge="1" parent="1" source="LvrDcGgFmxN_GRHWmqSq-239" target="LvrDcGgFmxN_GRHWmqSq-232">
          <mxGeometry width="50" height="50" relative="1" as="geometry">
            <mxPoint x="650" y="363.71" as="sourcePoint" />
            <mxPoint x="700" y="313.71" as="targetPoint" />
          </mxGeometry>
        </mxCell>
        <mxCell id="LvrDcGgFmxN_GRHWmqSq-244" value="" style="edgeStyle=orthogonalEdgeStyle;rounded=0;orthogonalLoop=1;jettySize=auto;html=1;" edge="1" parent="1" source="LvrDcGgFmxN_GRHWmqSq-245" target="LvrDcGgFmxN_GRHWmqSq-251">
          <mxGeometry relative="1" as="geometry" />
        </mxCell>
        <mxCell id="LvrDcGgFmxN_GRHWmqSq-245" value="https" style="ellipse;shape=cloud;whiteSpace=wrap;html=1;" vertex="1" parent="1">
          <mxGeometry x="344" y="450" width="76" height="30" as="geometry" />
        </mxCell>
        <mxCell id="LvrDcGgFmxN_GRHWmqSq-246" value="" style="endArrow=classic;html=1;rounded=0;exitX=0.5;exitY=1;exitDx=0;exitDy=0;" edge="1" parent="1" source="LvrDcGgFmxN_GRHWmqSq-235" target="LvrDcGgFmxN_GRHWmqSq-245">
          <mxGeometry width="50" height="50" relative="1" as="geometry">
            <mxPoint x="390" y="590" as="sourcePoint" />
            <mxPoint x="440" y="540" as="targetPoint" />
            <Array as="points">
              <mxPoint x="80" y="465" />
            </Array>
          </mxGeometry>
        </mxCell>
        <mxCell id="LvrDcGgFmxN_GRHWmqSq-247" value="" style="endArrow=classic;html=1;rounded=0;exitX=0.5;exitY=1;exitDx=0;exitDy=0;entryX=0.473;entryY=0.093;entryDx=0;entryDy=0;entryPerimeter=0;" edge="1" parent="1" source="LvrDcGgFmxN_GRHWmqSq-237" target="LvrDcGgFmxN_GRHWmqSq-245">
          <mxGeometry width="50" height="50" relative="1" as="geometry">
            <mxPoint x="113" y="474" as="sourcePoint" />
            <mxPoint x="330" y="696" as="targetPoint" />
          </mxGeometry>
        </mxCell>
        <mxCell id="LvrDcGgFmxN_GRHWmqSq-248" value="" style="endArrow=classic;html=1;rounded=0;exitX=0.5;exitY=1;exitDx=0;exitDy=0;" edge="1" parent="1">
          <mxGeometry width="50" height="50" relative="1" as="geometry">
            <mxPoint x="520" y="422.7099999999999" as="sourcePoint" />
            <mxPoint x="419.8409306614649" y="465.3710482123719" as="targetPoint" />
            <Array as="points">
              <mxPoint x="520" y="465" />
            </Array>
          </mxGeometry>
        </mxCell>
        <mxCell id="LvrDcGgFmxN_GRHWmqSq-249" value="" style="endArrow=classic;html=1;rounded=0;exitX=0.5;exitY=1;exitDx=0;exitDy=0;" edge="1" parent="1" source="LvrDcGgFmxN_GRHWmqSq-238" target="LvrDcGgFmxN_GRHWmqSq-245">
          <mxGeometry width="50" height="50" relative="1" as="geometry">
            <mxPoint x="260" y="423.71" as="sourcePoint" />
            <mxPoint x="477" y="645.71" as="targetPoint" />
            <Array as="points">
              <mxPoint x="176" y="465" />
            </Array>
          </mxGeometry>
        </mxCell>
        <mxCell id="LvrDcGgFmxN_GRHWmqSq-250" value="" style="endArrow=classic;html=1;rounded=0;exitX=0.5;exitY=1;exitDx=0;exitDy=0;" edge="1" parent="1">
          <mxGeometry width="50" height="50" relative="1" as="geometry">
            <mxPoint x="651" y="423" as="sourcePoint" />
            <mxPoint x="419.9579416487229" y="464.705537948861" as="targetPoint" />
            <Array as="points">
              <mxPoint x="651" y="465" />
            </Array>
          </mxGeometry>
        </mxCell>
        <mxCell id="LvrDcGgFmxN_GRHWmqSq-251" value="" style="outlineConnect=0;dashed=0;verticalLabelPosition=bottom;verticalAlign=top;align=center;html=1;shape=mxgraph.aws3.classic_load_balancer;fillColor=#F58534;gradientColor=none;" vertex="1" parent="1">
          <mxGeometry x="366.75" y="504" width="29.5" height="32" as="geometry" />
        </mxCell>
        <mxCell id="LvrDcGgFmxN_GRHWmqSq-252" value="Load Balancer" style="text;html=1;align=center;verticalAlign=middle;whiteSpace=wrap;rounded=0;" vertex="1" parent="1">
          <mxGeometry x="280" y="504" width="60" height="30" as="geometry" />
        </mxCell>
        <mxCell id="LvrDcGgFmxN_GRHWmqSq-253" value="" style="rounded=0;whiteSpace=wrap;html=1;dashed=1;" vertex="1" parent="1">
          <mxGeometry x="35" y="705" width="680" height="450" as="geometry" />
        </mxCell>
        <mxCell id="LvrDcGgFmxN_GRHWmqSq-254" value="" style="group;fillColor=none;strokeColor=none;fillStyle=auto;gradientColor=none;gradientDirection=east;" vertex="1" connectable="0" parent="1">
          <mxGeometry x="300" y="755" width="660" height="628" as="geometry" />
        </mxCell>
        <mxCell id="LvrDcGgFmxN_GRHWmqSq-255" value="" style="rounded=0;whiteSpace=wrap;html=1;" vertex="1" parent="LvrDcGgFmxN_GRHWmqSq-254">
          <mxGeometry width="195" height="270" as="geometry" />
        </mxCell>
        <mxCell id="LvrDcGgFmxN_GRHWmqSq-256" value="" style="group" vertex="1" connectable="0" parent="LvrDcGgFmxN_GRHWmqSq-254">
          <mxGeometry x="7.800000000000001" y="31.655172413793107" width="172.18500000000003" height="111.72413793103448" as="geometry" />
        </mxCell>
        <mxCell id="LvrDcGgFmxN_GRHWmqSq-257" value="API Layer" style="rounded=0;whiteSpace=wrap;html=1;" vertex="1" parent="LvrDcGgFmxN_GRHWmqSq-256">
          <mxGeometry x="60.06000000000002" width="54.60000000000002" height="27.93103448275862" as="geometry" />
        </mxCell>
        <mxCell id="LvrDcGgFmxN_GRHWmqSq-258" value="Infrastructure&amp;nbsp;&lt;br&gt;Layer" style="rounded=0;whiteSpace=wrap;html=1;" vertex="1" parent="LvrDcGgFmxN_GRHWmqSq-256">
          <mxGeometry y="83.79310344827586" width="78.00000000000003" height="27.93103448275862" as="geometry" />
        </mxCell>
        <mxCell id="LvrDcGgFmxN_GRHWmqSq-259" value="Domain Layer" style="rounded=0;whiteSpace=wrap;html=1;" vertex="1" parent="LvrDcGgFmxN_GRHWmqSq-256">
          <mxGeometry x="104.52000000000004" y="83.79310344827586" width="67.66500000000003" height="27.93103448275862" as="geometry" />
        </mxCell>
        <mxCell id="LvrDcGgFmxN_GRHWmqSq-260" value="" style="endArrow=classic;html=1;rounded=0;exitX=0.5;exitY=1;exitDx=0;exitDy=0;entryX=0.5;entryY=0;entryDx=0;entryDy=0;edgeStyle=orthogonalEdgeStyle;" edge="1" parent="LvrDcGgFmxN_GRHWmqSq-256" source="LvrDcGgFmxN_GRHWmqSq-257" target="LvrDcGgFmxN_GRHWmqSq-258">
          <mxGeometry width="50" height="50" relative="1" as="geometry">
            <mxPoint x="-1.5600000000000005" y="186.20689655172413" as="sourcePoint" />
            <mxPoint x="37.44000000000001" y="139.6551724137931" as="targetPoint" />
          </mxGeometry>
        </mxCell>
        <mxCell id="LvrDcGgFmxN_GRHWmqSq-261" value="" style="endArrow=classic;html=1;rounded=0;exitX=0.5;exitY=1;exitDx=0;exitDy=0;entryX=0.5;entryY=0;entryDx=0;entryDy=0;edgeStyle=orthogonalEdgeStyle;elbow=vertical;" edge="1" parent="LvrDcGgFmxN_GRHWmqSq-256" source="LvrDcGgFmxN_GRHWmqSq-257" target="LvrDcGgFmxN_GRHWmqSq-259">
          <mxGeometry width="50" height="50" relative="1" as="geometry">
            <mxPoint x="173.94000000000005" y="148.9655172413793" as="sourcePoint" />
            <mxPoint x="212.94000000000005" y="102.41379310344827" as="targetPoint" />
          </mxGeometry>
        </mxCell>
        <mxCell id="LvrDcGgFmxN_GRHWmqSq-262" value="SQL" style="text;html=1;align=center;verticalAlign=middle;whiteSpace=wrap;rounded=0;" vertex="1" parent="LvrDcGgFmxN_GRHWmqSq-254">
          <mxGeometry x="140.00000000000003" y="193.99758620689653" width="46.800000000000004" height="27.93103448275862" as="geometry" />
        </mxCell>
        <mxCell id="LvrDcGgFmxN_GRHWmqSq-263" value="" style="endArrow=classic;html=1;rounded=0;exitX=0.5;exitY=1;exitDx=0;exitDy=0;edgeStyle=orthogonalEdgeStyle;elbow=vertical;curved=1;" edge="1" parent="LvrDcGgFmxN_GRHWmqSq-254" source="LvrDcGgFmxN_GRHWmqSq-258">
          <mxGeometry width="50" height="50" relative="1" as="geometry">
            <mxPoint x="31.200000000000003" y="148.9655172413793" as="sourcePoint" />
            <mxPoint x="97.5" y="183.41379310344828" as="targetPoint" />
          </mxGeometry>
        </mxCell>
        <mxCell id="LvrDcGgFmxN_GRHWmqSq-264" value="Service n" style="text;html=1;align=center;verticalAlign=middle;whiteSpace=wrap;rounded=0;" vertex="1" parent="LvrDcGgFmxN_GRHWmqSq-254">
          <mxGeometry x="68.25" width="58.5" height="27.93103448275862" as="geometry" />
        </mxCell>
        <mxCell id="LvrDcGgFmxN_GRHWmqSq-345" value="" style="shape=image;verticalLabelPosition=bottom;verticalAlign=top;imageAspect=0;aspect=fixed;image=data:image/webp,UklGRogoAABXRUJQVlA4IHwoAADwNwGdASqEAwgCPpFIokwlpL+oIlL4s/ASCWVu/HhbKP4p+CP79/wXRS2HqH2UPwD3ff4Bzb7AOiZ5v+C/wjwL/Rv4B73M//0/LgHor/wD+AeRz+H/f/2nH//9P3QAfwD+B/w/7//oP+KfwD77vX69Sf//09xMf0feda57//bP3M/tvSh8A+O/5x0zp4/aH5/yVf8v9R/gJ+iv/J/a/658gH6a/sX63f6V+6X+2egD+qf5790ve//vPqd/3HqAf5LqJPQa8uv2aP69/0ODu6V/p3/v/45/NP//7//jv575W63K//fd2cew35iagXsLtZO9U3TzDvbDQf+p80/8D0WcN4eJ/1/KW+W/db2mFPmLZSsn1/QRB7j0cSlv+ih7EfCHMEjMaocF2qzcjpDgpfuNbhe5Zt9xjVZ25qYM6IAPLIMlVlFJYZBkYaunpQQ5gkZjVDgu1WbkdIcFL9xrcL3LNvuMarO3NTBnRAB5ZBkqwwW36QN2GVIAdTWQGvsTKysoS/d9lP+bc4yT3pSipUgB1NZAbOIKIO1BVR3Mf6U8p9M+KkZmy9bkkfwchl0+DpxEznsDT+PK+nTmeGduSNfo1th+RfuNYKj+IBhm3GVXX3gVk0/uwEew8iAECn/NucZNw+WThFrKMZUecWeKHvqWZZrn4DlPpYohT2rWP8AEkmsXy/8ttwffTfevmmtxhkPqoaMC24wOvCtluzbnaxDfaPDhSYFo6BgegqgSc0KMZUgxONrOJgDbem55zS5BajH/Fbw9rrh9hbhthIH4X+8ikGN4xlxLiXEuLYI/8aryoFmH9uKNskqFA0onccUDxJBoi4jvbBVadWwfo1/y6mH3yP+btq+A6q5frBI+ojafv2GWdBnA01nOH5QhUyioGK7m51XZS0fWHypsbKBVRYZjTsEqNyPFpMugwJRn8DBJ+nfQ/IJkOj9yc6mr6eUpf/O/kAakg2jBxrHcEYOZftYeCqNruWV9O/QxTr4Sn39hPkwgyIof1RUXBFiRgErfdWs31nZ5+Pf4Kve/NeC/5GWEkdDZpZc3KyhMube72OGoOJaZ+SKhRRMJlcjfDefFbuzdk0w4gm25jCDIwkNiQtpaTv6BGyGR8LncBZhkKQcEmhXS+4ghv7HYyDlFOrgWiewNmyPrDhcDIMRq9ETxXrr7wqJu7bfb/G3jPht7vY4ag4ltAkJmdiaDfa3m0uR/bW1t/xyDia7zuoces9B9m/ftdcDdVeyLE6xG/XcmZOt6IeYbc3cF3ZqV7y8Qa7wIiq0/RV/i0Lj0wjAcG/Frs7gLd7puY4Rkr3kVoIFV5rNqeLAgVXms2p0c1TICzHtBsT2duz3x7UfzWAPxUtRqzcf7dNf/CrfWMB0gaxpyY93VhyBw+GLq0bZtyTWxU7PeNeEtKDFnPqDMELtACazaniwHuK4PRM9ge4rg9E30tZ+DFNLrFz6AzWCI2T7z24jHkwJ6zXs2LpUZDo8elV9olXQPJugtYdHVkrt/6tWSYk35zwbg3BpQgfKfHnsI2pdIJHbw6NgziGW1C/I9JYFEc7X0iBk1jGHViBNMJSMuJcw7qCEEIH7nQVt1CvyPVzlC0fSPVzlC0fSPVzpds9xuu28z/3s+8Un6n54HQOihkWBlxLg/+ylR6mac3fzuYMy5sdNREsgaVkzms7dGbbHUAZgRpAxYqYkxMNj7g3BuBlDQ3sYhLk/NS1dDBmT81LV0MGZPzVmvsXzJxDgynpL0ur+3gf0jK676c9thuCUgDL38gGXEuESlIw1p2sh1R5o8zt95n1nZ50ubQLbv3ht6x4cEtUJEG9s5VCsT+AB/stvVTnPQNIi6ZJBZIfliyhMobizrcMlly0galpmJO7ohm/1xAojna+kQMmsYw6xvsjhqB21ubQLiYSCVrjGTZc8YXH2s/7pwnIgcMBBpS4NfwWtsJqDi081AiG3EBMFf4xsIzHXrL9lUFSy89ibEmNatUvb+qeK8nernKFo+kernKFo+kernS7Z7jddt5n/vZ94ubQLiYP/hF7g67PV1mhz2ds5QMCVfQpF6HUeI3DIcmKDDt2R+VoDDhZmmmD/Ak8nGMaoxPT7iVkzcL8muDToLjNne4NOguM2d7LKkLrwrdCkp0gcoifhbGamOMNdhdKsoB3Rn5r6sKXtJtRRjiOGqZFta3BNfDPh32yTh73bv4FLAbjE7YKjcKGj1ENaidrFhpdYufP0dML7vf1/C6wIJh1RK6LtGEgzTKMjnKom/9mUQNq00cVLQ8zsDJ4quoEc1GnwYppdYufTAkx+xJ3dEMwdJxnk1zJ/vKzlFwB1IK+nQGWyaauPDIqwKuY0oYd+lZ3pLHnHSg0CMj9n/Smv1wJM1m+s7PPx7+4wd/hKhngruiND1xAojna+eZ/GPQ/EAa4T1Eyy13GaD239KnfvQajdDPKD4P7xOM9Z56MrZ7y93v9QN1rXwabyGIReqSCC1XznqBL1RujX7KtsiZhTnHWGZUyUPx6SwKI52vpEDJrGMOtqljnquZuyS3tmg2UV/K2qqhW+Q47ywhxkUs632QlekJalz2D2aS+Hv7eJBMFKlzwL25PscStVv0gTu7n9yVNv3qctRMZ7EfQs+H2AEuIM1HSc1OkpX/Kw7RWAPclewg8WA9yV7CDo57ULMUrcqJbh0VsJIuzL1mOKq3QUuHkOrg9PdVWxJpQs3gFynH10bPSWtpSIzS1dDBmT81Zr7F8ycQ4Mp6S9I9iDoaiB0E4Xb/yyeWmLY+qEmXr5YmjVRA5dba+9WiWVz0oFHqbcf3L7cIHgfBT1xOJcVPblJcB4lpA1LTMSd3RDN/riBRHO19IgZNYxh1jfZHDUDtrSdX2uMPEuYd1BCCED9rtggOUhwj4HbrMyDg9XOULR9I9XOl2z3G67bzP/ez7xSdX08G4NxD9HiXEuJBDiIqyeliM17PwR766F/8AtQsBLW0pEZpauhgzJ+acIFyefvQAA2ptTbNvHiXEuDRz/MYUX1J1ThK/XRs9Ja2lIjNLV0MGZPzVmvoajnU0IVvtPwo2G8c3l0/fevXzm2BoiCEEkL4HQOfl+ezcnwWJuebRzqaEK32n4UcBDxaTLoQGZYns5JhxSW9CLbpbsLWbtkaVA5ZAgU/9oNrkxcydtXJ3dEM1m+t320yDg9XOULR9I9XOULR9I9XOULR8mx0fnAYeVkmOt756hH3uZi9ZWKixstaDdITWJn4f4FhQRMPA/MXVFXkjsX25YEuSQwFeFfM6nCkD6RoOIJr4bTEinpHMWzofj0lgURztfUxncU0606xYMoKbldtiLfIKUdk8OtyIKqa6nWLBlBTc2qwAD+1saToE1ZtPIZMAJ1kuov2ywmSXX5ybGsHAvxiYATrJdRftlhMkuvzk2NYOBfjEwAnWS6i/bLCZJdfnJsawcC/GJgBOsl02bMwsetzmjGTQF3FDx1zLkpEKTL46K9+tHqDuSkQpMvjor360eoO5KRCky+OivfrR6g6Ar8u31bgMtlEYRvpA36u8g9rxloD+QMPfHJQ0fpagyJMPitLnitcQVeFJivoNtZ2816jRtUpmej19XIR0lBtRPcoEK+DGYPsDO2NVGyE3TeWUG3EovTkr41ypVTG7yvERvm0Hrd89z1g+V5wbyhns5P7NT+zAI+AAeZg8GkseEbmnogPNLOVxQhA+jo1NWTKu7YzUpW+UDiKQXw7xiN95i1rcsWvVMtKbCDOyszxs0D1RsAsVj66ZUjuPWYmA2PeuSViZKZBlY5na8HB/9Eax3pCi46K9+tHqDuSkQpMvjor360eoO5KRCky+OivfrR6g7kpEKTL46K9+tHojFVGM6DBI9/AyuMoA6lGviTa6cG1GnlhExYke/gZXGUAdSjXxJtdL4b2nMmAN+TvhMfeWeQ+85QrLrKhKNJtHQJWyagIN2tKkScYL9H67G0HVNnZAXGn34XUa3AP7Cylgo7BmA8zx0ldJHUJQfxaEAAAD8RFw/YLzP1brgud91INctFdEvVJpSzjn/8QkFpPJ3BodxUThEkaLOMoAhN1nIAg3/xhFA2S00PXmiucmKaJtp2XvZdyuAlsYUxaHWzZ2zIDVlZewwuJke5XAS2MKYtDrZoDdq/2Ce779roGNpAe3mAbBNxr8HSKcOOdh0onupKE2meI0UNokShM7BmiOKX/QZeH7C5pXCBF4PY7PhR1AjxEAmdk98NU2f9Y4AAAFhktJRwMf56gB3AYQu4nbBIDJqsCI/o4pCzij2e4UKZW9fOI7V+DpFOHHOw6UT3PA2MmV3FTvuChQDZWDsHV+zMDwFGPITSy66edlt6WiyI4xZcapBqfOV3PUrs/14MrmAxrU6Kmzo2uKAZpWs3c4kWMFiLy34pJbXC76O2qJwYghA5JePpmafRTVWbxwPx6qhcgNCk6NptvrK1NNwEKt0HPJwFPhYAR/imPfWowzheuAXWrjiEJQSbXMT6x1MIHu5QX0dV2hlPcVG+PvEOCLn5ilQXXSUwLEgo4b5DEPveEMnuPtxvmwS6/XLBDVu6zj9x9uN8oeVOM/z3Wk9ma/rhwwrvcTnrLf5vwEiGig4NDUxmvmE6UzhG3nSNmJFo+7I7RB0SvEvJFGOjjlRob23DhNsnAzlInT12yDGcwMNh4JwWzqMAn5A9YYTAVbBo3BhPnd0VwNuHvDpZuViDBx9BWAQ5owHZKGCwd/xPkaMpCtII1Fl1OjAchA8cVc/DPYlSN9KX7alrosnidrj8Hz23NgcSbPlXR1aPTIQ5M1J+ZFplFrInP5pQBvM+VEE3Ka7c4BNth0M63U88fIwKWp8T9C0me6bTpw/MEsXagDHZAVhp5Xg2bUe4P1oBS5tDdAiBuLEdYduqVXXBPn/6098TXxDmcRKwv3daBAGLGj1GYFfzwVbIKMh5XpPwzcPJCwAwfv31KEt9356F2FgdE91c0KFffokQIPtOU8i5Zuwr3WGaB1lgU9/4kJtqcw0OBkwmKC2KVDFXPf+eWo5nO1zi7v1TDkukYEw43yh5U4yoqdHcRMYL2XHJ5aXlzMKAu4oeOuZck5MnVMHGsmkPz6VpkfoOT5/XgDwBJuHkkvE1CjeYzlq7t/2OomagYTU/RAhXODEz8FnFHww2Doq3m/I15jJUSt1sedlJpBrHsVQerhSt81+Y1iQwqG0x4GQzVAkqjMGFzBHT/v1l6dqoElxL5eQs7ZzIX37jf/FwCk8cAfJH7PfdnuwUcqPsWcATFEuUhrQFvyxJ6V6ug1J98enFC4YeZ/9o6nkTxlyZRA7OlfS8euVucvfYVugDv1pSnD2MThfPEvqtc5DbLXkDWR/VpYf3Io+LXFvrgxXQ57/UNl0i6QMuomIRgRZPgTRdzp0YUXULU5FDlucGH52u3dFf/ZtlxyKOS1bNpJNoUX42e2PeBis4tkTu/OSjK/otqK1R8a+tT8ZamNAVWe3RAX5/P9CcwQVJ/cj5Q4WzoGGe5UsRZwEFKk6/VLvOZ+D3+O4mfBzbR2pz5DtwyfleuDgqqaFOUoncNbjldsn/oYQ6ZGVCEogvVPnpvNbVRvnItqwBLDBBGLv3Ht5M5S5gJPHLjPGvqDEcVJpEXMgcoE+QKxTcp7At0cZJBDLRxe9gubCtnwtkLEU8dO9lBh184vu4EUMBwuWF/EC3gd+SBNhsTrMxYNsd6QouOivfrR6g7knJk6pg41k0h+fStMj9ByfP68AeAJBKC6NZSPEke42h09FiQkDiAimgq4n7lYaAk4XRqaCrifuVhqgoxYsjg+riAuXt2pE6jkDaSwyGdLRN+W6Bq4yyD75D2fitKrFuK8ytLHvgOtRimUPwbdi+Us3euM/8IAUzDRm0X7m8mgzxvmFu8wmnAOFMVkhTnWwVu/CD0ZkVp4ew0D7k4UL0zIS5U9+l4Tb8vZ9kSsZEr9FqWCRLVdJRdYrcJzDEudBuOtuEVNOATyZ91pkshDJjT0kp/jq4jpyDry8Iil5XbDcfmhVplM8J0GLrVkuxSAs/x+z9HutuiH8lo58K9lizAghu+wDAVVGddN6iWz3bbrVfyLWnvfukKxgl7wXRCygbM5LuXm91AtGpGLDqZUCmYr0BigkTwMgIa8QpE3gMsmN5UKg27Q2yVz3ByIDP2UcKnz6P1Pdfa/71wq0/Ctk8UOczQnRRwud91BNokaykeJHC533UE2iRrKR4kcLnfdQTZpY6RtID28wRA9FOY2kB7eYIgeinMbSA9vMEQPRTmUePhkKdcRA4CTAX9e8c3WYjJLfw5+OKhFrVkHdXrMfJEMzfEaVSpUl4LjR3RMeNsU74bsSxKxnwYlAC9IGD+N5osxuF7MidR5/oc6b4atT/gHr4f2fiCHkqrSO7dJz7sotf4SHK2a7GdgJB0JYg3ezAdcWrXCNc/IFqXh8Q752SEeHQQDmhzCEvnnDjXQqnDY6UsivoxNieR/UPIqogepuDfCYfqT8Egmzbjqp2siafwQF4pIjVx7qzHXd1yDh5f1Z0aiDbS7AQpQykcn7L0DYeW9xMnGtnWomswY4UXkcLk1261TQqOh6AJXkDTEhOg+tWCvHH93P15/A26rovvBzysJn1YNXXKGF/UjqDxoU26YvPb7cGjtSZ1XynJ9JJIfsBXldvAa7AlwpPXIKVqobVfvTVEkMH1+t8IVCWCkIbmTnkkk25yI8QNrrzeUyfRhZmY07b80ksgGF04ADMk376IHopzG2ErAm/fRA9FOY2wlYE376IHopzFAaUQq3cAbT3YKSyXVfh0KMcAABFzWR3vr7GHPUOV0Q+mqMABiQMQU67nsHD1f/qoJAiRxwY7rxJHHXUClz/zJUasgV5RWIntNXwkTqIk2AB2HAVPT0SIgV5K/JI466giEzTkYcfblgs+zqFnNCaNH+fFz5nefEMKpOcaNMHZhWCbMlMmNZNAfn0+bpwBbGMphde3JwAkmHJqlJURlgWgEcBiIj4qvLT9Ms6lFsAcAJIt7m2lPIUV6lFsAcAJIt7m2lPIUV6lFsAcAJBKC6NZSPEjhc77qBGQ8j/JnEnJF6gbSMh5H+TOJOSL1A2kZIlfF9MFrJgexwQ7frdDn23yckXqBtIyHkf5M4k5IvUDaRkPI/yZxJyReoG0jIfvdeIe0Ruu6gGSfG1HMzIOkU8akN6rInqp65rJGf7EGPb4zu7Yi5FN3EEUCFvF+ykSIk5JsCooS14go16PNSFjzfkJSaQp32/AZJ8bT0FS4xEs3DNSCTCGWjaEpwwrQZCzLCyKwcDH28waxz4LdL8ksCEg8B1A0V0snI4urcRHfWz0sMpNE97PWNH8n8WD0acOkcWjqhUXkHmW2+e8qIKZ1xEs3DNSBy2rTlg7Z8N0MCYcb5su5GHH243zZdyMPhRnL3JnPuaD4nDkWUTYcAgD8lXT7l939e8NvdMVpkXAJNqMBY71eJcxd4nr8VwjwCAKHwzpk9tN+0u0lPtpVq2NDa3MXWbo6xujGTiOxntGS8bmNe7yjWQH5YYZLKwmRa54LqJPQ36G0BGrMS9K5s+bgX/jr75AcYro0PG+UMe1ZFNHzjEgJOsqDUMPgD+AWV5pBOTBbnil6VnJoanLnQrheg+dXhuc73KKaqx0jYYisZwmIEtTzN2lbMM26oQwncp7i9RO2P/5AKavaql6kKhH1xenrDXbEj+4q0X+DCNBJl446HQ+hdXuF8rssor/CgeHz/FGWcU+kQTdL1u3V5fFLtKPsi2Rp5OHo57FgFs5haB1x3c6vKGJk6lDZfNDGER+x15PthhDqOEgqO2QJoE01wnGiGubeQARX/j0OvgPXRVojjEtM5a6gdpWiCAHKtT/Lyt11WneXtgkxMlyCoXb8H5VWW6xLc4w6iUlxSDais1vN7O0siQsg74x36ejl+j30ivPpfUBQjMRbCZqYcb5su5GHH243zZdyMOPtxvmy7kXmadXaeA6eLsXXf+pNEbA8Rm0bI25T1+0p1t4Bo0ZuXo4gR1wxHRaajWnNvqaFlyWtM6uv/FWr9B6cDPC59ygnMBV4DA2U5uVCBj7TB4o9KCrWXCNpUjx8X1YxVFbu5j5ZDdF16P50BIlPe8F7kKmhyCM7NsUfOQ4bAMqhZZLoPgyb8JNHjj31E20TmHt4hx8mdEz2VjI8ND18w1zQvrtgFco0v1MzG6iwEf77u2BUaH5ur2mnfIac6HpHqUUIFYZKNlwe6v4wP6AshCNgPXps7peUbDjhoH309nJPfR7y7j/lWLyi7ctxl5Ows/tg10oM4T1GQnbGhlVphTYA6hDN2/TXdNjozik8BZH9NS7szxul8T0wX+0XJ7nIXBIVIjqlcU7wA88axKuHzuae3S4A4s5AkXcAlFocRS+efsWYYKGcClh6Hn5Hi0VUHwrJ0s4v2nt8U5+bY2YI0y6D8ID7Whfd4yAl9s+qfZXBAAQrcn+Qcitc2vY0xf8FCxDSrykjOT/jcMVplvjNHnOFGcsVCPV0ZFIlAvuOUH78q7dNslrElXkar8EusGkeITbGUkJS/vBeNtgncPyFg+TqeoCWfmVpvMF3Wrm0bI25T1+0p1t4Bo0ZuXo4gR1wxHRaajWnHzuRFxAPxJcrDaGIVgDx9CFkwRjaJNUj6eDNC/pW/OKFwZnMavgt0Ymv4J+qRxWx17A64WZSvakKa96EJcYDKbOdPwFp9S4lL79fnqYlQv4rTp6AKylhckMry2pzEPGYamlnLcqsZ5K3JtBhIYJGJ1H9aNUIq4NKRq1sht8kYF1ab0nMcYfTm5270uQSczCUV8t3Mh1jrL5FsWqsXkmnu70MAZQcpjr6v0cv9ww03+wwY+wqRlTwLbNKIdddh6zuAEmMYiL4N/efnwwt2WW6dLQsZtTu5XBveQxPCBGvirNRzwczzkkROMhbBfnFlq20klcxkgM6PeocKwQmVjX52zi9e/xjbI5Tq4qR/JwsxyASTwmRGpKEopV8b6jQow1LpCpTVHYxbDpPq3AHil78p16mQR8vreRmFqH8n2he6U3OyiBYAU1j16+sU2VWmbGDmCMbRJqkfTwZoX9K35xQuDM4+R/kziTki9QNpGQ/e68Q9ojdd1AMk+NqOZmQdIp41Ib1WRPVT1zWSM/2IMf23xs3dsRcim9xwtM0s6lCjjKnsuqTH7B9B77MDsbYQpW9vpISY9DK4nDA7KcDG0OINqItS/hvHYV1CPQkbKaMtmKptbjUF5YO3+T/D7SNnI9lFbDiw194n7yaoQ2AUtJA5PQ+RWWaSUZ4TSZxR7HxbiajnHGX/3dTSVL5W8pI7j23wwTeJJ3L+xgwzNtRPqhyK+66jahgMPreYpua3Lr2gVpY7BFNCJF6Wwedy+2q5wVS/DA1yUS9AA2ZqhQDZewFlzMsa1GvktQHP2m/OqkbNDzH+8nC2IC3p2PADVcZlN8ePo6IqQeo1YeTsY1TKESn7sVJBKPWEs0uCU++88K2zH9OXRA7hteRmEHM7QuO4j4r88eakLHm/ISk0hTvt+AyT42o5mZB0injUhvVYoDqLCDBNyCRhaX7cV+JDE9+d1yVgJDO4ThNvH2WKfd00xsJfEIAcHdDBUSTu8/hlAgRyLD2FxtNFk0D2D5ot1jjePpINmtbksdToyn0rhE2DJK4Vee8eUYeSsLBGXZpWAl6k3w/69y+IWb+EyjQy4LaffbkkjLGzTLX4CvHkOOaupXca6FdVxGW3kOKL58WL7ywaDGNu+cktpGLTqs9sQN74mnpz4rgeX4drz6CopAZLO0HRhxKUudssw4J7eKah7AX5o0dkKCdVbVIzA0A50jl7UuF0f6PjnSNnDcnwNIBtRU2MQxmXWDlLekwoJx8WFIwJWoGjHNEj0FJJqdaHuqEs3DNSBy2rTlg7Z8N0MCYcb5su5GHH243zZdyMPhRn1pGOGNECv0i2bncp6pnYlt8yt90zHykhMdgdazpjj2faps3dcwRv1fLZ0b9NpYLqhAfAbqhqBXoS+bgSJBnWzE1HQ9ZFckkpbJgAkEiAAtDsE40ebv/SCnu90vT2hHiwnqfzR+tWcYNekM5VnTfeII0c7IzEDgeWMCep/XS/kvMfnU7Vv6Vj1FpnitNH3rOwxe23ibHMtv/J1pqzNvELhE9hy9vzISRd03wTNXG1oaYNHhMT+3E/f5DwQHaGDwzZYoQ1/zk32806ylI6/oMti5VksWEvsJ/E0l7G2Ilh3NASjVrTQ2ND+MvmcTm5clS0s37YM07R60udNYMx231Ps9rs59vMvhD3nZQSBNx4sZm+5dHyfeG4j5K2/kHQ1y854kgHBE4vYdpomgaQhAHSbseh+pqQ+GEFzdQKXP/MlRqyBXlFYie0IXHNKKxE9QdsIZ6s2A3mYgaXEXJ6hwWpr4vIYt/vzK03mC7rVzaNkbcp6/aU628A0ae4A37nDI1sMFREgeg9hMSgpoqzEyWqYKD2vKlCUxR4mwJGTiCipzi8eAKCBGJ+A/fghAHhfnGm7wvn90E1lXAJrBvioLuAJSQ8DtoTKCazmeM4+J45pKK4LmwJrCJB99JOMXsYxy5uhoKAwQ1r+AxfjOs8i6KQtBL0XigJNfeb3EsK2p1kOEknq58wCtWe4K3gu1s5gGB3FkbtTgulVpK7diMAd4VlCAJCIRa2rbd2QFhB2Pq82YpCGqGVHCmUKppXrUmUgu05RdBYCRdmsyCOJRtgbuSqji1ZTud9musAdYEwm9FuyMtraY3kK6/0eAvrZbh8GEunkjyTFofxWP3b6AlH6yvEfHTA7OD6CJY8oJjfegyyLB/WCmIun4FkCo0URaefbjirEOh/KkiVQPJyxNxCkJvRYuif/v5Qi0gBvGjymWT7oK0tI/gOf1123N/dOcKD9XEO6xALsCr6OBd+3CfIQ3cuhsrrz3f1765C+KgSSda6MJzEbvLl+cetI/BCvE4oFvC7hIPyELd1TATzxFTRjKYXXtycAJIt7m2lPIUV6lFsAcAJIt7m2lPIUV6lFsAcAJBKC6NZSPEjhc77qBGQ8j/JnEnJF6gbSMh5H+TOJOSL1A2kY+QQThsNOit7ld3TRyl2MCVIt7nbp82jLkYd+pNCL3DRTT684HJBY/ktEY0HfHlLqPp/GlO0YKXDAR5A9Vs/HO+lsQkW1VSwk/GB96580MilkUh338tMaBh38f/K3cK2XzU3ciYxy/DIEiEfR4Nwxna1K0gesfPScY+3zXxANUAf/bJPnpmfJVH9dtSeQq8y/fmNNyOSJd1MA26lniGerMQmFjM83BujZQ83Kpw1tjNqiIZfgsg7zwidyL9uP/FvO5mOedDmzdoPWZrUK4iUbqEUqIFhtjC4Hw4l5OBnMwK2dhjcrTFS5RPtWkEsk/kIJymVW0p7vq3M/iOjWLNy8BfIQqvVZ6TMA+wswZ5DqHmtrcEQpFLYBEVAWw4LYEE/ggKIngSwOoyr7UrIx4hbtXyPGjjBFax94VROmTx1pJcVIp6NnKP9RRzxmk6Ii/aZ388RIYKwkjTDPoSuYW0/wkBlRwx3v37ZW3wJk40WXBY2NpoyZyIVw0weJQS2dLeVlGIOfbfJyReoG0jIeR/kziTki9QNpGQ8j/JnEnJF6gbSMh+914h7RG67qAZJ8bUczMg6RTxqQ3qsieqnrmskZ/sQY9vf+btiLkU3cAADx67AfluDmVLR4by0sTb0tVMmgKNwYR+2CFdzIJUoDxBV883Y3WEQbJ+rdhl+fFFz74YrWY2b9veTsMSF3OkTP+A37XcZE0ZMyFw8B1xJTCZCvU8fbBwFkXr4hEbb5yDKFtf5++EqD1i57AAJsObhYkdXED1nl421yib+aT7S/ZUeH5/koz/Ygx7b9w9vL8QPRTmKnBVMQVwyO9uKpYsYBg1+JDE9yYJSNaabDXj5gVBr1iaRf38+hinJcW91jBNZyikKRfXzDHbzdRprdu3y3hXYV9H/gvE+xWJagcERxNhjZh4D7fmp0vQtKPAmilbqCVqAlNeIRCmLoqGhYEw43zZdyMOPtxvmy7kYcfbjfNl3Iw+FI4JrOGND3B8lQAhEQmi5aTnJOA+G6GBMON82XcjDj7cb5su5F5mnV2ngOni7F13/qTRGwPEZtGyNuU9ftKdbeAaNGbl6OIEdcMR0Wmo1pzb6mhgAaLnDI0CL+ICjcPyFg+TqeoCWfmVpvMF3Wrm0bI25T1+0p1t4Bo0ZuXo4gR1wxHRaajWnHzuRFxAPxJcrDaGIVgDx9CFkwRjaJNUj6eDNC/pW/OKFwZnMavC+bd3lf4DUVvczVoEeQwQDlMKFVWHGAL/MR6ulvoPcSckXqBtIyHkf5M4k5IvUDaRkPI/yZxJyReoG0jIfvdeIe0Ruu6gGSfG1HMzIOkU8akN6rInqp65rJGf7EGT3OfT8O4LTxV4qdCkaaVjrclDs6tNudLCSwoaJElO7Rlft9RaKgEq9DG3hIaE0AEX8QHGPkKvzXgG11jRkD40rVWBpeOdwnvYyRaYbbgFkV1dU/AB439jXvUfGfCaVwKRS9fPTloIB2Rrl7xqQ3qsieqnrmskZ/sQY9t+4e3l+IHopzFTgqmTM9StS4vXyCS9MqGTEYRHbrpvGGtm+Fk7NPLF7OzUhGciMog/QhwK4/uX1jrFg+me0Cjjiv8j+kh6o3TfOcZWKgDMyeZcohuuzfW9wCFIYbo202EP7U3unFezvxQ9qDwCMEMJEdBUeKWH0nw6EmOH9btuL9JHRHPEv1Sgc8Wvsdumzmo8f//yMNIT4r8i/JVtnhxDjpVI6lYaamzpGbari6lRqyBXkr8kjjrqBS4iZKcDw1LUArmZvAdTewayqgUE05qDABjp/xaFwqaJvRktNhwsdu2hdmKh9A/wi91EpewmIrgR/m6Y8VBAE1HIatL7z1V99L4D/42wvCMwAjNZN5l+4mg7OX9/y4S4YpTNVyxEJEYPpLNcZWdI2rIIHq92qlMW5TxG+2Scq1ObjVAy3oH1GEdmm8cYMGZQ93dpOSZR/EOzuN5RKGRG5JSvWd0RILv61D3UjX3TAn11swoCVYC4n5ALh7TMmWFY1AEapMbLZpCP/ed0kXHK0M3ssCXFCKW1puoFLiJkpwPDUtQCuZm8B1ItX2Tj3madXaeA6eLsXXf+pNEbA8Rm0bI25T1+0p1t4Bo0ZuXo4gR1wxHRaajWnNM+TB+PEUyMMZqCdNTt1hCxfo7BXjoH4c8BKvYf1kId7Bd7AFsS0/8y2bW7AqGma8ccsWFl8JKd0EGA8rHa3zHvxYlXZiD/9LO9bCUjQPXMV1n2Z4DCQH+2OtTvQVn3HfaX/Seq9TBIFr6W8rZ1D0e/xVtU0ops6tH/EJXINF+abxU6KJ2DOW4wGuBS/NHSm58A4kIHKlg1vSjoN4QeqIoF2oeHQWHNf10OvQusbdow9ukoI9gDeFcLpzRo7lOqmQpAd/owNTx3+cuEjQmh+LQFj/OTlufeNeIdMLwnw8eLXsCKQD6FMovbwAumL3LNQG6WCAAsKgE7+e/Aw1MNjSz0CKkOX/olqq3r/w4rz+mL5zLKuPK3xCSkNlbKpuVmWj1qCmXztWE00ctQA1DfY5LKe0wayJt4ImFpLji3hzPU0nxAxkCO4JRnxWfbf9XqlcMW1JdusiYFVMD6iiPOMvTRvtTHOWuxbGwoXLEcUBtoit1j1/UF1w+GwCUx1vYtbPfugZ/qihW5pk5OZgmRojsP/UOiOXvybwF17m2lPIUV6lFsAcAJIt7m2lPIUV6lFsAcAJIt7m2lPIUV6lFsAcAI/ZmTncewG0rIGA5AgZQJkxHzaG8BZS+Hw2nXaWNox7kcHsy3PLHu/0HFdgG0rIAAAAAA==" vertex="1" parent="LvrDcGgFmxN_GRHWmqSq-254">
          <mxGeometry x="103.19" y="195.63" width="76.8" height="44.37" as="geometry" />
        </mxCell>
        <mxCell id="LvrDcGgFmxN_GRHWmqSq-346" value="" style="shape=image;verticalLabelPosition=bottom;verticalAlign=top;imageAspect=0;aspect=fixed;image=data:image/png,iVBORw0KGgoAAAANSUhEUgAAA5gAAAIABAMAAAAVpN4UAAAAD1BMVEUgYsbm5ub///+kutu2zOyeE8LXAAARp0lEQVR42uzdDVarOheH8RzrACRlAE3sAFAYgBTmP6YLtNWqtCSQwI73yVrvXed/7n3tlp+brwRR9jxMdh7EhKNiS4BJBJMIJhFMMIlgEsEkgkkEE0wimEQwiWASe8zL3+jLXxETjmCCSQSTCCYRTDCJYBLBJIJJBBNMIphEMIlgEgdMJgOZnCaCSQSTCCaYRDCJYBLBJIIJJhFMIphEMIlg8hQYkcnpraIxRmcazETjp5zN8ratyrJpm/rz74wBM5lo8rJU90dRVp//KZhSY+/YFMpx7CoNptT9aubu+DXKuvsR0GAKij4NOSbafR0wZUTTqMWjPIG5fTSlCjR2JzA3jNY2KujoPA2YG0Rt94UKP7rjJ5grRx1u9/qrPWsL5qq3BQoVc7ylekshQczIlLecYEaOH2qN8ZYkZlJTdnqFrvziZHI6Zgx9LeJ67AQzfDyqlcdOgxkpfqj1xzOYMeKr2macwAweC7XV2IEZNOqj2nKcwAwXNzlafj9yghkomkJtPXYazCDxqCSMdwPm4qhflYzxz4C59P7di5IydhbMZffvPpQSpAnmkviiRA0wF8QPJWxo4Zhy5+j0wkuSsqq16R8csqZ/vMRmbbl4scmJyelZcX5f7sr6c330yIrpvCyWaYLp/cTBLMtd1XOZxx9kuj9nzXxNMH3X380496k8P+g4a6+rwfSM/paVnrOkbs6STQ2mX3z1lpz7U2PzYu71JphuDeO5VscsWhzv++jRM5g+0aNZdvpz1nP25/q25xOY7vHFb5cX5HO9JmfewXSNrx5dGfBzj763gsB0iH79EbCM/QZ7hD+OWbiehkQoo/A5bII5GQ+OD8aaKNe3zs15AtOlIuclVlHKcF5xBOZ0dLol+27ileF6U/iJp8Cm4qvHLZhYZbw672iZnH64TsTF0kQvw+u2Hph34sHpcBm/qsLj0gjM2S2xzpJHN00wH8WDk+UaVTldcT6B+SBO72PNWlU59SaY9+Nh+txnvaqMa2uCORqLyfPHNat6dWxNMMfi5NbTq1blsnTlHcw78cXpvs96VTks3N2BeSdOXmCuXZVxug0E5kg8TB6fVq/q4HIKBOZILARutg+HUyAwR6LEo9PR4RQIzN/xMH1Jt0FVH9P7WUGYUiblpk4dzTZFTl9sGianf2NONMBGRU5fnryB+SvupxtzkyInT2ifwPwVH2+0582K1Ak9eiIG8/Hu7H27Ij/cZjXBvFnj+HiDbVjkweX+LJi3MXeZ+tqmSMfHiMD8jK/T57IbFanB9I0HuZiF4xkQmNf4ePqr3rLIg+MZEJjXWExfZYKZCqaSi/nqMKcJZiKYe8drEzD/Qmc+gfktmpQ7Uw6mjPnMXPDvBp3uTCanv8W9YMwDmH7xNWXMf2D6dOY7mH8H82nLIgt2s0F3s5tiKjCDns1u+VjrEUzfKBfzAKZn1E7X5ZsUWYAZuDN3mxXp8PDQO5g+Z7OXmYktinT4/SdcmnhiPm1VpAIz8KXJdg+cH8AM35lDa25QpAIzQmf2v3x5/SIPaWHKmM90wHw26xfp9hYHJqe9MbsrgNWL/AAzEub6r/px/F2lYM7YbKs/b6XAjNcDT+tWVYAZc4e26qJG51flgDkL8/Ke4FWqOigw42Kq1aryeE8gmDMx1UpV+bzzEcy5mGqVqrze3wnmbEylo1fl/t4hMBdiqpOJW5Xve+jBXIB5fnlUtKqcXyAFZghMtdPRqtKepYC5FPO8q41Rle8ulqfAZs1n/trVxlgk6L2LZXJ6zkqDsXt7ocuY05ZgBujM4chpQpZh90qBuVFnfnIGKcPmhQJzu868cgYow+tV8GBG6cyB87S8jPldCWbAzjz/MuZlZTRq2QAzWGcOo5q5EHNpU4IZvDOHUWbXW6uOn2us3S+XBDN4Z14On0ODup3x2LxUgQaYwTvzFnTqc01TqHADzBideSNa29GR5W2pQg8wY3XmD9XdrhxGUahoA8yonbnuAHOdzvyfYSY6nylpMDkNJphgggkmmGCCCSaYYIIJJphgggkmmGCCCSaYYIIpC5P5TCanWWkAJp1JZ4JJZ4JJZ4JJZ4JJZ9KZYNKZYK4RdcqYvNjtRzyka7kzYP6IyTcmmF/xkHpjgnkTk21MQZgy5jNtslcnz2b7TSdscrr/Ra9Fkpg6A3Mk5oleY4I5EvVLgpgGzPGY4J2D9wzMOzG5c6B/Bsy78SW9nSyYd2OK937AvBOPye1kwbwfE7qr92wyMB/Hj2QwbQbmZEWJjBOY0zGRw+aTBdMhJnG1+c+C6RQTuNp8tiIxxcxnfkX58yfnCWlxm04ipnxNnYHpHosELMH8C+u7dAamVzSCLQ2YvlGspQXTOxqplmDOiSJvyFow50Vx57Q7C+bsWEi0BHPmC2dFaT5bMJdELejBzTcD5rIoR/NkMjCXRhmXKDstcuOkhplJOHD+M1kKmALnM62433mpBW8c4ZPTv6MpBFyRgBko6mbDpc5Ggxk06q2a89nK3zipYWbbXKTstMnAjBFtubblm01m46SGufa+9t2aDMyIcT3OtwS2RuKY1h6LtSjBXCHG53xLaGskjml1VM5dbTWYK0ZrYt1FKE82ua2ROGZ/oZIXMZrSpLk1EsfspwuC7m47SZvw1kgcc4iB+nN3SvPbtxKfAjvN/f9qvfj4uau+bjLNKeONyenvsVr4pUxTzITUS7+FPZg/YntavpQva7xu3pZlfd1TLfncYwPmz85s9PIvpfs/ZnlTPuzS3a4aFE2QZT2mBfNXZ7Zt6DW33RctuzH8o2nLpmy//l24D2rB/N2ZbVtHWNlnvtZH6iiPO+dgjnZmf9gUvEhwNB5bMEc7s211api9JZijndkdNtPCNC2YdzuzrdPCbMF80JlNnRJmC+ajzhS0YaZjA+bET3lZp4LZXbeC+bgzy7OmfMyuUjCnOvOsKR5zX0rEFDIpV57H0KAJzBzmfaHXmt+ZnL6PWYnHzIeWBNMBs620bMzLeSyYLphtW0vGvF6TgOmGWQrG/CoSTDfM8xWKQMy8BNMbc9CUh5mXYM7ALN8EYu5LMGdhlpU4zKYEcyZmWcnCNKNFgumG+akposhjC+YizH5dkBDMvAVzIeawZk/C4/dNC+ZizLbf1Qq7GQvmXMy23fzlhtlYVRIxxU1OD6P9HvWmRR7vVMXk9PTk9NhmO21XZHe0BDNkZ7ZNqzcqsp+GBjNoZ7bDae36RebNRFVg+nfmMGW9+hLpfPpHDMxZnXmzRnqlqu6WAebizuxjtd5CzKYEM2pn9ld19RpV5c1EGWAu78xh1LGrMk5lgLm4M4eYxawqb1owV+vMsj+z1XGqMsPFCJgrdmb/51aHL6NtfMsAc3lnDqk5n9uGKiN31gMzcGdeYhvo5Lb1/Fwww3bmNVbZ0lvp+XU2K3XMBOYzHWLVzvzci+Pcz2VyOgLm7cpM55Ug3b69CvG5YEbA7Gy6/2XdUVRPfG7eVk1VLfggMONj3iygruoeVevr04FZd0zJ87wN/UFgxsc8x6brwGusgn5lMFfHXCeCCSaYYIIJJphgggkmmGCCCSaYYPIUWOT5zM0jk9OBVhqA+bdWGoBJZ4JJZ4I5HfOEMTMwf8R9qphXSzBvYqqYJwPmr2iSxGxOFsyx1xdWCWKeLJij8ZgeZm3BvBOPqWHWFsy7MU8Ls7ZgPoj7lDBrC+bD2KSDWVlxmELmMz9jMvOZtbx3XInDtIlg1hZMh5gEZm3BdIq5eMymtmA6xlw65smC6Rxz2ZjagukR95IxTxZMr7iXiyluW4nHHH7FkkTMKgMzzMsNt49VBuasKBCzzsCcGRtpmHUG5uyYV5Iw30RvK/GY2sjBbE4WzGVxeDueBEwR75dL5Cmw+7ERMYFZydw4sienR2IuALPOwAwUm40xW8kbJzXM7FixZv3PYJ6Xu2+C2bTiN05qmE6vPowRh+kuMIO/lHQDzKZOZOOkhmntcfXFlNqC+UdW1daZBTNmbFbDbBPYGoljzn8vkF+s0tgaiWP2nLExqzadrZE4Zpad777HwqzqtLZG4pj9dUqsy86qTm9rJI45cEbArOo0t8YFU/oc3YPYhp5+bnVmkt0aCUxOP45Zv7cNhFnV6en9Kcxu55I3YTB1kt/+38K8uS+04MVhdcLfvjzM16dly9+b+ZhVvfRbeALzO6ZafObRnd02nmu0Pm8OLPlc/QLmT8x/JsCXytrG8RDaXZNkYb6FVwXmT0z1HuoQerloHMe83KgP9y0YBeZvTKVDfeXh/ad1nefDbdbbX0RQZzrwt6ALMMcwdya900j9osAcw+wPm6lhDnWDOYLZHTYTwzyXDeYYptJpYRoF5n3M6xxOGpimAPMR5i4lzIulIEwZk3JXzMu9gxQmEnXxWTOT09/iXn3XlI+pPxSYE53Z7bRMCpg3lmDe7czuAsXIx7y1BPN+Zw6awjG/WYL5oDN7TdmYX+c+YE51ZqcpGtN+twTzYWd+asrE/GEJ5uPOvGqKxPxpCeZEZ/7X3r0mpw1DYRgWURYQCRYQaViAY7OABLL/NdUGSgrY8U22z3Ff/Wm/6UxQ9FQ3y8ZXTYGY4ammYLb1TGNeRWLWVBTM1p55vk4rDrPOEsz2nllpSsP8NGAO65nV+WaQhBkyA+bQnlmWDzmHKL7hP5wkTFnnmbXLIBkHmJ9NVeRwuitmOdSKaKemIRbMXpjVjnPxSm5/qR+YPTB/VrULVdL/1i3B7IdZroPigpX8vVuC2RfT2PMmZYlKxr0xYCbFvHTO+SvZNsKCOQjTmGOcvZLx1KFeYA7ALMfamWu1NwbMiTCNOcxZq31mwJwQ88o5R606U4I5GLNaCU2/sexDCeYIzLJ3+km3nb51YwlmiqXGbSl0fi/XJLWKoTAGzBkxL6PtFHuRXda7JoIwZZxn7vo3oSl8THra6Qd0ygsmh9P3cVArVp4x0U3qMZzMwALmffRDG9IUXzFFNQZLgpkQs/I8jqvGrjCjSg5mOszrdqVcEfX73FD+MRbyvBYD8z5m49vU2OL2aE/r554dU3xoWQKY9/HdpCrF4e/P9udv6b59UAi3/cepMAkLmJNh/u2m1hbF9+Hr8hXP5ean+g7ELDPpiwVzasz5ysaBeR/3ejFfwHyMejFzMB9jphYzgPkY1U6aFsz1YL6A+RzVTpmCMGWcZ8bxF/QWmzIXbzpph9NlfNM6ZYLZ9BXZCneZYD5HpeOsA7MufirdmIDZ9FoJhdfywKx74YvOURbM2qhwPbsBsyHu9GHmYDY9F5ApXP6A2RC3Cpc/YDZEdUugAGZzfFfYMcFsejBS47E0mA1RVdfMnTRMMeeZl6JpKSur6UQdTl+iomt6RzDbHq1Ts9fcODDba6Rm9QNma3xTs/oBszXqGGg3Acwuca9jkAWzS/QKBlrvwOwW5Q+0uQOzawwKJkwwu0bZ06acp2tVYIq+RmujA3MtzxGJayvxmFHsXbQezP5R6JL2GAVjyjrP/Pc2WpGauci2knk4Lf1mvdyBOSwGcZpHB+bQKG3e9A7MEVGSpo0OzFFRzkX31wjm2CjlpqCXCOb4KEPzGMFMEjMB02UEM1Fc+tLeJoKZLi471OYRzJRxwesHr1F642jDdH6hZzftMTgwk193X2Qd9BFVNI42zDLss/lHWKcKU+x5Zt0zYrOOtdYHTY0j+nC6NsbTfJNllK+nG7McTE6zrXvAnD5Oz2l9VNMayjHLOOlS6KCtNZRjln/NJpsqI5jzx+0knTKCucxOJZwSz5QBzOWiH/qa6KdyfYE1mIvGEmE3cv60X7cfDaaEuB0Ien1ltfZff12YVen5qlr78+5xMAVOoT5G99362lp7ffnt3XtvwRQdv4tLsfb8ltuyHL5vRw0r/H1XjenCw7+GsDa9R0w955nEFR1OE8EEkwgmEUwimEQwwSSCSQSTCCaYtASYRDCJU2Ku+Xzvf4tggkkEkwgmEUwwiWASwSSCSQQTTCKYRDCJYBLPmBwGcjhNBJMIJhFMMIlgEsEkgkkEE0wimEQwiWASweQpMCKH08Sp4x+ys6jhk8PASAAAAABJRU5ErkJggg==" vertex="1" parent="LvrDcGgFmxN_GRHWmqSq-254">
          <mxGeometry x="20" y="197" width="77.27" height="43" as="geometry" />
        </mxCell>
        <mxCell id="LvrDcGgFmxN_GRHWmqSq-309" value="" style="group" vertex="1" connectable="0" parent="LvrDcGgFmxN_GRHWmqSq-254">
          <mxGeometry x="-620" y="-45" width="1280" height="673" as="geometry" />
        </mxCell>
        <mxCell id="LvrDcGgFmxN_GRHWmqSq-353" style="edgeStyle=orthogonalEdgeStyle;rounded=0;orthogonalLoop=1;jettySize=auto;html=1;exitX=1;exitY=0.5;exitDx=0;exitDy=0;startArrow=classic;startFill=1;" edge="1" parent="LvrDcGgFmxN_GRHWmqSq-309" source="LvrDcGgFmxN_GRHWmqSq-310">
          <mxGeometry relative="1" as="geometry">
            <mxPoint x="350" y="230" as="targetPoint" />
          </mxGeometry>
        </mxCell>
        <mxCell id="LvrDcGgFmxN_GRHWmqSq-310" value="" style="rounded=0;whiteSpace=wrap;html=1;" vertex="1" parent="LvrDcGgFmxN_GRHWmqSq-309">
          <mxGeometry width="260" height="460" as="geometry" />
        </mxCell>
        <mxCell id="LvrDcGgFmxN_GRHWmqSq-311" value="Cross Cutting Concerns" style="text;html=1;align=center;verticalAlign=middle;whiteSpace=wrap;rounded=0;fontStyle=1;fontSize=16;" vertex="1" parent="LvrDcGgFmxN_GRHWmqSq-309">
          <mxGeometry x="35" width="190" height="55" as="geometry" />
        </mxCell>
        <mxCell id="LvrDcGgFmxN_GRHWmqSq-312" value="Logging" style="rounded=1;whiteSpace=wrap;html=1;" vertex="1" parent="LvrDcGgFmxN_GRHWmqSq-309">
          <mxGeometry x="70" y="60" width="120" height="60" as="geometry" />
        </mxCell>
        <mxCell id="LvrDcGgFmxN_GRHWmqSq-313" value="Exception Handeling" style="rounded=1;whiteSpace=wrap;html=1;" vertex="1" parent="LvrDcGgFmxN_GRHWmqSq-309">
          <mxGeometry x="70" y="360" width="120" height="60" as="geometry" />
        </mxCell>
        <mxCell id="LvrDcGgFmxN_GRHWmqSq-314" value="Security" style="rounded=1;whiteSpace=wrap;html=1;" vertex="1" parent="LvrDcGgFmxN_GRHWmqSq-309">
          <mxGeometry x="70" y="160" width="120" height="60" as="geometry" />
        </mxCell>
        <mxCell id="LvrDcGgFmxN_GRHWmqSq-315" value="Cache" style="rounded=1;whiteSpace=wrap;html=1;" vertex="1" parent="LvrDcGgFmxN_GRHWmqSq-309">
          <mxGeometry x="70" y="260" width="120" height="60" as="geometry" />
        </mxCell>
        <mxCell id="LvrDcGgFmxN_GRHWmqSq-347" value="NoSQL" style="text;html=1;align=center;verticalAlign=middle;whiteSpace=wrap;rounded=0;" vertex="1" parent="LvrDcGgFmxN_GRHWmqSq-309">
          <mxGeometry x="650" y="288" width="50" height="20" as="geometry" />
        </mxCell>
        <mxCell id="LvrDcGgFmxN_GRHWmqSq-348" value="SQL" style="text;html=1;align=center;verticalAlign=middle;whiteSpace=wrap;rounded=0;" vertex="1" parent="LvrDcGgFmxN_GRHWmqSq-309">
          <mxGeometry x="740" y="288" width="50" height="20" as="geometry" />
        </mxCell>
        <mxCell id="LvrDcGgFmxN_GRHWmqSq-266" value="" style="group" vertex="1" connectable="0" parent="LvrDcGgFmxN_GRHWmqSq-309">
          <mxGeometry x="380" y="45" width="900" height="628" as="geometry" />
        </mxCell>
        <mxCell id="LvrDcGgFmxN_GRHWmqSq-267" value="" style="rounded=0;whiteSpace=wrap;html=1;" vertex="1" parent="LvrDcGgFmxN_GRHWmqSq-266">
          <mxGeometry width="195" height="270" as="geometry" />
        </mxCell>
        <mxCell id="LvrDcGgFmxN_GRHWmqSq-268" value="" style="group" vertex="1" connectable="0" parent="LvrDcGgFmxN_GRHWmqSq-266">
          <mxGeometry x="7.800000000000001" y="31.655172413793107" width="172.18500000000003" height="111.72413793103448" as="geometry" />
        </mxCell>
        <mxCell id="LvrDcGgFmxN_GRHWmqSq-269" value="API Layer" style="rounded=0;whiteSpace=wrap;html=1;" vertex="1" parent="LvrDcGgFmxN_GRHWmqSq-268">
          <mxGeometry x="60.06000000000002" width="54.60000000000002" height="27.93103448275862" as="geometry" />
        </mxCell>
        <mxCell id="LvrDcGgFmxN_GRHWmqSq-270" value="Infrastructure&amp;nbsp;&lt;br&gt;Layer" style="rounded=0;whiteSpace=wrap;html=1;" vertex="1" parent="LvrDcGgFmxN_GRHWmqSq-268">
          <mxGeometry y="83.79310344827586" width="78.00000000000003" height="27.93103448275862" as="geometry" />
        </mxCell>
        <mxCell id="LvrDcGgFmxN_GRHWmqSq-271" value="Domain Layer" style="rounded=0;whiteSpace=wrap;html=1;" vertex="1" parent="LvrDcGgFmxN_GRHWmqSq-268">
          <mxGeometry x="104.52000000000004" y="83.79310344827586" width="67.66500000000003" height="27.93103448275862" as="geometry" />
        </mxCell>
        <mxCell id="LvrDcGgFmxN_GRHWmqSq-272" value="" style="endArrow=classic;html=1;rounded=0;exitX=0.5;exitY=1;exitDx=0;exitDy=0;entryX=0.5;entryY=0;entryDx=0;entryDy=0;edgeStyle=orthogonalEdgeStyle;" edge="1" parent="LvrDcGgFmxN_GRHWmqSq-268" source="LvrDcGgFmxN_GRHWmqSq-269" target="LvrDcGgFmxN_GRHWmqSq-270">
          <mxGeometry width="50" height="50" relative="1" as="geometry">
            <mxPoint x="-1.5600000000000005" y="186.20689655172413" as="sourcePoint" />
            <mxPoint x="37.44000000000001" y="139.6551724137931" as="targetPoint" />
          </mxGeometry>
        </mxCell>
        <mxCell id="LvrDcGgFmxN_GRHWmqSq-273" value="" style="endArrow=classic;html=1;rounded=0;exitX=0.5;exitY=1;exitDx=0;exitDy=0;entryX=0.5;entryY=0;entryDx=0;entryDy=0;edgeStyle=orthogonalEdgeStyle;elbow=vertical;" edge="1" parent="LvrDcGgFmxN_GRHWmqSq-268" source="LvrDcGgFmxN_GRHWmqSq-269" target="LvrDcGgFmxN_GRHWmqSq-271">
          <mxGeometry width="50" height="50" relative="1" as="geometry">
            <mxPoint x="173.94000000000005" y="148.9655172413793" as="sourcePoint" />
            <mxPoint x="212.94000000000005" y="102.41379310344827" as="targetPoint" />
          </mxGeometry>
        </mxCell>
        <mxCell id="LvrDcGgFmxN_GRHWmqSq-275" value="" style="endArrow=classic;html=1;rounded=0;exitX=0.5;exitY=1;exitDx=0;exitDy=0;edgeStyle=orthogonalEdgeStyle;elbow=vertical;curved=1;" edge="1" parent="LvrDcGgFmxN_GRHWmqSq-266" source="LvrDcGgFmxN_GRHWmqSq-270">
          <mxGeometry width="50" height="50" relative="1" as="geometry">
            <mxPoint x="31.200000000000003" y="148.9655172413793" as="sourcePoint" />
            <mxPoint x="97.5" y="183.41379310344828" as="targetPoint" />
          </mxGeometry>
        </mxCell>
        <mxCell id="LvrDcGgFmxN_GRHWmqSq-276" value="Service 1" style="text;html=1;align=center;verticalAlign=middle;whiteSpace=wrap;rounded=0;" vertex="1" parent="LvrDcGgFmxN_GRHWmqSq-266">
          <mxGeometry x="68.25" width="58.5" height="27.93103448275862" as="geometry" />
        </mxCell>
        <mxCell id="LvrDcGgFmxN_GRHWmqSq-357" value="" style="shape=image;verticalLabelPosition=bottom;verticalAlign=top;imageAspect=0;aspect=fixed;image=data:image/webp,UklGRogoAABXRUJQVlA4IHwoAADwNwGdASqEAwgCPpFIokwlpL+oIlL4s/ASCWVu/HhbKP4p+CP79/wXRS2HqH2UPwD3ff4Bzb7AOiZ5v+C/wjwL/Rv4B73M//0/LgHor/wD+AeRz+H/f/2nH//9P3QAfwD+B/w/7//oP+KfwD77vX69Sf//09xMf0feda57//bP3M/tvSh8A+O/5x0zp4/aH5/yVf8v9R/gJ+iv/J/a/658gH6a/sX63f6V+6X+2egD+qf5790ve//vPqd/3HqAf5LqJPQa8uv2aP69/0ODu6V/p3/v/45/NP//7//jv575W63K//fd2cew35iagXsLtZO9U3TzDvbDQf+p80/8D0WcN4eJ/1/KW+W/db2mFPmLZSsn1/QRB7j0cSlv+ih7EfCHMEjMaocF2qzcjpDgpfuNbhe5Zt9xjVZ25qYM6IAPLIMlVlFJYZBkYaunpQQ5gkZjVDgu1WbkdIcFL9xrcL3LNvuMarO3NTBnRAB5ZBkqwwW36QN2GVIAdTWQGvsTKysoS/d9lP+bc4yT3pSipUgB1NZAbOIKIO1BVR3Mf6U8p9M+KkZmy9bkkfwchl0+DpxEznsDT+PK+nTmeGduSNfo1th+RfuNYKj+IBhm3GVXX3gVk0/uwEew8iAECn/NucZNw+WThFrKMZUecWeKHvqWZZrn4DlPpYohT2rWP8AEkmsXy/8ttwffTfevmmtxhkPqoaMC24wOvCtluzbnaxDfaPDhSYFo6BgegqgSc0KMZUgxONrOJgDbem55zS5BajH/Fbw9rrh9hbhthIH4X+8ikGN4xlxLiXEuLYI/8aryoFmH9uKNskqFA0onccUDxJBoi4jvbBVadWwfo1/y6mH3yP+btq+A6q5frBI+ojafv2GWdBnA01nOH5QhUyioGK7m51XZS0fWHypsbKBVRYZjTsEqNyPFpMugwJRn8DBJ+nfQ/IJkOj9yc6mr6eUpf/O/kAakg2jBxrHcEYOZftYeCqNruWV9O/QxTr4Sn39hPkwgyIof1RUXBFiRgErfdWs31nZ5+Pf4Kve/NeC/5GWEkdDZpZc3KyhMube72OGoOJaZ+SKhRRMJlcjfDefFbuzdk0w4gm25jCDIwkNiQtpaTv6BGyGR8LncBZhkKQcEmhXS+4ghv7HYyDlFOrgWiewNmyPrDhcDIMRq9ETxXrr7wqJu7bfb/G3jPht7vY4ag4ltAkJmdiaDfa3m0uR/bW1t/xyDia7zuoces9B9m/ftdcDdVeyLE6xG/XcmZOt6IeYbc3cF3ZqV7y8Qa7wIiq0/RV/i0Lj0wjAcG/Frs7gLd7puY4Rkr3kVoIFV5rNqeLAgVXms2p0c1TICzHtBsT2duz3x7UfzWAPxUtRqzcf7dNf/CrfWMB0gaxpyY93VhyBw+GLq0bZtyTWxU7PeNeEtKDFnPqDMELtACazaniwHuK4PRM9ge4rg9E30tZ+DFNLrFz6AzWCI2T7z24jHkwJ6zXs2LpUZDo8elV9olXQPJugtYdHVkrt/6tWSYk35zwbg3BpQgfKfHnsI2pdIJHbw6NgziGW1C/I9JYFEc7X0iBk1jGHViBNMJSMuJcw7qCEEIH7nQVt1CvyPVzlC0fSPVzlC0fSPVzpds9xuu28z/3s+8Un6n54HQOihkWBlxLg/+ylR6mac3fzuYMy5sdNREsgaVkzms7dGbbHUAZgRpAxYqYkxMNj7g3BuBlDQ3sYhLk/NS1dDBmT81LV0MGZPzVmvsXzJxDgynpL0ur+3gf0jK676c9thuCUgDL38gGXEuESlIw1p2sh1R5o8zt95n1nZ50ubQLbv3ht6x4cEtUJEG9s5VCsT+AB/stvVTnPQNIi6ZJBZIfliyhMobizrcMlly0galpmJO7ohm/1xAojna+kQMmsYw6xvsjhqB21ubQLiYSCVrjGTZc8YXH2s/7pwnIgcMBBpS4NfwWtsJqDi081AiG3EBMFf4xsIzHXrL9lUFSy89ibEmNatUvb+qeK8nernKFo+kernKFo+kernS7Z7jddt5n/vZ94ubQLiYP/hF7g67PV1mhz2ds5QMCVfQpF6HUeI3DIcmKDDt2R+VoDDhZmmmD/Ak8nGMaoxPT7iVkzcL8muDToLjNne4NOguM2d7LKkLrwrdCkp0gcoifhbGamOMNdhdKsoB3Rn5r6sKXtJtRRjiOGqZFta3BNfDPh32yTh73bv4FLAbjE7YKjcKGj1ENaidrFhpdYufP0dML7vf1/C6wIJh1RK6LtGEgzTKMjnKom/9mUQNq00cVLQ8zsDJ4quoEc1GnwYppdYufTAkx+xJ3dEMwdJxnk1zJ/vKzlFwB1IK+nQGWyaauPDIqwKuY0oYd+lZ3pLHnHSg0CMj9n/Smv1wJM1m+s7PPx7+4wd/hKhngruiND1xAojna+eZ/GPQ/EAa4T1Eyy13GaD239KnfvQajdDPKD4P7xOM9Z56MrZ7y93v9QN1rXwabyGIReqSCC1XznqBL1RujX7KtsiZhTnHWGZUyUPx6SwKI52vpEDJrGMOtqljnquZuyS3tmg2UV/K2qqhW+Q47ywhxkUs632QlekJalz2D2aS+Hv7eJBMFKlzwL25PscStVv0gTu7n9yVNv3qctRMZ7EfQs+H2AEuIM1HSc1OkpX/Kw7RWAPclewg8WA9yV7CDo57ULMUrcqJbh0VsJIuzL1mOKq3QUuHkOrg9PdVWxJpQs3gFynH10bPSWtpSIzS1dDBmT81Zr7F8ycQ4Mp6S9I9iDoaiB0E4Xb/yyeWmLY+qEmXr5YmjVRA5dba+9WiWVz0oFHqbcf3L7cIHgfBT1xOJcVPblJcB4lpA1LTMSd3RDN/riBRHO19IgZNYxh1jfZHDUDtrSdX2uMPEuYd1BCCED9rtggOUhwj4HbrMyDg9XOULR9I9XOl2z3G67bzP/ez7xSdX08G4NxD9HiXEuJBDiIqyeliM17PwR766F/8AtQsBLW0pEZpauhgzJ+acIFyefvQAA2ptTbNvHiXEuDRz/MYUX1J1ThK/XRs9Ja2lIjNLV0MGZPzVmvoajnU0IVvtPwo2G8c3l0/fevXzm2BoiCEEkL4HQOfl+ezcnwWJuebRzqaEK32n4UcBDxaTLoQGZYns5JhxSW9CLbpbsLWbtkaVA5ZAgU/9oNrkxcydtXJ3dEM1m+t320yDg9XOULR9I9XOULR9I9XOULR8mx0fnAYeVkmOt756hH3uZi9ZWKixstaDdITWJn4f4FhQRMPA/MXVFXkjsX25YEuSQwFeFfM6nCkD6RoOIJr4bTEinpHMWzofj0lgURztfUxncU0606xYMoKbldtiLfIKUdk8OtyIKqa6nWLBlBTc2qwAD+1saToE1ZtPIZMAJ1kuov2ywmSXX5ybGsHAvxiYATrJdRftlhMkuvzk2NYOBfjEwAnWS6i/bLCZJdfnJsawcC/GJgBOsl02bMwsetzmjGTQF3FDx1zLkpEKTL46K9+tHqDuSkQpMvjor360eoO5KRCky+OivfrR6g6Ar8u31bgMtlEYRvpA36u8g9rxloD+QMPfHJQ0fpagyJMPitLnitcQVeFJivoNtZ2816jRtUpmej19XIR0lBtRPcoEK+DGYPsDO2NVGyE3TeWUG3EovTkr41ypVTG7yvERvm0Hrd89z1g+V5wbyhns5P7NT+zAI+AAeZg8GkseEbmnogPNLOVxQhA+jo1NWTKu7YzUpW+UDiKQXw7xiN95i1rcsWvVMtKbCDOyszxs0D1RsAsVj66ZUjuPWYmA2PeuSViZKZBlY5na8HB/9Eax3pCi46K9+tHqDuSkQpMvjor360eoO5KRCky+OivfrR6g7kpEKTL46K9+tHojFVGM6DBI9/AyuMoA6lGviTa6cG1GnlhExYke/gZXGUAdSjXxJtdL4b2nMmAN+TvhMfeWeQ+85QrLrKhKNJtHQJWyagIN2tKkScYL9H67G0HVNnZAXGn34XUa3AP7Cylgo7BmA8zx0ldJHUJQfxaEAAAD8RFw/YLzP1brgud91INctFdEvVJpSzjn/8QkFpPJ3BodxUThEkaLOMoAhN1nIAg3/xhFA2S00PXmiucmKaJtp2XvZdyuAlsYUxaHWzZ2zIDVlZewwuJke5XAS2MKYtDrZoDdq/2Ce779roGNpAe3mAbBNxr8HSKcOOdh0onupKE2meI0UNokShM7BmiOKX/QZeH7C5pXCBF4PY7PhR1AjxEAmdk98NU2f9Y4AAAFhktJRwMf56gB3AYQu4nbBIDJqsCI/o4pCzij2e4UKZW9fOI7V+DpFOHHOw6UT3PA2MmV3FTvuChQDZWDsHV+zMDwFGPITSy66edlt6WiyI4xZcapBqfOV3PUrs/14MrmAxrU6Kmzo2uKAZpWs3c4kWMFiLy34pJbXC76O2qJwYghA5JePpmafRTVWbxwPx6qhcgNCk6NptvrK1NNwEKt0HPJwFPhYAR/imPfWowzheuAXWrjiEJQSbXMT6x1MIHu5QX0dV2hlPcVG+PvEOCLn5ilQXXSUwLEgo4b5DEPveEMnuPtxvmwS6/XLBDVu6zj9x9uN8oeVOM/z3Wk9ma/rhwwrvcTnrLf5vwEiGig4NDUxmvmE6UzhG3nSNmJFo+7I7RB0SvEvJFGOjjlRob23DhNsnAzlInT12yDGcwMNh4JwWzqMAn5A9YYTAVbBo3BhPnd0VwNuHvDpZuViDBx9BWAQ5owHZKGCwd/xPkaMpCtII1Fl1OjAchA8cVc/DPYlSN9KX7alrosnidrj8Hz23NgcSbPlXR1aPTIQ5M1J+ZFplFrInP5pQBvM+VEE3Ka7c4BNth0M63U88fIwKWp8T9C0me6bTpw/MEsXagDHZAVhp5Xg2bUe4P1oBS5tDdAiBuLEdYduqVXXBPn/6098TXxDmcRKwv3daBAGLGj1GYFfzwVbIKMh5XpPwzcPJCwAwfv31KEt9356F2FgdE91c0KFffokQIPtOU8i5Zuwr3WGaB1lgU9/4kJtqcw0OBkwmKC2KVDFXPf+eWo5nO1zi7v1TDkukYEw43yh5U4yoqdHcRMYL2XHJ5aXlzMKAu4oeOuZck5MnVMHGsmkPz6VpkfoOT5/XgDwBJuHkkvE1CjeYzlq7t/2OomagYTU/RAhXODEz8FnFHww2Doq3m/I15jJUSt1sedlJpBrHsVQerhSt81+Y1iQwqG0x4GQzVAkqjMGFzBHT/v1l6dqoElxL5eQs7ZzIX37jf/FwCk8cAfJH7PfdnuwUcqPsWcATFEuUhrQFvyxJ6V6ug1J98enFC4YeZ/9o6nkTxlyZRA7OlfS8euVucvfYVugDv1pSnD2MThfPEvqtc5DbLXkDWR/VpYf3Io+LXFvrgxXQ57/UNl0i6QMuomIRgRZPgTRdzp0YUXULU5FDlucGH52u3dFf/ZtlxyKOS1bNpJNoUX42e2PeBis4tkTu/OSjK/otqK1R8a+tT8ZamNAVWe3RAX5/P9CcwQVJ/cj5Q4WzoGGe5UsRZwEFKk6/VLvOZ+D3+O4mfBzbR2pz5DtwyfleuDgqqaFOUoncNbjldsn/oYQ6ZGVCEogvVPnpvNbVRvnItqwBLDBBGLv3Ht5M5S5gJPHLjPGvqDEcVJpEXMgcoE+QKxTcp7At0cZJBDLRxe9gubCtnwtkLEU8dO9lBh184vu4EUMBwuWF/EC3gd+SBNhsTrMxYNsd6QouOivfrR6g7knJk6pg41k0h+fStMj9ByfP68AeAJBKC6NZSPEke42h09FiQkDiAimgq4n7lYaAk4XRqaCrifuVhqgoxYsjg+riAuXt2pE6jkDaSwyGdLRN+W6Bq4yyD75D2fitKrFuK8ytLHvgOtRimUPwbdi+Us3euM/8IAUzDRm0X7m8mgzxvmFu8wmnAOFMVkhTnWwVu/CD0ZkVp4ew0D7k4UL0zIS5U9+l4Tb8vZ9kSsZEr9FqWCRLVdJRdYrcJzDEudBuOtuEVNOATyZ91pkshDJjT0kp/jq4jpyDry8Iil5XbDcfmhVplM8J0GLrVkuxSAs/x+z9HutuiH8lo58K9lizAghu+wDAVVGddN6iWz3bbrVfyLWnvfukKxgl7wXRCygbM5LuXm91AtGpGLDqZUCmYr0BigkTwMgIa8QpE3gMsmN5UKg27Q2yVz3ByIDP2UcKnz6P1Pdfa/71wq0/Ctk8UOczQnRRwud91BNokaykeJHC533UE2iRrKR4kcLnfdQTZpY6RtID28wRA9FOY2kB7eYIgeinMbSA9vMEQPRTmUePhkKdcRA4CTAX9e8c3WYjJLfw5+OKhFrVkHdXrMfJEMzfEaVSpUl4LjR3RMeNsU74bsSxKxnwYlAC9IGD+N5osxuF7MidR5/oc6b4atT/gHr4f2fiCHkqrSO7dJz7sotf4SHK2a7GdgJB0JYg3ezAdcWrXCNc/IFqXh8Q752SEeHQQDmhzCEvnnDjXQqnDY6UsivoxNieR/UPIqogepuDfCYfqT8Egmzbjqp2siafwQF4pIjVx7qzHXd1yDh5f1Z0aiDbS7AQpQykcn7L0DYeW9xMnGtnWomswY4UXkcLk1261TQqOh6AJXkDTEhOg+tWCvHH93P15/A26rovvBzysJn1YNXXKGF/UjqDxoU26YvPb7cGjtSZ1XynJ9JJIfsBXldvAa7AlwpPXIKVqobVfvTVEkMH1+t8IVCWCkIbmTnkkk25yI8QNrrzeUyfRhZmY07b80ksgGF04ADMk376IHopzG2ErAm/fRA9FOY2wlYE376IHopzFAaUQq3cAbT3YKSyXVfh0KMcAABFzWR3vr7GHPUOV0Q+mqMABiQMQU67nsHD1f/qoJAiRxwY7rxJHHXUClz/zJUasgV5RWIntNXwkTqIk2AB2HAVPT0SIgV5K/JI466giEzTkYcfblgs+zqFnNCaNH+fFz5nefEMKpOcaNMHZhWCbMlMmNZNAfn0+bpwBbGMphde3JwAkmHJqlJURlgWgEcBiIj4qvLT9Ms6lFsAcAJIt7m2lPIUV6lFsAcAJIt7m2lPIUV6lFsAcAJBKC6NZSPEjhc77qBGQ8j/JnEnJF6gbSMh5H+TOJOSL1A2kZIlfF9MFrJgexwQ7frdDn23yckXqBtIyHkf5M4k5IvUDaRkPI/yZxJyReoG0jIfvdeIe0Ruu6gGSfG1HMzIOkU8akN6rInqp65rJGf7EGPb4zu7Yi5FN3EEUCFvF+ykSIk5JsCooS14go16PNSFjzfkJSaQp32/AZJ8bT0FS4xEs3DNSCTCGWjaEpwwrQZCzLCyKwcDH28waxz4LdL8ksCEg8B1A0V0snI4urcRHfWz0sMpNE97PWNH8n8WD0acOkcWjqhUXkHmW2+e8qIKZ1xEs3DNSBy2rTlg7Z8N0MCYcb5su5GHH243zZdyMPhRnL3JnPuaD4nDkWUTYcAgD8lXT7l939e8NvdMVpkXAJNqMBY71eJcxd4nr8VwjwCAKHwzpk9tN+0u0lPtpVq2NDa3MXWbo6xujGTiOxntGS8bmNe7yjWQH5YYZLKwmRa54LqJPQ36G0BGrMS9K5s+bgX/jr75AcYro0PG+UMe1ZFNHzjEgJOsqDUMPgD+AWV5pBOTBbnil6VnJoanLnQrheg+dXhuc73KKaqx0jYYisZwmIEtTzN2lbMM26oQwncp7i9RO2P/5AKavaql6kKhH1xenrDXbEj+4q0X+DCNBJl446HQ+hdXuF8rssor/CgeHz/FGWcU+kQTdL1u3V5fFLtKPsi2Rp5OHo57FgFs5haB1x3c6vKGJk6lDZfNDGER+x15PthhDqOEgqO2QJoE01wnGiGubeQARX/j0OvgPXRVojjEtM5a6gdpWiCAHKtT/Lyt11WneXtgkxMlyCoXb8H5VWW6xLc4w6iUlxSDais1vN7O0siQsg74x36ejl+j30ivPpfUBQjMRbCZqYcb5su5GHH243zZdyMOPtxvmy7kXmadXaeA6eLsXXf+pNEbA8Rm0bI25T1+0p1t4Bo0ZuXo4gR1wxHRaajWnNvqaFlyWtM6uv/FWr9B6cDPC59ygnMBV4DA2U5uVCBj7TB4o9KCrWXCNpUjx8X1YxVFbu5j5ZDdF16P50BIlPe8F7kKmhyCM7NsUfOQ4bAMqhZZLoPgyb8JNHjj31E20TmHt4hx8mdEz2VjI8ND18w1zQvrtgFco0v1MzG6iwEf77u2BUaH5ur2mnfIac6HpHqUUIFYZKNlwe6v4wP6AshCNgPXps7peUbDjhoH309nJPfR7y7j/lWLyi7ctxl5Ows/tg10oM4T1GQnbGhlVphTYA6hDN2/TXdNjozik8BZH9NS7szxul8T0wX+0XJ7nIXBIVIjqlcU7wA88axKuHzuae3S4A4s5AkXcAlFocRS+efsWYYKGcClh6Hn5Hi0VUHwrJ0s4v2nt8U5+bY2YI0y6D8ID7Whfd4yAl9s+qfZXBAAQrcn+Qcitc2vY0xf8FCxDSrykjOT/jcMVplvjNHnOFGcsVCPV0ZFIlAvuOUH78q7dNslrElXkar8EusGkeITbGUkJS/vBeNtgncPyFg+TqeoCWfmVpvMF3Wrm0bI25T1+0p1t4Bo0ZuXo4gR1wxHRaajWnHzuRFxAPxJcrDaGIVgDx9CFkwRjaJNUj6eDNC/pW/OKFwZnMavgt0Ymv4J+qRxWx17A64WZSvakKa96EJcYDKbOdPwFp9S4lL79fnqYlQv4rTp6AKylhckMry2pzEPGYamlnLcqsZ5K3JtBhIYJGJ1H9aNUIq4NKRq1sht8kYF1ab0nMcYfTm5270uQSczCUV8t3Mh1jrL5FsWqsXkmnu70MAZQcpjr6v0cv9ww03+wwY+wqRlTwLbNKIdddh6zuAEmMYiL4N/efnwwt2WW6dLQsZtTu5XBveQxPCBGvirNRzwczzkkROMhbBfnFlq20klcxkgM6PeocKwQmVjX52zi9e/xjbI5Tq4qR/JwsxyASTwmRGpKEopV8b6jQow1LpCpTVHYxbDpPq3AHil78p16mQR8vreRmFqH8n2he6U3OyiBYAU1j16+sU2VWmbGDmCMbRJqkfTwZoX9K35xQuDM4+R/kziTki9QNpGQ/e68Q9ojdd1AMk+NqOZmQdIp41Ib1WRPVT1zWSM/2IMf23xs3dsRcim9xwtM0s6lCjjKnsuqTH7B9B77MDsbYQpW9vpISY9DK4nDA7KcDG0OINqItS/hvHYV1CPQkbKaMtmKptbjUF5YO3+T/D7SNnI9lFbDiw194n7yaoQ2AUtJA5PQ+RWWaSUZ4TSZxR7HxbiajnHGX/3dTSVL5W8pI7j23wwTeJJ3L+xgwzNtRPqhyK+66jahgMPreYpua3Lr2gVpY7BFNCJF6Wwedy+2q5wVS/DA1yUS9AA2ZqhQDZewFlzMsa1GvktQHP2m/OqkbNDzH+8nC2IC3p2PADVcZlN8ePo6IqQeo1YeTsY1TKESn7sVJBKPWEs0uCU++88K2zH9OXRA7hteRmEHM7QuO4j4r88eakLHm/ISk0hTvt+AyT42o5mZB0injUhvVYoDqLCDBNyCRhaX7cV+JDE9+d1yVgJDO4ThNvH2WKfd00xsJfEIAcHdDBUSTu8/hlAgRyLD2FxtNFk0D2D5ot1jjePpINmtbksdToyn0rhE2DJK4Vee8eUYeSsLBGXZpWAl6k3w/69y+IWb+EyjQy4LaffbkkjLGzTLX4CvHkOOaupXca6FdVxGW3kOKL58WL7ywaDGNu+cktpGLTqs9sQN74mnpz4rgeX4drz6CopAZLO0HRhxKUudssw4J7eKah7AX5o0dkKCdVbVIzA0A50jl7UuF0f6PjnSNnDcnwNIBtRU2MQxmXWDlLekwoJx8WFIwJWoGjHNEj0FJJqdaHuqEs3DNSBy2rTlg7Z8N0MCYcb5su5GHH243zZdyMPhRn1pGOGNECv0i2bncp6pnYlt8yt90zHykhMdgdazpjj2faps3dcwRv1fLZ0b9NpYLqhAfAbqhqBXoS+bgSJBnWzE1HQ9ZFckkpbJgAkEiAAtDsE40ebv/SCnu90vT2hHiwnqfzR+tWcYNekM5VnTfeII0c7IzEDgeWMCep/XS/kvMfnU7Vv6Vj1FpnitNH3rOwxe23ibHMtv/J1pqzNvELhE9hy9vzISRd03wTNXG1oaYNHhMT+3E/f5DwQHaGDwzZYoQ1/zk32806ylI6/oMti5VksWEvsJ/E0l7G2Ilh3NASjVrTQ2ND+MvmcTm5clS0s37YM07R60udNYMx231Ps9rs59vMvhD3nZQSBNx4sZm+5dHyfeG4j5K2/kHQ1y854kgHBE4vYdpomgaQhAHSbseh+pqQ+GEFzdQKXP/MlRqyBXlFYie0IXHNKKxE9QdsIZ6s2A3mYgaXEXJ6hwWpr4vIYt/vzK03mC7rVzaNkbcp6/aU628A0ae4A37nDI1sMFREgeg9hMSgpoqzEyWqYKD2vKlCUxR4mwJGTiCipzi8eAKCBGJ+A/fghAHhfnGm7wvn90E1lXAJrBvioLuAJSQ8DtoTKCazmeM4+J45pKK4LmwJrCJB99JOMXsYxy5uhoKAwQ1r+AxfjOs8i6KQtBL0XigJNfeb3EsK2p1kOEknq58wCtWe4K3gu1s5gGB3FkbtTgulVpK7diMAd4VlCAJCIRa2rbd2QFhB2Pq82YpCGqGVHCmUKppXrUmUgu05RdBYCRdmsyCOJRtgbuSqji1ZTud9musAdYEwm9FuyMtraY3kK6/0eAvrZbh8GEunkjyTFofxWP3b6AlH6yvEfHTA7OD6CJY8oJjfegyyLB/WCmIun4FkCo0URaefbjirEOh/KkiVQPJyxNxCkJvRYuif/v5Qi0gBvGjymWT7oK0tI/gOf1123N/dOcKD9XEO6xALsCr6OBd+3CfIQ3cuhsrrz3f1765C+KgSSda6MJzEbvLl+cetI/BCvE4oFvC7hIPyELd1TATzxFTRjKYXXtycAJIt7m2lPIUV6lFsAcAJIt7m2lPIUV6lFsAcAJBKC6NZSPEjhc77qBGQ8j/JnEnJF6gbSMh5H+TOJOSL1A2kY+QQThsNOit7ld3TRyl2MCVIt7nbp82jLkYd+pNCL3DRTT684HJBY/ktEY0HfHlLqPp/GlO0YKXDAR5A9Vs/HO+lsQkW1VSwk/GB96580MilkUh338tMaBh38f/K3cK2XzU3ciYxy/DIEiEfR4Nwxna1K0gesfPScY+3zXxANUAf/bJPnpmfJVH9dtSeQq8y/fmNNyOSJd1MA26lniGerMQmFjM83BujZQ83Kpw1tjNqiIZfgsg7zwidyL9uP/FvO5mOedDmzdoPWZrUK4iUbqEUqIFhtjC4Hw4l5OBnMwK2dhjcrTFS5RPtWkEsk/kIJymVW0p7vq3M/iOjWLNy8BfIQqvVZ6TMA+wswZ5DqHmtrcEQpFLYBEVAWw4LYEE/ggKIngSwOoyr7UrIx4hbtXyPGjjBFax94VROmTx1pJcVIp6NnKP9RRzxmk6Ii/aZ388RIYKwkjTDPoSuYW0/wkBlRwx3v37ZW3wJk40WXBY2NpoyZyIVw0weJQS2dLeVlGIOfbfJyReoG0jIeR/kziTki9QNpGQ8j/JnEnJF6gbSMh+914h7RG67qAZJ8bUczMg6RTxqQ3qsieqnrmskZ/sQY9vf+btiLkU3cAADx67AfluDmVLR4by0sTb0tVMmgKNwYR+2CFdzIJUoDxBV883Y3WEQbJ+rdhl+fFFz74YrWY2b9veTsMSF3OkTP+A37XcZE0ZMyFw8B1xJTCZCvU8fbBwFkXr4hEbb5yDKFtf5++EqD1i57AAJsObhYkdXED1nl421yib+aT7S/ZUeH5/koz/Ygx7b9w9vL8QPRTmKnBVMQVwyO9uKpYsYBg1+JDE9yYJSNaabDXj5gVBr1iaRf38+hinJcW91jBNZyikKRfXzDHbzdRprdu3y3hXYV9H/gvE+xWJagcERxNhjZh4D7fmp0vQtKPAmilbqCVqAlNeIRCmLoqGhYEw43zZdyMOPtxvmy7kYcfbjfNl3Iw+FI4JrOGND3B8lQAhEQmi5aTnJOA+G6GBMON82XcjDj7cb5su5F5mnV2ngOni7F13/qTRGwPEZtGyNuU9ftKdbeAaNGbl6OIEdcMR0Wmo1pzb6mhgAaLnDI0CL+ICjcPyFg+TqeoCWfmVpvMF3Wrm0bI25T1+0p1t4Bo0ZuXo4gR1wxHRaajWnHzuRFxAPxJcrDaGIVgDx9CFkwRjaJNUj6eDNC/pW/OKFwZnMavC+bd3lf4DUVvczVoEeQwQDlMKFVWHGAL/MR6ulvoPcSckXqBtIyHkf5M4k5IvUDaRkPI/yZxJyReoG0jIfvdeIe0Ruu6gGSfG1HMzIOkU8akN6rInqp65rJGf7EGT3OfT8O4LTxV4qdCkaaVjrclDs6tNudLCSwoaJElO7Rlft9RaKgEq9DG3hIaE0AEX8QHGPkKvzXgG11jRkD40rVWBpeOdwnvYyRaYbbgFkV1dU/AB439jXvUfGfCaVwKRS9fPTloIB2Rrl7xqQ3qsieqnrmskZ/sQY9t+4e3l+IHopzFTgqmTM9StS4vXyCS9MqGTEYRHbrpvGGtm+Fk7NPLF7OzUhGciMog/QhwK4/uX1jrFg+me0Cjjiv8j+kh6o3TfOcZWKgDMyeZcohuuzfW9wCFIYbo202EP7U3unFezvxQ9qDwCMEMJEdBUeKWH0nw6EmOH9btuL9JHRHPEv1Sgc8Wvsdumzmo8f//yMNIT4r8i/JVtnhxDjpVI6lYaamzpGbari6lRqyBXkr8kjjrqBS4iZKcDw1LUArmZvAdTewayqgUE05qDABjp/xaFwqaJvRktNhwsdu2hdmKh9A/wi91EpewmIrgR/m6Y8VBAE1HIatL7z1V99L4D/42wvCMwAjNZN5l+4mg7OX9/y4S4YpTNVyxEJEYPpLNcZWdI2rIIHq92qlMW5TxG+2Scq1ObjVAy3oH1GEdmm8cYMGZQ93dpOSZR/EOzuN5RKGRG5JSvWd0RILv61D3UjX3TAn11swoCVYC4n5ALh7TMmWFY1AEapMbLZpCP/ed0kXHK0M3ssCXFCKW1puoFLiJkpwPDUtQCuZm8B1ItX2Tj3madXaeA6eLsXXf+pNEbA8Rm0bI25T1+0p1t4Bo0ZuXo4gR1wxHRaajWnNM+TB+PEUyMMZqCdNTt1hCxfo7BXjoH4c8BKvYf1kId7Bd7AFsS0/8y2bW7AqGma8ccsWFl8JKd0EGA8rHa3zHvxYlXZiD/9LO9bCUjQPXMV1n2Z4DCQH+2OtTvQVn3HfaX/Seq9TBIFr6W8rZ1D0e/xVtU0ops6tH/EJXINF+abxU6KJ2DOW4wGuBS/NHSm58A4kIHKlg1vSjoN4QeqIoF2oeHQWHNf10OvQusbdow9ukoI9gDeFcLpzRo7lOqmQpAd/owNTx3+cuEjQmh+LQFj/OTlufeNeIdMLwnw8eLXsCKQD6FMovbwAumL3LNQG6WCAAsKgE7+e/Aw1MNjSz0CKkOX/olqq3r/w4rz+mL5zLKuPK3xCSkNlbKpuVmWj1qCmXztWE00ctQA1DfY5LKe0wayJt4ImFpLji3hzPU0nxAxkCO4JRnxWfbf9XqlcMW1JdusiYFVMD6iiPOMvTRvtTHOWuxbGwoXLEcUBtoit1j1/UF1w+GwCUx1vYtbPfugZ/qihW5pk5OZgmRojsP/UOiOXvybwF17m2lPIUV6lFsAcAJIt7m2lPIUV6lFsAcAJIt7m2lPIUV6lFsAcAI/ZmTncewG0rIGA5AgZQJkxHzaG8BZS+Hw2nXaWNox7kcHsy3PLHu/0HFdgG0rIAAAAAA==" vertex="1" parent="LvrDcGgFmxN_GRHWmqSq-266">
          <mxGeometry x="113.19" y="195" width="72.8" height="44.37" as="geometry" />
        </mxCell>
        <mxCell id="LvrDcGgFmxN_GRHWmqSq-358" value="" style="shape=image;verticalLabelPosition=bottom;verticalAlign=top;imageAspect=0;aspect=fixed;image=data:image/png,iVBORw0KGgoAAAANSUhEUgAAA5gAAAIABAMAAAAVpN4UAAAAD1BMVEUgYsbm5ub///+kutu2zOyeE8LXAAARp0lEQVR42uzdDVarOheH8RzrACRlAE3sAFAYgBTmP6YLtNWqtCSQwI73yVrvXed/7n3tlp+brwRR9jxMdh7EhKNiS4BJBJMIJhFMMIlgEsEkgkkEE0wimEQwiWASe8zL3+jLXxETjmCCSQSTCCYRTDCJYBLBJIJJBBNMIphEMIlgEgdMJgOZnCaCSQSTCCaYRDCJYBLBJIIJJhFMIphEMIlg8hQYkcnpraIxRmcazETjp5zN8ratyrJpm/rz74wBM5lo8rJU90dRVp//KZhSY+/YFMpx7CoNptT9aubu+DXKuvsR0GAKij4NOSbafR0wZUTTqMWjPIG5fTSlCjR2JzA3jNY2KujoPA2YG0Rt94UKP7rjJ5grRx1u9/qrPWsL5qq3BQoVc7ylekshQczIlLecYEaOH2qN8ZYkZlJTdnqFrvziZHI6Zgx9LeJ67AQzfDyqlcdOgxkpfqj1xzOYMeKr2macwAweC7XV2IEZNOqj2nKcwAwXNzlafj9yghkomkJtPXYazCDxqCSMdwPm4qhflYzxz4C59P7di5IydhbMZffvPpQSpAnmkviiRA0wF8QPJWxo4Zhy5+j0wkuSsqq16R8csqZ/vMRmbbl4scmJyelZcX5f7sr6c330yIrpvCyWaYLp/cTBLMtd1XOZxx9kuj9nzXxNMH3X380496k8P+g4a6+rwfSM/paVnrOkbs6STQ2mX3z1lpz7U2PzYu71JphuDeO5VscsWhzv++jRM5g+0aNZdvpz1nP25/q25xOY7vHFb5cX5HO9JmfewXSNrx5dGfBzj763gsB0iH79EbCM/QZ7hD+OWbiehkQoo/A5bII5GQ+OD8aaKNe3zs15AtOlIuclVlHKcF5xBOZ0dLol+27ileF6U/iJp8Cm4qvHLZhYZbw672iZnH64TsTF0kQvw+u2Hph34sHpcBm/qsLj0gjM2S2xzpJHN00wH8WDk+UaVTldcT6B+SBO72PNWlU59SaY9+Nh+txnvaqMa2uCORqLyfPHNat6dWxNMMfi5NbTq1blsnTlHcw78cXpvs96VTks3N2BeSdOXmCuXZVxug0E5kg8TB6fVq/q4HIKBOZILARutg+HUyAwR6LEo9PR4RQIzN/xMH1Jt0FVH9P7WUGYUiblpk4dzTZFTl9sGianf2NONMBGRU5fnryB+SvupxtzkyInT2ifwPwVH2+0582K1Ak9eiIG8/Hu7H27Ij/cZjXBvFnj+HiDbVjkweX+LJi3MXeZ+tqmSMfHiMD8jK/T57IbFanB9I0HuZiF4xkQmNf4ePqr3rLIg+MZEJjXWExfZYKZCqaSi/nqMKcJZiKYe8drEzD/Qmc+gfktmpQ7Uw6mjPnMXPDvBp3uTCanv8W9YMwDmH7xNWXMf2D6dOY7mH8H82nLIgt2s0F3s5tiKjCDns1u+VjrEUzfKBfzAKZn1E7X5ZsUWYAZuDN3mxXp8PDQO5g+Z7OXmYktinT4/SdcmnhiPm1VpAIz8KXJdg+cH8AM35lDa25QpAIzQmf2v3x5/SIPaWHKmM90wHw26xfp9hYHJqe9MbsrgNWL/AAzEub6r/px/F2lYM7YbKs/b6XAjNcDT+tWVYAZc4e26qJG51flgDkL8/Ke4FWqOigw42Kq1aryeE8gmDMx1UpV+bzzEcy5mGqVqrze3wnmbEylo1fl/t4hMBdiqpOJW5Xve+jBXIB5fnlUtKqcXyAFZghMtdPRqtKepYC5FPO8q41Rle8ulqfAZs1n/trVxlgk6L2LZXJ6zkqDsXt7ocuY05ZgBujM4chpQpZh90qBuVFnfnIGKcPmhQJzu868cgYow+tV8GBG6cyB87S8jPldCWbAzjz/MuZlZTRq2QAzWGcOo5q5EHNpU4IZvDOHUWbXW6uOn2us3S+XBDN4Z14On0ODup3x2LxUgQaYwTvzFnTqc01TqHADzBideSNa29GR5W2pQg8wY3XmD9XdrhxGUahoA8yonbnuAHOdzvyfYSY6nylpMDkNJphgggkmmGCCCSaYYIIJJphgggkmmGCCCSaYYIIpC5P5TCanWWkAJp1JZ4JJZ4JJZ4JJZ4JJZ9KZYNKZYK4RdcqYvNjtRzyka7kzYP6IyTcmmF/xkHpjgnkTk21MQZgy5jNtslcnz2b7TSdscrr/Ra9Fkpg6A3Mk5oleY4I5EvVLgpgGzPGY4J2D9wzMOzG5c6B/Bsy78SW9nSyYd2OK937AvBOPye1kwbwfE7qr92wyMB/Hj2QwbQbmZEWJjBOY0zGRw+aTBdMhJnG1+c+C6RQTuNp8tiIxxcxnfkX58yfnCWlxm04ipnxNnYHpHosELMH8C+u7dAamVzSCLQ2YvlGspQXTOxqplmDOiSJvyFow50Vx57Q7C+bsWEi0BHPmC2dFaT5bMJdELejBzTcD5rIoR/NkMjCXRhmXKDstcuOkhplJOHD+M1kKmALnM62433mpBW8c4ZPTv6MpBFyRgBko6mbDpc5Ggxk06q2a89nK3zipYWbbXKTstMnAjBFtubblm01m46SGufa+9t2aDMyIcT3OtwS2RuKY1h6LtSjBXCHG53xLaGskjml1VM5dbTWYK0ZrYt1FKE82ua2ROGZ/oZIXMZrSpLk1EsfspwuC7m47SZvw1kgcc4iB+nN3SvPbtxKfAjvN/f9qvfj4uau+bjLNKeONyenvsVr4pUxTzITUS7+FPZg/YntavpQva7xu3pZlfd1TLfncYwPmz85s9PIvpfs/ZnlTPuzS3a4aFE2QZT2mBfNXZ7Zt6DW33RctuzH8o2nLpmy//l24D2rB/N2ZbVtHWNlnvtZH6iiPO+dgjnZmf9gUvEhwNB5bMEc7s211api9JZijndkdNtPCNC2YdzuzrdPCbMF80JlNnRJmC+ajzhS0YaZjA+bET3lZp4LZXbeC+bgzy7OmfMyuUjCnOvOsKR5zX0rEFDIpV57H0KAJzBzmfaHXmt+ZnL6PWYnHzIeWBNMBs620bMzLeSyYLphtW0vGvF6TgOmGWQrG/CoSTDfM8xWKQMy8BNMbc9CUh5mXYM7ALN8EYu5LMGdhlpU4zKYEcyZmWcnCNKNFgumG+akposhjC+YizH5dkBDMvAVzIeawZk/C4/dNC+ZizLbf1Qq7GQvmXMy23fzlhtlYVRIxxU1OD6P9HvWmRR7vVMXk9PTk9NhmO21XZHe0BDNkZ7ZNqzcqsp+GBjNoZ7bDae36RebNRFVg+nfmMGW9+hLpfPpHDMxZnXmzRnqlqu6WAebizuxjtd5CzKYEM2pn9ld19RpV5c1EGWAu78xh1LGrMk5lgLm4M4eYxawqb1owV+vMsj+z1XGqMsPFCJgrdmb/51aHL6NtfMsAc3lnDqk5n9uGKiN31gMzcGdeYhvo5Lb1/Fwww3bmNVbZ0lvp+XU2K3XMBOYzHWLVzvzci+Pcz2VyOgLm7cpM55Ug3b69CvG5YEbA7Gy6/2XdUVRPfG7eVk1VLfggMONj3iygruoeVevr04FZd0zJ87wN/UFgxsc8x6brwGusgn5lMFfHXCeCCSaYYIIJJphgggkmmGCCCSaYYPIUWOT5zM0jk9OBVhqA+bdWGoBJZ4JJZ4I5HfOEMTMwf8R9qphXSzBvYqqYJwPmr2iSxGxOFsyx1xdWCWKeLJij8ZgeZm3BvBOPqWHWFsy7MU8Ls7ZgPoj7lDBrC+bD2KSDWVlxmELmMz9jMvOZtbx3XInDtIlg1hZMh5gEZm3BdIq5eMymtmA6xlw65smC6Rxz2ZjagukR95IxTxZMr7iXiyluW4nHHH7FkkTMKgMzzMsNt49VBuasKBCzzsCcGRtpmHUG5uyYV5Iw30RvK/GY2sjBbE4WzGVxeDueBEwR75dL5Cmw+7ERMYFZydw4sienR2IuALPOwAwUm40xW8kbJzXM7FixZv3PYJ6Xu2+C2bTiN05qmE6vPowRh+kuMIO/lHQDzKZOZOOkhmntcfXFlNqC+UdW1daZBTNmbFbDbBPYGoljzn8vkF+s0tgaiWP2nLExqzadrZE4Zpad777HwqzqtLZG4pj9dUqsy86qTm9rJI45cEbArOo0t8YFU/oc3YPYhp5+bnVmkt0aCUxOP45Zv7cNhFnV6en9Kcxu55I3YTB1kt/+38K8uS+04MVhdcLfvjzM16dly9+b+ZhVvfRbeALzO6ZafObRnd02nmu0Pm8OLPlc/QLmT8x/JsCXytrG8RDaXZNkYb6FVwXmT0z1HuoQerloHMe83KgP9y0YBeZvTKVDfeXh/ad1nefDbdbbX0RQZzrwt6ALMMcwdya900j9osAcw+wPm6lhDnWDOYLZHTYTwzyXDeYYptJpYRoF5n3M6xxOGpimAPMR5i4lzIulIEwZk3JXzMu9gxQmEnXxWTOT09/iXn3XlI+pPxSYE53Z7bRMCpg3lmDe7czuAsXIx7y1BPN+Zw6awjG/WYL5oDN7TdmYX+c+YE51ZqcpGtN+twTzYWd+asrE/GEJ5uPOvGqKxPxpCeZEZ/7X3r0mpw1DYRgWURYQCRYQaViAY7OABLL/NdUGSgrY8U22z3Ff/Wm/6UxQ9FQ3y8ZXTYGY4ammYLb1TGNeRWLWVBTM1p55vk4rDrPOEsz2nllpSsP8NGAO65nV+WaQhBkyA+bQnlmWDzmHKL7hP5wkTFnnmbXLIBkHmJ9NVeRwuitmOdSKaKemIRbMXpjVjnPxSm5/qR+YPTB/VrULVdL/1i3B7IdZroPigpX8vVuC2RfT2PMmZYlKxr0xYCbFvHTO+SvZNsKCOQjTmGOcvZLx1KFeYA7ALMfamWu1NwbMiTCNOcxZq31mwJwQ88o5R606U4I5GLNaCU2/sexDCeYIzLJ3+km3nb51YwlmiqXGbSl0fi/XJLWKoTAGzBkxL6PtFHuRXda7JoIwZZxn7vo3oSl8THra6Qd0ygsmh9P3cVArVp4x0U3qMZzMwALmffRDG9IUXzFFNQZLgpkQs/I8jqvGrjCjSg5mOszrdqVcEfX73FD+MRbyvBYD8z5m49vU2OL2aE/r554dU3xoWQKY9/HdpCrF4e/P9udv6b59UAi3/cepMAkLmJNh/u2m1hbF9+Hr8hXP5ean+g7ELDPpiwVzasz5ysaBeR/3ejFfwHyMejFzMB9jphYzgPkY1U6aFsz1YL6A+RzVTpmCMGWcZ8bxF/QWmzIXbzpph9NlfNM6ZYLZ9BXZCneZYD5HpeOsA7MufirdmIDZ9FoJhdfywKx74YvOURbM2qhwPbsBsyHu9GHmYDY9F5ApXP6A2RC3Cpc/YDZEdUugAGZzfFfYMcFsejBS47E0mA1RVdfMnTRMMeeZl6JpKSur6UQdTl+iomt6RzDbHq1Ts9fcODDba6Rm9QNma3xTs/oBszXqGGg3Acwuca9jkAWzS/QKBlrvwOwW5Q+0uQOzawwKJkwwu0bZ06acp2tVYIq+RmujA3MtzxGJayvxmFHsXbQezP5R6JL2GAVjyjrP/Pc2WpGauci2knk4Lf1mvdyBOSwGcZpHB+bQKG3e9A7MEVGSpo0OzFFRzkX31wjm2CjlpqCXCOb4KEPzGMFMEjMB02UEM1Fc+tLeJoKZLi471OYRzJRxwesHr1F642jDdH6hZzftMTgwk193X2Qd9BFVNI42zDLss/lHWKcKU+x5Zt0zYrOOtdYHTY0j+nC6NsbTfJNllK+nG7McTE6zrXvAnD5Oz2l9VNMayjHLOOlS6KCtNZRjln/NJpsqI5jzx+0knTKCucxOJZwSz5QBzOWiH/qa6KdyfYE1mIvGEmE3cv60X7cfDaaEuB0Ien1ltfZff12YVen5qlr78+5xMAVOoT5G99362lp7ffnt3XtvwRQdv4tLsfb8ltuyHL5vRw0r/H1XjenCw7+GsDa9R0w955nEFR1OE8EEkwgmEUwimEQwwSSCSQSTCCaYtASYRDCJU2Ku+Xzvf4tggkkEkwgmEUwwiWASwSSCSQQTTCKYRDCJYBLPmBwGcjhNBJMIJhFMMIlgEsEkgkkEE0wimEQwiWASweQpMCKH08Sp4x+ys6jhk8PASAAAAABJRU5ErkJggg==" vertex="1" parent="LvrDcGgFmxN_GRHWmqSq-266">
          <mxGeometry x="30" y="196.37" width="73.27" height="43" as="geometry" />
        </mxCell>
        <mxCell id="LvrDcGgFmxN_GRHWmqSq-359" value="NoSQL" style="text;html=1;align=center;verticalAlign=middle;whiteSpace=wrap;rounded=0;" vertex="1" parent="LvrDcGgFmxN_GRHWmqSq-266">
          <mxGeometry x="40" y="242.37" width="48" height="20" as="geometry" />
        </mxCell>
        <mxCell id="LvrDcGgFmxN_GRHWmqSq-360" value="SQL" style="text;html=1;align=center;verticalAlign=middle;whiteSpace=wrap;rounded=0;" vertex="1" parent="LvrDcGgFmxN_GRHWmqSq-266">
          <mxGeometry x="130" y="242.37" width="48" height="20" as="geometry" />
        </mxCell>
        <mxCell id="LvrDcGgFmxN_GRHWmqSq-363" value="Sharded Database" style="text;html=1;align=center;verticalAlign=middle;whiteSpace=wrap;rounded=0;" vertex="1" parent="LvrDcGgFmxN_GRHWmqSq-266">
          <mxGeometry x="113.19" y="355" width="60" height="30" as="geometry" />
        </mxCell>
        <mxCell id="LvrDcGgFmxN_GRHWmqSq-364" value="" style="verticalLabelPosition=bottom;html=1;verticalAlign=top;align=center;strokeColor=none;fillColor=#00BEF2;shape=mxgraph.azure.notification_hub;pointerEvents=1;" vertex="1" parent="LvrDcGgFmxN_GRHWmqSq-266">
          <mxGeometry x="730" y="301" width="50" height="50" as="geometry" />
        </mxCell>
        <mxCell id="LvrDcGgFmxN_GRHWmqSq-366" value="Notification Gateway" style="text;html=1;align=center;verticalAlign=middle;whiteSpace=wrap;rounded=0;" vertex="1" parent="LvrDcGgFmxN_GRHWmqSq-266">
          <mxGeometry x="730" y="262.37" width="60" height="30" as="geometry" />
        </mxCell>
        <mxCell id="LvrDcGgFmxN_GRHWmqSq-367" value="" style="sketch=0;points=[[0,0,0],[0.25,0,0],[0.5,0,0],[0.75,0,0],[1,0,0],[0,1,0],[0.25,1,0],[0.5,1,0],[0.75,1,0],[1,1,0],[0,0.25,0],[0,0.5,0],[0,0.75,0],[1,0.25,0],[1,0.5,0],[1,0.75,0]];outlineConnect=0;fontColor=#232F3E;fillColor=#DD344C;strokeColor=#ffffff;dashed=0;verticalLabelPosition=bottom;verticalAlign=top;align=center;html=1;fontSize=12;fontStyle=0;aspect=fixed;shape=mxgraph.aws4.resourceIcon;resIcon=mxgraph.aws4.payment_cryptography;" vertex="1" parent="LvrDcGgFmxN_GRHWmqSq-266">
          <mxGeometry x="726" y="142.37" width="54" height="54" as="geometry" />
        </mxCell>
        <mxCell id="LvrDcGgFmxN_GRHWmqSq-369" value="Payment Gateway" style="text;html=1;align=center;verticalAlign=middle;whiteSpace=wrap;rounded=0;" vertex="1" parent="LvrDcGgFmxN_GRHWmqSq-266">
          <mxGeometry x="726" y="95" width="60" height="30" as="geometry" />
        </mxCell>
        <mxCell id="LvrDcGgFmxN_GRHWmqSq-370" value="External Services" style="text;html=1;align=center;verticalAlign=middle;whiteSpace=wrap;rounded=0;fontStyle=1;fontSize=15;" vertex="1" parent="LvrDcGgFmxN_GRHWmqSq-266">
          <mxGeometry x="700" y="25" width="153" height="40" as="geometry" />
        </mxCell>
        <mxCell id="LvrDcGgFmxN_GRHWmqSq-278" value="" style="endArrow=classic;html=1;rounded=0;exitX=0.5;exitY=0;exitDx=0;exitDy=0;entryX=0.5;entryY=1;entryDx=0;entryDy=0;edgeStyle=orthogonalEdgeStyle;" edge="1" parent="1" target="LvrDcGgFmxN_GRHWmqSq-267">
          <mxGeometry width="50" height="50" relative="1" as="geometry">
            <mxPoint x="282.5" y="1075" as="sourcePoint" />
            <mxPoint x="470" y="995" as="targetPoint" />
          </mxGeometry>
        </mxCell>
        <mxCell id="LvrDcGgFmxN_GRHWmqSq-279" value="" style="endArrow=classic;html=1;rounded=0;exitX=0.5;exitY=0;exitDx=0;exitDy=0;entryX=0.5;entryY=1;entryDx=0;entryDy=0;edgeStyle=orthogonalEdgeStyle;" edge="1" parent="1" target="LvrDcGgFmxN_GRHWmqSq-255">
          <mxGeometry width="50" height="50" relative="1" as="geometry">
            <mxPoint x="282.5" y="1075" as="sourcePoint" />
            <mxPoint x="470" y="995" as="targetPoint" />
          </mxGeometry>
        </mxCell>
        <mxCell id="LvrDcGgFmxN_GRHWmqSq-280" value="Authentication" style="rounded=0;whiteSpace=wrap;html=1;" vertex="1" parent="1">
          <mxGeometry x="540" y="722.5" width="150" height="32.5" as="geometry" />
        </mxCell>
        <mxCell id="LvrDcGgFmxN_GRHWmqSq-281" value="User" style="rounded=0;whiteSpace=wrap;html=1;" vertex="1" parent="1">
          <mxGeometry x="540" y="761" width="150" height="30" as="geometry" />
        </mxCell>
        <mxCell id="LvrDcGgFmxN_GRHWmqSq-282" value="Product" style="rounded=0;whiteSpace=wrap;html=1;" vertex="1" parent="1">
          <mxGeometry x="540" y="798" width="150" height="30" as="geometry" />
        </mxCell>
        <mxCell id="LvrDcGgFmxN_GRHWmqSq-283" value="Promotion and Discount" style="rounded=0;whiteSpace=wrap;html=1;" vertex="1" parent="1">
          <mxGeometry x="540" y="835" width="150" height="30" as="geometry" />
        </mxCell>
        <mxCell id="LvrDcGgFmxN_GRHWmqSq-284" value="Shopping Cart" style="rounded=0;whiteSpace=wrap;html=1;" vertex="1" parent="1">
          <mxGeometry x="540" y="872" width="150" height="30" as="geometry" />
        </mxCell>
        <mxCell id="LvrDcGgFmxN_GRHWmqSq-285" value="" style="endArrow=none;dashed=1;html=1;dashPattern=1 3;strokeWidth=2;rounded=0;exitX=0.712;exitY=0.944;exitDx=0;exitDy=0;exitPerimeter=0;" edge="1" parent="1">
          <mxGeometry width="50" height="50" relative="1" as="geometry">
            <mxPoint x="519.1599999999999" y="1121.8" as="sourcePoint" />
            <mxPoint x="519" y="732" as="targetPoint" />
          </mxGeometry>
        </mxCell>
        <mxCell id="LvrDcGgFmxN_GRHWmqSq-286" value="&amp;nbsp; &amp;nbsp; &amp;nbsp; &amp;nbsp; &amp;nbsp; &amp;nbsp;Messaging Queue" style="shape=process;whiteSpace=wrap;html=1;backgroundOutline=1;" vertex="1" parent="1">
          <mxGeometry x="240" y="1195" width="300" height="60" as="geometry" />
        </mxCell>
        <mxCell id="LvrDcGgFmxN_GRHWmqSq-287" value="" style="endArrow=classic;startArrow=classic;html=1;rounded=0;entryX=0.335;entryY=1.008;entryDx=0;entryDy=0;entryPerimeter=0;exitX=0.076;exitY=-0.03;exitDx=0;exitDy=0;exitPerimeter=0;" edge="1" parent="1" source="LvrDcGgFmxN_GRHWmqSq-286" target="LvrDcGgFmxN_GRHWmqSq-253">
          <mxGeometry width="50" height="50" relative="1" as="geometry">
            <mxPoint x="410" y="1265" as="sourcePoint" />
            <mxPoint x="460" y="1215" as="targetPoint" />
          </mxGeometry>
        </mxCell>
        <mxCell id="LvrDcGgFmxN_GRHWmqSq-288" value="" style="endArrow=classic;startArrow=classic;html=1;rounded=0;entryX=0.713;entryY=1.008;entryDx=0;entryDy=0;entryPerimeter=0;exitX=0.929;exitY=-0.03;exitDx=0;exitDy=0;exitPerimeter=0;" edge="1" parent="1" source="LvrDcGgFmxN_GRHWmqSq-286" target="LvrDcGgFmxN_GRHWmqSq-253">
          <mxGeometry width="50" height="50" relative="1" as="geometry">
            <mxPoint x="430" y="1285" as="sourcePoint" />
            <mxPoint x="480" y="1235" as="targetPoint" />
          </mxGeometry>
        </mxCell>
        <mxCell id="LvrDcGgFmxN_GRHWmqSq-289" value="" style="endArrow=classic;startArrow=classic;html=1;rounded=0;entryX=0.535;entryY=1;entryDx=0;entryDy=0;entryPerimeter=0;exitX=0.527;exitY=0.01;exitDx=0;exitDy=0;exitPerimeter=0;" edge="1" parent="1" source="LvrDcGgFmxN_GRHWmqSq-286" target="LvrDcGgFmxN_GRHWmqSq-253">
          <mxGeometry width="50" height="50" relative="1" as="geometry">
            <mxPoint x="391" y="1262" as="sourcePoint" />
            <mxPoint x="392" y="1158" as="targetPoint" />
          </mxGeometry>
        </mxCell>
        <mxCell id="LvrDcGgFmxN_GRHWmqSq-298" value="Micro Services Architecture" style="text;html=1;align=center;verticalAlign=middle;whiteSpace=wrap;rounded=0;" vertex="1" parent="1">
          <mxGeometry x="322.75" y="707.5" width="149.5" height="30" as="geometry" />
        </mxCell>
        <mxCell id="LvrDcGgFmxN_GRHWmqSq-299" value="" style="endArrow=none;dashed=1;html=1;dashPattern=1 3;strokeWidth=2;rounded=0;" edge="1" parent="1">
          <mxGeometry width="50" height="50" relative="1" as="geometry">
            <mxPoint x="740" y="1160" as="sourcePoint" />
            <mxPoint x="740" y="710" as="targetPoint" />
          </mxGeometry>
        </mxCell>
        <mxCell id="LvrDcGgFmxN_GRHWmqSq-308" value="" style="outlineConnect=0;dashed=0;verticalLabelPosition=bottom;verticalAlign=top;align=center;html=1;shape=mxgraph.aws3.api_gateway;fillColor=#D9A741;gradientColor=none;" vertex="1" parent="1">
          <mxGeometry x="351.5" y="585" width="60" height="50" as="geometry" />
        </mxCell>
        <mxCell id="LvrDcGgFmxN_GRHWmqSq-316" value="" style="endArrow=classic;startArrow=classic;html=1;rounded=0;entryX=0.5;entryY=1;entryDx=0;entryDy=0;entryPerimeter=0;exitX=0.5;exitY=0;exitDx=0;exitDy=0;exitPerimeter=0;" edge="1" parent="1" source="LvrDcGgFmxN_GRHWmqSq-308" target="LvrDcGgFmxN_GRHWmqSq-251">
          <mxGeometry width="50" height="50" relative="1" as="geometry">
            <mxPoint x="305" y="620" as="sourcePoint" />
            <mxPoint x="355" y="570" as="targetPoint" />
          </mxGeometry>
        </mxCell>
        <mxCell id="LvrDcGgFmxN_GRHWmqSq-317" value="" style="endArrow=classic;startArrow=classic;html=1;rounded=0;entryX=0.5;entryY=1;entryDx=0;entryDy=0;entryPerimeter=0;" edge="1" parent="1" target="LvrDcGgFmxN_GRHWmqSq-308">
          <mxGeometry width="50" height="50" relative="1" as="geometry">
            <mxPoint x="381" y="699" as="sourcePoint" />
            <mxPoint x="382.5" y="650" as="targetPoint" />
          </mxGeometry>
        </mxCell>
        <mxCell id="LvrDcGgFmxN_GRHWmqSq-318" value="Application Gateway - Load Balanced" style="text;html=1;align=center;verticalAlign=middle;whiteSpace=wrap;rounded=0;" vertex="1" parent="1">
          <mxGeometry x="60" y="595" width="120" height="35" as="geometry" />
        </mxCell>
        <mxCell id="LvrDcGgFmxN_GRHWmqSq-320" value="Micro Frontends" style="text;html=1;align=center;verticalAlign=middle;whiteSpace=wrap;rounded=0;fontStyle=1;fontSize=14;" vertex="1" parent="1">
          <mxGeometry x="-80" y="376.07" width="120" height="30" as="geometry" />
        </mxCell>
        <mxCell id="LvrDcGgFmxN_GRHWmqSq-321" value="" style="outlineConnect=0;dashed=0;verticalLabelPosition=bottom;verticalAlign=top;align=center;html=1;shape=mxgraph.aws3.api_gateway;fillColor=#D9A741;gradientColor=none;" vertex="1" parent="1">
          <mxGeometry x="461.29" y="582.5" width="60" height="55" as="geometry" />
        </mxCell>
        <mxCell id="LvrDcGgFmxN_GRHWmqSq-322" value="" style="outlineConnect=0;dashed=0;verticalLabelPosition=bottom;verticalAlign=top;align=center;html=1;shape=mxgraph.aws3.api_gateway;fillColor=#D9A741;gradientColor=none;" vertex="1" parent="1">
          <mxGeometry x="234" y="587.5" width="60" height="50" as="geometry" />
        </mxCell>
        <mxCell id="LvrDcGgFmxN_GRHWmqSq-323" style="edgeStyle=orthogonalEdgeStyle;rounded=0;orthogonalLoop=1;jettySize=auto;html=1;exitX=0;exitY=0.5;exitDx=0;exitDy=0;entryX=0;entryY=0.25;entryDx=0;entryDy=0;" edge="1" parent="1" source="LvrDcGgFmxN_GRHWmqSq-318" target="LvrDcGgFmxN_GRHWmqSq-318">
          <mxGeometry relative="1" as="geometry" />
        </mxCell>
        <mxCell id="LvrDcGgFmxN_GRHWmqSq-324" value="" style="endArrow=classic;startArrow=classic;html=1;rounded=0;" edge="1" parent="1">
          <mxGeometry width="50" height="50" relative="1" as="geometry">
            <mxPoint x="175.5" y="362" as="sourcePoint" />
            <mxPoint x="175.5" y="321" as="targetPoint" />
            <Array as="points">
              <mxPoint x="175.5" y="341" />
            </Array>
          </mxGeometry>
        </mxCell>
        <mxCell id="LvrDcGgFmxN_GRHWmqSq-340" style="edgeStyle=orthogonalEdgeStyle;rounded=0;orthogonalLoop=1;jettySize=auto;html=1;" edge="1" parent="1">
          <mxGeometry relative="1" as="geometry">
            <mxPoint x="344" y="465.42" as="targetPoint" />
            <mxPoint x="274.0000000000002" y="417.7100000000001" as="sourcePoint" />
            <Array as="points">
              <mxPoint x="274" y="465.42" />
              <mxPoint x="274" y="465.42" />
            </Array>
          </mxGeometry>
        </mxCell>
        <mxCell id="LvrDcGgFmxN_GRHWmqSq-325" value="Payment" style="whiteSpace=wrap;html=1;aspect=fixed;" vertex="1" parent="1">
          <mxGeometry x="240" y="362.29" width="60" height="60" as="geometry" />
        </mxCell>
        <mxCell id="LvrDcGgFmxN_GRHWmqSq-326" value="" style="endArrow=classic;startArrow=classic;html=1;rounded=0;" edge="1" parent="1">
          <mxGeometry width="50" height="50" relative="1" as="geometry">
            <mxPoint x="269.5" y="362.29" as="sourcePoint" />
            <mxPoint x="269.5" y="321.29" as="targetPoint" />
            <Array as="points">
              <mxPoint x="269.5" y="341.29" />
            </Array>
          </mxGeometry>
        </mxCell>
        <mxCell id="LvrDcGgFmxN_GRHWmqSq-368" value="" style="edgeStyle=orthogonalEdgeStyle;rounded=0;orthogonalLoop=1;jettySize=auto;html=1;startArrow=classic;startFill=1;" edge="1" parent="1" source="LvrDcGgFmxN_GRHWmqSq-327" target="LvrDcGgFmxN_GRHWmqSq-367">
          <mxGeometry relative="1" as="geometry" />
        </mxCell>
        <mxCell id="LvrDcGgFmxN_GRHWmqSq-327" value="Payment" style="rounded=0;whiteSpace=wrap;html=1;" vertex="1" parent="1">
          <mxGeometry x="540" y="909" width="150" height="30" as="geometry" />
        </mxCell>
        <mxCell id="LvrDcGgFmxN_GRHWmqSq-328" value="Order Management" style="rounded=0;whiteSpace=wrap;html=1;" vertex="1" parent="1">
          <mxGeometry x="540" y="946" width="150" height="30" as="geometry" />
        </mxCell>
        <mxCell id="LvrDcGgFmxN_GRHWmqSq-329" value="Inventory" style="rounded=0;whiteSpace=wrap;html=1;" vertex="1" parent="1">
          <mxGeometry x="540" y="983" width="150" height="30" as="geometry" />
        </mxCell>
        <mxCell id="LvrDcGgFmxN_GRHWmqSq-331" value="Admin" style="rounded=0;whiteSpace=wrap;html=1;" vertex="1" parent="1">
          <mxGeometry x="540" y="1020" width="150" height="30" as="geometry" />
        </mxCell>
        <mxCell id="LvrDcGgFmxN_GRHWmqSq-333" value="" style="shape=image;verticalLabelPosition=bottom;verticalAlign=top;imageAspect=0;aspect=fixed;image=data:image/webp,UklGRm5XAABXRUJQVlA4TGFXAAAv/8A/EE1IaCRJkiRFuq1+/oSnd+8gRPR/Aiiaoimaoqm/7b8UTdEUjSjiftmf/3SUmiKKpohyV7VeXqsGca8qRSlKUeROKUpRCkdxdDx50vRURSlKUSpF5+L8j3s6OqKIsraOptwd+2fvd7W7e4ve1PzStlF0d0LvynpXe1bnjn5+80BTdKrcRvTmJ4oo193lmj3qqX5eetERm5WiKaLuDqXt/TvtZZXcdTGK3tVpqykXp7PNtu/vc7lY6jgvelinTRSdcq4UzUVZU667O/Kbp/ZQO4ooooiilLt72fNTtr1cRSlKUYoijhRSGNt+UjjKooiiKZryTqNpNM2aZuX9xzZrj9le7LVZyHWtzZGUg/dQ+MKNOkJEiJBH5zEIPfz4ElHhWqXWr4lmeheXy3Vt27WTQc7gbJeU/P9XUOYMT0tHW8g2V9YiU8pSJMm1nfiU1yAuh4P8/pdRNJf+kve233tagPeG/k8A/pthmAembm1PaUlKMZksSecQMjLRBkxBqboBAA/B3hyAOU0mT543pKSgrKobjKl6VcBIXWvh9Hm26/+q7wnqBgaglBZqGzuvFdYviQR1M1LA/KEsMDUCMGUVMKeg7v/OGgamgAKA6ScApQ2YBhTt4Zs14MVIAXjkIyAFYKSAOQVACmvj7rmjk6co3xoQBiAFnD7v0gYyASPWBO33IfMik8dkatMPdQNgBHB6KlPPXnB++v1qi5s7wqU14BDOBfZe9B7i7grem58pASUJ59K5cC7c5kM4xzms/X61AQgLgS9b2PgbrkeFPe6eC5o9iKMNz6xnyPU16pmfYLGAsMICWPDswabGLjbVcc5xzvH4kUzWONNorgOdDhAW0OzbHSDTAEobzAo0e7N3H5lXe/srCwDclUsGYBWgrMoUMtkXBH1PPPwaDmF6D80hXMOrI1/tgLQBZMpT8HvOnwf2Zk+4ju4uwgrTCXvvFsTd65kAIwD0D2UNkAk4zZzugt4NKyxWdIUFIMBdnUlBjSTzhp/HJ2A0c1Lb2D1YkrBYLBYLCJp9pFDOU0AmmYz8xKQ5YnwJrHu7TC2p4NmLN70bcjQCNPucKnV6DyBzejISYP5wLNsRph7+zy6gtpguY/d/uwJkANg0p/dm3H2TyaYZDDYNMAG1q/mJ2gLqpm4BTk9n0kz/0HMCjCQ8GWSSScKYMrD3+ATKACYtjfdvZADX6lob+JlkkiSnDWDZg9iTIVX6ACMAPmyTz28CgwHmxN7XyXSAun3E+txlmNIplzFxc6bOkgC1VVuQn1aVwpJk5gB7JZmglqptWKVuN9I47NwNc/78idWlbW8ywf/SGgzaNpIU84e9s88dgoiYAGvOM2ZtGdtkzZjThhAaaNWl0rh5SMp4ZSktvTg2nrjq6lBlaeditja9VejSiYxHmpWKdoZzyzo8/8r4IxsbV+eqPhmJPkXXDmS8OacObJytm8f0rfUL0t4bSilxo4LMpRBBOc+3ZeygQdP//4+cxtbnX9WSnOXJeQZD+/me1Tnbuzrru7zPIufbGHCYnIQDSOqq/8td//D7VzFef1GLlgSjAMiNjFqA29q25W0kXc/7W/qlZDXTMLt6FW4P7jF56Bx4Tm40zMxM7mFmLlqWLHg8adu2bJIkSef1fL8oiKszw8x9RMHMHCpuwVPfQtCCGHcQIcHMEaMYMnPMnNRU5P8eD/z/r076/99tZzsLDnnAbTg3xMTWFyov21fZfl52oh+725f1NrHrlXa3YHcXYXcrMjHo2EQaxnZkQZJct81i105CUz5AJIXD4ZVfT9i2rYm0bdt+nIGiqrsfd3d/3d3dbeQ6cx3ZyN3f93F3d3d3d3d/LukSqiDJuVwhOc+D18Y7RTqQB0iHRosqIIKiJElu46p7ZhdYLEgQ5Dk9c///YQov0ZPwmJEFyWrdSsdw11X7OiBZlk0kyC/Ivo4LknA9p5i06IMTA/bDl132ZUyTfXHqsC9OPGGffKsx/88cPy+/IPnP6+EnqcVPiyEtGRlMiZeZ/7ysDj8jWvykBEIBY8eqxM/y5+RwOPysqPEzKiTZXcdKvCSb5FA7aNUQMjG0L1yzzUsq8aq8qptLPJWnWkx0uBQRisVCRqvOnlf4qu7PZbbfX4iyJwdKGouEsWFR4QoJ2Qvs9zMlvi8Kq8YaacVwVjrhXPPJheT5FXX4Hg2U4tUzWlPiMUmS7OIG19DgSzjL83Ngbs95np9Tg1fklUCzYDISliDjSYOE76x8McvzV0WDp3w1EN4YYXERB9pFg3Oeh/w1fZE/Dav911KB270IgxHrKiw34wuq+kdCtbyy/auh2qqMMQXFGiPD0gp1vaCDS14zTeCG17L24xwXOjnXp+QYwyt8qq/qq+Ep/FgsFrIMSSNx9Yy3Ctfmef5zJMaf5qu62cz8uF0sxE1fk3GyQeOHp3hVN/tXhHfcPpViNvf3yEtZ0IwlKRJV4IVeQNHORfGqEM5XUMxmtxpDKRb0Y4IrK7tbxfh3w30HTONnuF63xYc2rri7kpJkzfXoWtbeVllX1Ro9SRoN82bkvSy3g0GZk2Neo8fO676qGgXdHUmu4jgovbasqyrd+49Vtd56MCnbMjJ9oqTVOA+ueEONE0gyZaiPLyejwV3QjUluFm1Zt+l10H6/d5Goag+teVnX2yynuq7nnsa8vc06+0rjuixrN+raQXhb1nXpRpkQzjMDlc2jkYfvtnYbWmYMizOQHJjSHKCj0X7rNXTr4nd7m7FpMBoFjzHZk/V63aEbN6jX65+im/6o/DI6SZXOdrhAWd7Oc0XkIPELWo9GRzensty6+N66+R5Ho3rrZr9196yyvHU2bFm/TtlbjUZOvtvC3Qsmt05X56WbL491fdyOHSTW1d59CdTro6f7DgaDbQZddNkRzyUzvZHV/dRxG7+/zz2c9vu16xpYpW+Z6f7+3o54ZrDPcxd5kgndtdOwVU7SaduqyDpsn+duTsf7qir0Tri/v987nLDfr5yGLiYRI8RwdLPy2+hySb1pl3Khu3kKEbpcdOgjVewdF+m6qnwXfr13+OG43ueLjL33K9oBD8doUnsHjKyve1Y5+MZW7o9p6mv3OUkuXE5IMcjdTdnRi4V/+FqEzGNm5BKD3Vn+2c7yUgcXco6ehuxKl7mX0w3XVbpH/+ftel2T2kbZV+t9kX241TZwiDtJm9ZuTj6vFQr3ScvkKEj+R6o49XBU9gFyu1+v99q2ZAddjOZ5avLz4sVuaaoT7XblFTiyGIXYKTgd7/PbBfnvmn/33uVEc/u+n0ym5DRfXUvh51TYPQKHuNEmabq8n2pmxHmep39XM++ZTiaTBf8N/91hMtHwPSZM/3MgJx3mfiWLvMeX/zZNJrnCCSFiRozwMXXvLr67UuVksizLgXAU4dlIxSnEYrGY/ovmX75300I3f5nm+b+qEj9NFZaSn8l4j0A7YJKGix2pc+6/baaLxUJnTM/O+39xCN+mU60T/v3bvw09wnoH/fP0L96nUx0pi+rDDx9Tt9HmoCxpTNvBwIYqgk573aojHQ1fu7kzkjof5Xl3l+cTnYv4BYwONpKEFdpnsA6j167e3k6UnPY3suoU4dsu1zphchfm21stpxvkq1W3nWmdECPCVWrvrrS8FOU5SV7IwKKKRP/8dj+ddkf8pNZ/ky4W91r38WMlfoGS5qg2JrFlOlVzul0sFuFd74SE7j3VTrhfLLrrhFTKlbVltO1D/z3/TdveMN58xMvHiRYf0XZeQ85DdB5afG6+ee2yG24+/lfW4pMzdiTRa/Fl8cu/hJzP3rvV4kPkvd+6zXwerl8mWnxFO5+H6X99fFDU4n/mzkcY5vOvz1r8SLhEm21pt/+j1kNAtqfBtezb0OFDWmTKYAsIrAsdQkTcRkvk2+1Oh4/L0gI1VkRq+e66jCWck9bU4f1FXiQS3VQ7XnE3j3I4hq4mvJvPw+U+arWcrtGmPRRYWBgoMSsKmgl/rubkznoDDd5/P6V0OD/YVysTlT27yWQe/Ywu84mO00dl7Ckmf+/sq42TkDoPTTqMLvgeLhMdp/cWeUWknNEh2/1E58D5ZBL2d9E94duF1gnRsbxXOqFOppPmFBwpENfJbDYLUBBDMlm6oWbMjiAZQIcz+WDfYsQcqc53EfAbtptHJBV8ZQ/A5Q9mQuzraKThFHG77QLf0AHzCFT4aJRotSCRI1BjzC4helsBu22E7UhhzGhE1vhtf/j5Zic4csSfgWBmfCmuQAMNn61m6THtBrm/sSNuucCJJBF3c/+sJGYEbndATUYgj1sF3zpR0sp8Pt96PUTyCCxS7Lbb/BWZnOPJDCe3A7M0K5I9g/0Omqeuxhq/d3OFMV30nhHwe0Aul4Ebb8CLJh6Gs2xvLO7nc4+tEULs0kpGIDnyu49ZCiP6+Sbqoue5BTqJqDgl2pehjnFrp3ZCrTF0mk/312BJkskvw4EHJzjxppeupphH4MjCPVupKpycJNwTs1FVVSMXiZGfb0bJqnc4+T5z8uUo4ZvLi5wflJaJVcKReiek81Y5+WYeJ6aOi2zQtBZqJ05R1XXT6SQZ83h0eTPNwU3DZVxC0O3pZ8+eufm+PsBMDw2X99J8dbZVPYKJemzrrxDcreDhGyGEezAZNL2FE2u5A2c483xTkXS3IPs4qr5o+DqXTgrt7cs0PYv/iNy/E9QkPjseK99V2EJ+aqf+2DP4fAaVCF+p7/TviBHABdm5tncQwQiCwAlFkkACWWcX4MrYdHoAolbgTBiXA8hzrZahcXmbkvrkT/WakvpPWF5nvSl48DAmkPBVMYWvZlCK0nTqHf+OJWInE1O6/uM/qasufMH38Rz0V2AA7SloTslqtueU2lB54x65lqyXE0raWddXM4YmU9pE4fr7Ut76l9tMKMsa/NEHyB3LNRxMYG7hQMrRPLFaQL81kC+TQTRC6TGZ8S/IdryIeCaZ+M7bLwo3///W0qT6tTVVxrh+5e2MCSpBIATpKm0TlmbgE3JFBU0WEqqK6gJBKeSC4wByIOPpU0iHVG++hG/BzRenPCPkFethMOlEyjPoxQSB/Lgw4vcGYQwzYKYVoAaLCgj+NmtuPL6hd65hUANq+ag13Zz1KKvDCCpR1AYHJruwNBM+IUlVUVnSxoDnKXwBOyQdwzvP+5svkkDSGQgzFRTC8AFfhwH4g1mQKVnYHMRpSEHBYNKrBIIZKkM+fHxZ2SscwqEB1IUaoAEkn2iWKwShrAxkSuCG5Gl63yySmuy7ezOv/nbndcml9fwBX9caKB1BmmzEKGbBGKM+nPs/kUGWWswtghWQJ4EIwcsINx5/zM/RDH58AhEQlLCpHbTLiaSqUYERPjE7KlfUlpL3xLXcmgfwAO677H0osODmgAOJuaARL9X4AllC8F1EK75CPFlKC+uVZWhpQFpnHJC0+r+xzl8KLFbGtXSkF1cgSh8+/pi/py20hXbQBNSS0qIQiRnN2iOY0SwnfCDXqEHfwQuIhTgiFvIziA7hJ+od1cd5/fQTh8QJn2P5EtGobSwvZL+tYglLS7Lpd9YEcUSl1dWzFYhGTuJPCTIgU+56Cf7J739p1xs/9j2L3e3yGzQHUVJe9fWCmqCjRU1OZq9WOTk5kCvq5zDq+XGT8IOOksAN9+EaXHJXj8ETwyPbz54TSH6FYNLVJw6Y8Q0yBeavsGwjWnUEGZI+QbLASpQMxEMj4TznubZZy5hKnnPgguwbb39UdPGbz9mjmbMbMlHQWQKt8pCkxUjY7SVRnWP0hOoClaT6+YbkYxZawRI44xdb/aKbz2gTRQBOCSSQC4oBPLKmmSAt+CLowRdpOdf8FWZet7V5LffATDPWS/zVex9p6NQXeoCffNDkERKSZKMdZtlLDUaPf+R788aHu33jw13XG4c3NLEC9p5i0biB9x3ra7hQR0Q9eRW77DUvP75svZ+em+/YjYySNKN6Tz1LEgyF887pGh/uMq/9zLet+NGffKKOBE4p4DAKUSTijgLWl+KM4dezkFGmCaoEm5cx/OJcvzdvs6q2Y8EoKWT/6F2SwOSul3Fv//v7rlz7mW//+sFPfcf18eFuOBEDJRooxRIYLwIsXbjBulpf0hv3Tv3RgUMxIH6x6++xfP+689a6C50a6x8v0WkCu6licMIO7AZIGwZHibJMEHgWHSaBNO/LxcU2wv5+hHMTwt9z/VBtWOk0CfnpHzOBLEE5HHKshg/Dmm6QoIFMaCKB4k5ztb+/CwFW5w4sfwfLjNcPamMXwWDQSgPBD/RAJHBDDERB0qBmJ2j4Lh0Pv5FerFwl+4F556bjIIJl86+2ATEN+oFaw2m6e2QwNNs3yZkBFbAdTBGupF9cReMfH4bLb6oALjqS30+pAe52IKqv3fGnWmSiw0kz/3i7Ct6+1W8aQ5qhwSIbnOVlXagZTAOfKMPB6eOC+sbe4+kMPkPVYVRUkK9/XLmGH0wHTcJkJkQ+aq8XTaa6la9vhBWwqL6RRS1/S0r7ddXXhngPAvFdOYfFDT1R/cy7ZMpT9XDzs9/6krpvVM+qIx1MZ2gDlbDNUobXJZIPbCJr6Gj7VANfGOaWDZckgQosNhFcHcEohcpTjjITu/gA0t4xUmZCk/AK/fjw8G0G6AlhFYyKqkEglbA0kXheUt+4CGSjOaNQF3qQ0QGSQBPKRhAiWYhjSZD2hoHqw4IbFRtPCHRYSBU8l3yimTAfrIR00WQ5UImn+dx89MRnkFyHY8lG15D8wHZQC+hI2Sa71xLIUZOfiRdnOgXjxZGMJhcCIfs4bCMVsVjYbPdeoEZQLTKA4uuDzcBKiS7dCfYzKCTzGfs+Aw2VJAo/2G8Co0FtqvHVsj+B/LDI3jOBWbLBRvsCqexCaZC0QHNP6fEbnXdyf+PHvlMFYXOFcMGoS9UoYS2WHa16XjcKdFB1GHW5LIAT3QnfmtAm9tvhPTpWbf395+mQXwLIhkwZgYgXCGCv5jigbFHqgK0kgfS4Ehd0RHYKpYZqqTtxdsLBfjPo+ff4Qaer4wIlzrAeDGhSO3AwOlKtvzeBv/wlFFU2Ic1IifYVQntBDzdnWWi2Kvm0jSROcCWJM55ENocsag+AXlK/zNc3ijXqMFMhXYcZTbqqnwcEGCpXbFdWTBNa0b5BLOxlQsLlLAul/jd0eXxwjUQMuGXDblUVYu36yv0k6zWNnqCB0mLkgopSYTuEOSEkKAZ30R8tiMAkMA4sSLKFEz8xkz+o8OG9s5SUATdX1MkyOAgKfLG4jYNRD2SCz/0aOYowcn0w5AQ17z4quvEhWcpCBtzd8UOwdoQnoOibLYHnSZ+oqgjcumi0MKCpPim68DEVCsqIh6eVQJoRHoFD33QJcuBpfwDRH3cMHrIWQfrckMWnJhMFgwfvkwZI/3M/1sn+C2VwUyXAMhjaxGBotjBaA1dPexNYYlb+uGNNU36lpvGFhYmUaUEfIGUF0ufLebQJitCsGIzTwWCc7mEkKLCxN4H5qIo70sRvlR6+LppAmf1KcD77w/bVrXb2zn4Rp/sopR/Y0Q4Go19gJVyCh30JBF3c8Y5B+BHyJfkeNcIaPamQtV7Gz+o8FwXwEy/bO5Sh2T5SUJV+Op3whiL4ObHDXYeveWz7BtN7ARjBfApOHefGaJyBMAIImEX3HAavataNCtfwgeQso57UBaKDqf5BQJe6MRKmz9PFCJYiQxBfsMcjzo02zevG1eJc58dXNdjrHz5YXL3MFwJEhm3yIC47T7PAC5VWxrijMQOSFndUAWbDu/PO03RFJxPbRDvoSthYnVjU4pFEUZ/CWEUpsLSb5UJ6/VSy0TUkHZ+bH9h+AOjYIEF3SYJy8EjggowjyUTIPpPA/4+IsiZLsiCjUqIKPkfbQ0l0Kfjrfjt4pGFSs2K6Dz9RZjCFZJY5o9CQ5BP0dDgrDd+AxUjQFgkCxzIWxEkjkAvtJbnEqMtxwfPz66OVoQSVqIuC5/VldY76FCVwhlHhEgXv8+LqxIRTqo4me+JMkA15JVhA5ow2JcsRIyec0WyNUSWFHxDfzg4P/R47UmcYb68RFDyvE4E368GC9zk6w9IgHghcRykYm+K0MCiqRAtrNUl4ONq1iHMbXtxe99huzFZAO2I9cHHHuT0jdqlNvoEkFbvhFRxnXyOurdKuA7InUX+XBN58+GzdmN0xXYUp1oMXd7TDLp9he2EI1QMrFIdynFG0scJ4yfIdRx3WNm/YgSfu+Nl2T2ynQQ+qI/lUQ8EsP2iCJjkD9cAu7pjkL2W8gQpKjO6Fpt64I7jeeHr7Q4S+GRPB9v7/7J36YBB3PI8xvZFlbtwrr7HvSIfT7HmCize3T5MvviGBTf/bR/7m1VGfcce4t/k03y+Xlk75mbhjw5cJwHMIVx8stxHLAwta5fp6e/loiLjjDXJd3LGD3BV3LChBjLH2M5iaFQ+sm45GOMdhGYFo5Gp1biPZxX6aXdWbPdhhlwvuHpbpAcqZy5Bsq/wVXFilmu7DjjYo1b4dTR4IARun3DR7mrJyBI2PRuwixH2HuZLWYjFZNIqmJ0hHuWG14Rk3HTylsKPdvKYM7Wb5urZpx3SW87KH6v5TO6bzijYPdICw0bJDQDEC/6jjLiN4Gb7evE+66KmVXVk8lA3Pjs6wB97k7fIBRUG9kKAMJC6rc9gxL/wyd1DgoJ93gKkjBPPfIfYTQnRiVxZ6Jbu5Gx4aIchABlABY8Gdd/xcMRJWXLR3j0jPzQc7T5PC7mu0dw/MbG4D+1GfAGT3e7YSwZmgIcuGG/8FLYnFzB8ihEsXXemmLw16NK2Jpk8iTkJz8ICuoM46DdNBkyj64iyyp1lAxgqELgur4H6wX+KfXk4nmqSBLnabQXMFihERItooAGj2nx+0OPGmD5pz90+4dLndZuFnNNA852odF5QDq8twUeiFPrbbdPyyxA1fvFwU+P2Plq642Mm0//QDG2QGOJfG0xhiF5G2N3/HoOw+M+gwqOu65fjb9ZDO/Rnc7fQ5yYcB7RidhuoKaZh+CVfnRfbOWqIKjKotoy51ttJGGW9/kPX2B8lWmPunRwjJiOhxxWLOY1CaT1ANTr1u+LDphPWWM7oEJEjO0o6ZBmJSxqa4EqPqrvZnp8dvUARSCY1HuwyxwwVgIiKmacGPE7R8M24izY90LZ4CG3zIUQWplCX2lrLEkwAVOJ/NKDNNYszMakos5lpvWn4KHzYntjnxsYNhZRkTaoMJ7uYuk8GowWgHOKBM6thr3JER5wDTIjf45tQ9coZDy5wr75yAbGjVuujJGaNvogR2qkAK2GvccUSAWTG3zeHUzuDCmecbz8JDC9eCxZcffeFvj7r9+b9vm959YT5R9o0DKIF7UC6F7A2QY+UOuxJrC4czy3PHBzKkstjAsw5Smorx0cs3JZCxfLq1z9Ha8eoBgk8MhnSFBxLhfvITFoo0v/3N5D6EL/m4I1bzgIMm/YikYUKQBLJmH0PU9oUpxGS/Ujd+EB63fdoUVoAriyYYDNNgME4nEoRyOAfv0wZtvZ+mYw9K4q5SjtJZFzaKl0kaEmoK3gUP5bF1MmanRkmKh08+gwWuRcPdbDt4KffsaAaD0Q9iwh2IOVISW++3Fn4L/lguxBakPINOnEE4ssvihUDWEdyA/9P/GgtbljSVQAfWxODZKW9hKyRnymG/sKdps4ZKuDfMbbn4mq8lYT/CFngrpbD1L29RPYJZUsfb3yyoMO64R9SNz3UwEGwILTYUa/RwGvC//MdY2CoIaKXRPNWqeeinU7ABspL1ZT9BogyXdtSFLgf6Muri4PICIHJ82uR7nJGS8BkRZEAKCIYyIK4f8FU2NsaxAVkwWMak5Qts1QKqNDfegsLkVQ5lju2wBjJj1B2KgutY2jtIl3tmz991kS7sV5cPSOigDcztznUhT9Z02vKHreNQrjSc0xescY/xohE5EDQkDN+06zXHxi1YkGERRep+LKrABTTrtCyPM/mBYrQZ5sOb8O8Ukg/MJ2BpVkz3A0FBvwRE0QltYr+dANrBdBYr5zg/TMf6P2078OUSN1+e1sk+OQ0UAiHxdQVG6RFYQbafgUBipRFxjIUUj1ZWcbJR9cOx9WupDXwYv/iHy3AIzL2hULa7e7EHZsBpqAjGEVSNrlOoVX6iOmN1aWWzfUByRV10NOrpom5QtLPY+NDPeXp7jqjfrh3dTiWQDa75ZJ918iI5gS/+kQpavciMdJ8bebpJ/gZOJG3T2cZlrIydhD/lhVyqaiOuCp0LpBYofOlA52m/U8bcpQpXoSeIWCvZKOKTCKrzMHqKTAilv/6JfoG7xrf1M8rilQhbJROidlfTf/eFX4jrokuJeQskNeuLYOgI+ozsFdDAUpBAtgWKLnih5/KypLccnLR5Ldfw4jP/IVXDq5MkUU12aedR5UyC1Ju7Vtxea3NnLeTe1NtdZ+foqZynA4WXCmUrHciBbTB8925WfHz/2TSFH38JfnV6pdrdPR0OLaQQDvVB0VB1MrBzRsW6Q17zUno76qalzbb4445HsSTwb0efL6mTNdmH8oetR7f2psFJd74dD4NgB6QPEncslZQDZMCZk6nbSXAbFEm6AJeU4Fa2HmyGtkAEgjr59iJpTvHCwKc3bMuFuEiM6v0NfOsOfSixJFFNW0bdvVwDLY7tQ7jO1ljoASvI+Qw8vaM/VRfoDJ7CZTg3vZtHhw9THWljbpf+/uxUGAuaVAkRQqG4VDzucBZg5lt3WXs2iNw7d/7s4k7tVUG6if0VNcDnGLf1jyTb5xY8ggVbm+m3k6a22cPYj3oQk+dzdSmufnbJ6aaxTyEIuxG6zTjPWB8+XmRKti/fsygCGCw9G2l6N6xcOU7Pu7ijx50dkwDTiMn/2eFtzM9fN5y/3Tvz8X7mfrHxfzAI/oUHUP4A4QgewQY/Irc2Nb29ZzMX59/Dx3UmwgwXlRbyQZJtt3DVY9xxll13SFXccb3eZwKvqw6WcB4EwWyXc+5/3jyYNfniRGOW/rSdTIiGaa0nXtASJpB2+OkVtmxwQCk8hd0wEX4kGUALzWHKRy8c/du2TBBs3MIEk2E8yJIL0vTQUib1yIYP03LDjuxVO33e53mXjrijLUEAzIS1//2D29meKbgHWyZvNe72qzrcfrWan9wL3dmfjaEnLIKD8AActvpGMXCGh3AAFkEfaNwutxEwEjbvvfgnlAa+QkgQk9iiKUyCAaCTFLI4bmMMOwT+0PDdN0nq/Eb2qrlNfIEXdve1FS/zPLVVmjERVKGvGEK8oHY27IOCPN5H7mbMSU6Yc+PwY4GOqmDbh1CovIDgEzBIs/55DuoGogn8QO6K+nkx4KLZPkKUQHZdqY60JuXsDmc7pbfZ5Dd7PoXcvE23vuNnxIAgJjrV/P3fX/g6BsAoaJYpgvl55UTywlB/g5SoAmYDOpy5lsPXC7+qsYkYHmRifLZGu7tp0falVVCBfOFhBadhv4sb2Xrse5M8I2hNE+Z88Phjhto1CMlgms4adyPYJe+qvCrpmuTtrL46U4+OADUIoJEewu4wYhiixxM3KIDvV+AEx5effJX/uy//LwNWOINC8LUOIANxxm/BO9RdDxp/Nz/DEOiZ9SscEFQWmwjOjuBvJy6UKIev2yWaU0bCiIpiepUcKGyQhhw4CUcaEh6mDfr+lQxSwQdAOIxrtZRkLNxg/FyBTTN93qu63WgDfaE3mEwfI6GMBFF2yoWHCe2AO2ml7cgi158vJB+0kMgenIczXjchL4H3ESD4VFAG2Xa3H3Q6g4wzq03g91i6eKmCN2z7usr9OSOg2xyCbIXgLJJPHEg2QtqZ9MjOHQm3d6ohlWxI2sbmPn5Xokg2X4EL7sJVuFHxGNwd3t1eBDCCWHJtgQySgmur4Jo0d5wC0RN8/3I2bmjpbVuqqUf0gbUQgoPWVvnvpFf2E2xry0IImn1MLSRJQ/jeGktbq/XEB5IvTnJ9Oh9BwivSk81U3r0a6ECa0aoVlB11NApc8A2CQDBx6/lWTwt3tHXjF6o5+HhwgWaZtRaCFyQc2KmV/cXQIhe23xPBtEpBmrM2J3T2WBP7oVZb8IEMlASuijcuPWPmrSdhOj15+D3kjkYtNbcxsgZEMOb499Pb1M41DMKhKTSHJoS2AqkNKAiOOxrlE4jzkMYTrMQema8pernxYHaWFqA0W0Asx8zS/q1p90Pvq4rzykmshYUusZiVwhN4c1hFUq0v9bCvpyRwZOGGHL4ZEW2SEvzyRDV1DYEwqAP1oDHUBUOX0UDSeVV0hHLIvYJ8KH0InlegBa+XOMPTfWB2RkDlLtnnaZpkO1xIDHITSDDNv6LK4xQtP/Em3HHHLfrBjpxdiLmkuReyJlRhfQiKPZ/ucvwua+4y7i6d71LnrrxjuJDDazFBm2bcrdDmpkojS3NZX48Najx79k8JwhMtiC3MBPnwgnhfk+bia0Wqu83b7Q/cpB+mzPVPX9DV2OpMfV+hPkJba/PU9yixHdARjha4W1lE3GbijhjkTqjZfiC9YdcTS+CMO/pgixZwxCKpoDNmXCGEetAbZsMWuAhvsal3eQPpkA1ZF+CoVVZFqYvvXtm7l8tXR354ZbxnpBy3PGjXlsNcldWHdxvS1ApUAASCCYyvoTJYCN8KUl5+QlQixMJduNf00Q6Kvo8YtCsY5jWkwqEDLIHrUNJhRISxfyCN4y7nALMiGmw+km782XjqLTu24LI5wf3yhds5xHkrZvx5GtePfUMC1+rJEyh/9syhuCGAh1LacIFwCmrQgQhaMIDXPx3ipeYnqfs6SyghrvubE54LcVPxZq5iwKwkyPsOotxNd/gd/nL6AsXvdEPf6tr7gifuiFGehJr6E+nCPw4m+eKOo5hz7aQrIGiIdJl5E9JFKy2SRb0IZSRUEFerNOsNJr0Xu47yV5rFBglK4drmy6ez1uj7LmFucveEGL644848K5Egfzaz+BfBlJYt2/jjjl8wGxpoiGRRlr4ILXCJwCYbwe7qfxtt9tucXaNQkgy0Tlj6BinqByD7446Ygk6waqSvYBr/RU1RFC0oqN6vmp5Jhf3Oe1OeJ2cpmQjXYfLbN/+tR64k2Widr7UvgVWx7vCF9HwexBTeTySA8GBQkd2dlkkiYUcFi55kY6eTE8nAQ+KKZzE8rJc8kuwcVCBp7MQsA59/eyR/Qf4GjQoYjDAVvsy0pFrqooKCci3la6MU/Oze6+50SyIury/9/eY678ADeVIBIR+8h9SK1IgZKfxxBSgigAedNi7T3oyRnEW+aAsPFnjRGggWLlgYHb+ufrZYaDE/sNnbdtDl4lI+8UwGwAtqDVyFTIEMgsULGb/3JUaoAVXBAiaQffhPhz9WBNWZz5SNyKuaA3IgE1Lgk8vaoSSH/787BDCCKJCW6c5muX4Jc62WtooIlsbMgiSbU00lvjze1KRaSCc2SV4gXJbQ8TPSD6SLA7O9BAvJMvIU8mC7J0Hg6qKDmStrfPiQCdsKWkFDqA9mSeoacBJjEs/gI7yAZ3CPeJAcKjzZ0UCwBBXmOVmXD6WHSxkT1mC1IMGqW0CU+DPiFhaqC0gFIwFdFgfSwlwb2ZNcYbfXWV5JMrgLcB1OgzsaPpn4Mv6RD3nRbQedV1AjO3tPeipPKIcHcBku3v+kF4cBPp1/FgK3F8rMR0EjvTqywmqkZAy70jLKUJ1+hgXMp41pJMlcfp3j5wJ7dcwHc8n8fsknaFw6yBEccCKO4JyBE/xPO374vDrf6QJ9oRv4ZDLSzdXcBvm5TOELxDyE59Jkn9AFY45kFkharTQ3EiGKLAir46UAo/xIlQrOrfefZvlmtTN0/C4l88GSnhXP5poxCXjpUkLqYoK0zgm7dhIwqmEw5EDKqMkj3c92P/A8+0kAz2HH7szhOyt9F4uCPDOCM2a0PcvjUmAdK8m7aCIYb9rQKaSs/IwepAJJZSyR1DGBM4ityEiaBS65XsSfnK89NmKcu/VTbVQO8joPXs9GLNNMYTOiv1ja/beND8vSwNtyJR0bFKfCekmSxBIPBP25VkJJroTvCjrIBFTvyQspYOK3wcPcQ3981AGW+0yzJiADXWqDA5ti5mfrda2iZj8sg89lClihLHKwRVzRWjRlW9v2bNOT3qxgJIlW7pQpawo5eHdSSMwN7hkfioCF0FryGTq6G3KqeqECKcWMuk8jcME2KtCMZfRK+XlXUSAXsHAYu1IdtunOC2ewEng8iUu5pQw+HpYV4MCEeKysJMaHu8owAVoJWg+TCxBhEpELg4nI64/frymOOhXLwN25dttSX8G77nDvXneYvJPBTdyHAj2oCU4RBmiXwm9++odV0A1+B9WAOYAAPYWhlceGKkyedZdJ3PHoT3O2v0/LMrXv6p+8V5W82hzPiNcPKBwn3qHKJn2gNIG14ysbDAS/wbMBDaH39T97Q+xh3KHDx97UriSnSdzVGXfceN8A+AQPUja9tZXi0hUojNoVBsPCBGL/OxHyTkyvcCsGtIQmD0A3XYEGfqtyhhba9WD8IUA6TV5HctXCw3XuXnfo8IWjEAX3UjbVd3nWuheIuNDbGkzHFsC+djPq95jgUCQQAvzgkRba7Vk1Dfoerwhh0DDuNmP9Y9N3P77rLTC9wQ2nOlqLyWTSjMPAl7OUq8AfjsG6dJPehjJr7SGelzmbi1JdGgCn2w0RhoFHEpg7vvPvD5Wgsbn6Og2aQcF4RSvBG5r/8E8/rg49Tau1DQ/wg//8wG7ShfKcJPN80WDTA3/IOBIkOPIKdqatepNHlba76f3Ci6HgAh/kAQlggJ5QEcXXVZ0FQRVZQaIdXNjx1HxHggrC3vqP9+olgTS3nxDmzq4rC72SXV08lA11OBJE2Awl1W1npgDCqUN5i4uOtW16OlgzVAtZQKKrIGgbvBpoJBCQGXwLeqGqKor6dZvrPBBcny8SqKWCWTnDOURXurqgGs2haWWXIbseDS4iMLmd4xYMgq8RNhEC545ywkw4Bx5bEUkShf1fpcvLHCAPhkZh0LPH+vlv6vTBT7HXJ+fAxzjr5p7UTkwDdzswwt1w3kzIPCgTmtbK+ODo1vuXzHoFViizIuptYUHQbNVooumDsjuEnLvzvEErcMI4OBYraPghgFjHFFgD2VZPs0BeIBYuSwZnEJmy4Tc/vx2u/cwmr7/b9oLJvKtCBf/sE67YM1uEar5/3Ye/Obnz4zMZXOa/hIhILNIT6Yu2Spxg/BqaI36Gkz99IBzBToYcaVMCGJdRw58En6tYBKPghOFtbeGkQAjfmLnoGcAKJXD9J/pxfPC5Ps5OpJEZ85EoGXbmGqOiYNofl6xv33o+Pkq4floPuOzjLsv4hKsMlPRZGxVaaPqJl2Oi9607lCRwwOy106s9b+2eqaJONSAeSJKgAs45xsAEuAyunhzNmeaaP8s8PyGWiksAWzQ+SK7OjoKm6Hn9NYcZrwk1qk7q+OjGteOWyjjwkFucYMAqkY+vFWj5qWVTz0Ugva+F4cEaS9+KV3HDf2wKOGE3MRj+H2Kskx2VxyvhG0xVDD+yoKw6dwG0UhntqKHMXKg7Uvb46GizfqHQGHcMsYORiVhI+d61/3zjWnc4T+KOa4iZi8ehEGcqLYTXhnyAE6K9hsLvsBTugbtcBv8MJipGu+H4VuBTXl8dKEGbjV6KIfXPr/5zuWXgoSNRK+5moBQfnD04Q8tPzKHkqHoGRmfVSS30zKdy2AOr4Islf+CC+Pcwvqm6tYY4/Q13oKxfxxTOQHGMrz6xuZCqQROkwD/Q25u6O1OVv26PRl9stN+eRvj4CxJNRsFAwfN7n/wfpWjeVTxkpBQfU7mD7qd+8ATeRpYgVMvpQ5CWT0hQDgdhHbw35O/9z/msPIrCtyLu3VgOrUHvhw6awUTYDy97mwAF8om5krT58rOipD+9qQxeDDp/y5HL9qiWqxpsMB1OwrtP9rLvbtbx503Jv9u5fufFLnoNd00WghueZFsCPWk48ZSRiJ+cXBmITBaeegveYdSVqgJDvQY8cB42bLztRm5gL8jJviZbaKn60AjqHEI9FyEOYRaNSIVWDQBfqk/qlw05XhEq4ChciS78oA664eEmHDBNHAm52NdJB6SyTMTNCp1MlPi5pUt56pr3NRZK8Hb7Ayb7CIjsgqKEMukLvGo1bafqXraWSl7BEAI2CHKojJKLcUgdA+5C3oDjFaEMnmTrlaDAc1PLIzze8JAtCZ8ZiVlVpEfMLDAhnXfRMigPmryLUNTeFFsJdWGV00bouHtZdUibFC+cuOv0b1WrtZXaCJpaHQQcQeAcDbaLBSqkfYy17oDNrhyB6+uv8Fz9ohkkCVpT1RcioNhiC5wDRRpmRJMuGb3MFP22QAYEg+JA02s+Nt5S6ouOpnYG8IJBsMtl/rz7dhEe1atETzMjle9m087q24XB4UPWzxkZyT7r/c7KNN/EuoksSTqEw9Z2hl4Ioq1DwK39WnfHDNMjznFeKjOiugQwmJmGPy48GqVAl3fx2cmMZj8bLDDVE1O3a9W4/IYeVckV9DS0UoZuVuCeQyHkw7eT1QqkwNMWOg95faNuqJmIAf38jWDCZ9uO317XRva6xRi4BWnAbdlPri5MsloKaVEJlHkXIScMDtsbls+rYp8U77jW2DPwyWjT5hDABBpBBWSBx/ppCSXSjJABZ+2fKnvmef7qIrYJItxob3qrpVu7BkNjU/MwbBV+4tuA1OfLwRyYAUmLMBiqAB/DY1VgZRg5OfHxEa5DPMRCugGbQwJZskfI4fuZ9GLyQ78sCzaBYmxlaifUbsI8XnGxkPxEcBD+lQFHLwS6yZ5zsucDcRbAO25u1LiREPz3swctAlpWLMQJCSuhBs4mfeuChTzo2Eo3WARzIp3MJfgC9+AOPKp4CSVJvLshHQlcAtHKzRdECTxPQJp8/89YJ9//c3a4LesSFa4wj1e8lXQUnAD1YaGtX8GTs6PJ3pBpmmGyFzaQxFwOf/ZTKUbSeRfjhdAoa+Q9F6Xi/kwnJwUVYh+0EHvaEAIDziCh5S68hBdH8BqyAmw6pO7VVJLgO6RAEVb6YtrWJKCN0SZ3i9ET3G0wW+szzMIrXUBGgnawzGIVDN+upB+eq1XpLwNg8/XH7/nwyZfNNZDBtWcuhQtcyFN5SX6UHBNrPBGqiDuCAMYqXe2uqrkd2W4VIAYOKryFD5AE9pq0jUz+mgrMnayluFPoH3YutePZdKL3aSnDPgczSj5HJYi3PUEkrXU173QvGwCVf/aPX5G0s7dje68wWp3HQJN38VIv9GWQJLFEA6FtXMMHMIK4oQuegvScYL22M0BeG58hDVIfbzFyK7p+RaPtskzxsnOtZhbMX1Sojjr75EvSQa7dtl+ce2RpwRidny+m0v2cq47OJEkRd2yjzUuZXDLbanEf44rX4n4VXRBEjZTiY5uKYFdc24RlsJM6O+XyTvbePV7c7dq3eHt1BYVQtIISKIPS6trc6mKmT1PvxoRmEuOPw5oLo+K4f9QQvzTWfee+kJ2VYse10z5FgQY4Ko/Oy+hizkvruotJ3sFzkFmxXbLq7OiOO84em8Ra+N5vfMHoa4AOzLEVsB7+8eOfrzirCDATlOHmL5Lk08vff96G+VDM+M3Tobpx7DtltBhTXwI9gYNhiayKZeCevIs3dC88xLRdV2tP3BGKBDkQNbykZC91aPDFGB23OcOf0vlggFvQ6dY97Z17Xe7vp8yMD09nlbW5esBg8/thrCTJt+/qfn9Nf901+47keReuuONKEuk/uDeAvDiRzPS1YDuZI3C7zoec4dYZgTOwBh7Az3ClYL7/8VFfb1KM5sA2eJJad7Hh2X1XtXHHRU5y6ci7CG4YbFiCbVEs3zAYGpJAoNphV3yJw+hh2hm6dg9YC4mFNo6PDsBRIyDPjampuOtD6rSDXLfuchffaWO8/3rh64m8oqCj6AWoBT4pDBV3JAg6Z3VjBH2dAlfU7gTRvaoZxFi9gr8SaylN9omzvkkgGuAz06G4W9/INF8rDA1/OLWeUPK37MivCXdWrMU3mfwweyNifHhjlZc1ccbTdeM+TWqYuCOiI4mZWvCcUwgYCYWZ+ZTK4DM0g6h+AjmwhticHtEy2RHBCAJY8oRc2BRk3zRfKxyEc4l1F2Xmi2/cfV2I9yDM3rDKRtyIgHeJvgkz6F+k4yALH9hxqSI6y0yUozqfzyN3H/opjccXRfCJxwcd4Assg79eS8oQzCBlsZduOmgHT5MAp3czLLXuImYLVPYFhNurOiyH3t5JytX3BuN52kYftFB0h5VQag0UEHsWrZQCGzI3lpTBYdYm15DgNSykbV1JyjI/thhScy4wRWZtiu/SC0+S9oyFWsSURFbIIj4ykP1ckqLYofnLoirkCvs92Q2Q1d5JXFuGKemJDOfTPCI9jQ7CazgG8fDeueY2L7ihErSE2fAgPqOdkBwQ92Ae1y8eNLQKUE1hFCyb7CuRwJA+6KUkPyHaRDMgkTsAS1PtsqJQboisVktzQCR6gY321SvwEdLDM4KjBEZVwiXmurQyGB69uPQFPIyAbZdRM4/IiXBGLbgNC0K3+RAccA/WwUS4EujAJ5wUn/PmvdF38kqPJ6/eqqQcqF9gNnRQk9K+XI4JghKBOUVng8E3N30NXYD9JOEWLI6xjl+swEtKkq0SoOwlUK642AtR2DeIjxCkwd1QLVBIxwRWHbRBR6taA41zBy5cb277EAIyoU9Gs2VmjmeEUoj2y7El/TrwBA5C4Uw+KuD4qBrd2j363Fl3GFgmn2aevJKQRu1RaM43PWAONJeaDH4CW3HtZ75t6fhwVwqZCbryhb5QLbsqX9UBeJokFLWjY0IQmD2ZkyxEko3ud6WVYCFX9KnF6T358IdfVv3w8B0qpQyHS47sTh66U44JjKIIadSeEOdE0vpmpPBxDidgfUZVL6iGGaej/N74nG+Gae+8mUbpdJRO076vpiYgQl94qSVYJvfMk3tCqq+kIxJmQZg66Rhyx4c75/hwF3X9J76r0Vv/8X7vjuM/e+k1frz7BbsSpoI+o2CJCoo0oT24QtlXiDV7KuFyxkIkqSVD4M0XdxwffmSMT7PW33lGsmVj912WSrE+lBZONFA62JM0d3HqXTqFVvwTrhkMO3et7N5cRny2Xl7d3JFz+Oibf+PF7a//3QY/uKi5mym8e+cLOLPjFR3ejokQBWEZ654085Dp4xtNufHeS/v4vTs3qQiuw0QIKF73BH6I97kj4SdmgE1sNi1roe+448n48CNjYBto732UkNBca1NaY//2PBpUEix8lwkhoANkWUyr+eMP27ll6Bf9l1f/9nPQppumb4GeP2B+1D0n0yPVqR7YTvuoBkGDeNzhFIAyk3dxc+q+39249x1tYYbxj/zQaNgmCKyudAmtIGXZ3h0P4V9IGlKC/pusDOFzNJABcJftzSZTE91qKSX54em0uOx8mAmBgGRhT5mHsDDu2KJKrru4OfUzd2uw2bSsdvKY4Ve//O2RtK0SWKiAWMulBB6no7AO7AOAQiGgReQUQEsLYD4osnAppfjDixpv34xZq17gLcnGngCh4bqLB+lZhg9n5jp9FtSiirprfvmr3zxo9HS7ThLYnsBtTfYrp8IrUOHv7IHF8ExDJcoC90PAIAPgDcRKWhaZPD5q2o4FbeoOwmLgdQ731zdvqiefTMyvu3iKw6ltHnn2Awm6umuuRk8vVksSBMHiWzvbm1lDOrzyEA7DNDgO5ZJE0DfAU59PNaSHaMZ8A+BEqcXjo19hHvw8G3M04DqHTzuC+JWnVjAG+67J8MwPj+2JpX+3UYoKNHXXfPBTnx4RQE2inX34xWLmXzbe5i4KiIdJsAiSAVVO+uYS1OAJsT22GVbSgIQijI/U0BPmQrikGae7GJY+sb0KO23hQMry1HZP1idORmQjihD9CwV+ePiBMe765L9gviA/kGtFNQurxX9ZLw2yYE1lR7rYW/V0lPI8C0iDIIWYznl0OsgT3qVx81v+TEjjwxOtZwj8AWGSAvqJwUgxo080s7iODB5TpeEMj/111texNzDGtEFIZd01FVSNWSTEDy5cY1TUSBDZ3mpmMOr/3a/ku5XuzUS01dlHJzAdeGE8VoGk7EB6yI9eGrKdkfQ0GDqRamDHOJSaKwH/Qa+S4wc992FnrONRIelkOjErhPr5BuM6h80MbdAMZtWtugPC0m+pNszYBCSq5g3Z+FYq664RkmQwlqSVJBQsgwhNYGJ7ywZfs0ZNvvevJZDlk+oetXdpAZ2hmZV5CcoUca2ERX5LLu2GohQhntpqwD9ZBpJEIliT0Uhd2EQWixkv9t4oF7hKZd5FcQsWrGJlPze1RW2RJFBBH9hArIOcDCbf89cSyMEQwS38oS9shldnNmSn50jc1z7pDDdAdSYnLMClJJMP+VxlrEm0g6AQrG6fJIqqQ8kYGBLtjEH9HHDaYJMS3/mBnEhZAYWwwfEPZKfw/+9XAllQAZqOkAenXkN76AFr4Abkg2/uL3mCJwKI06EjETwKkoBa6bxiyQykgJ3gThXCdOAHTpS1ee7Zm66agMTennbDByQdQFtaVqyxWqONqLTqGnVRNZKGQAnsgn/BHmHyykpdXfAc5BmDGwbOwVxaB6IONILG0OQVGGO1Qsc5gj7SAdajqjGCRYbQKn174uvL9PMdRj+C6zGmg9kZxyUYWaoOZsxUGy73wH2k0zCBPJLEHC+00WYDdpdTCjaAk2tnBQ+chU075/MGKDN8/MYhhb7AfMaMXRAIdQU1iRoVdcAG+lbsAQQ5gleATUQwguAz5c+PEXUxYwrQK2G5Zv4Fr+A36A6JIWaqoezL3IyZFotLUqmKwo9fx6iywngZpwYFO9MW9yCLP/8VuQmtdQVUsMN2OAgZwZ/BI9mGs26+JILx9OSLp1G1N5X398FEWKqwUaYjX/5XiUdoJI3IqwBQxxQgHJoVugyUFqYF70WngV6oNiykxUZlgEdRa92vZVRDq2iuMy9c47nKz7sKUsECsFDRLl27v+6Fv33MtXv78i/AIwW0KB44DeLBqS/h/vPp2bmcBuQHvuD3GLzAcH44w2aIByAInFXLlfKEpZJO9QAX/AuB3iXQj+3YCkCDieEIzqrjuCjEC4/8KkYbKxbReOfZddKJmUDV+Wmpecl/0NDpvP78YuNP/uXLEq/95XfYx595GT1+vOtL9mLoKU12vyLlsPkqMTWHlHWWDBgHuQpYn56QAnTi+aqMjw2UFM8oHDt6yVvx9tq822vVvlj2Jx+XVT8/QUMhHL95AK7kR4BlCtkiXZeZuZbbdO/FWDwvVuvvvshSQXJIVD84SiuEYrgJ54nzkCZZVUJYAJkKmbQFDo+Pfb9xqr6U6cMFcu5j4s+b+Xh7t4NBBb/BSw2bUIZYFDNX4LUDTd01xxvZ791x19Jd3oCXJFDgDVyFG44Em4oIG01djcHXtRfXjj374WVqZruwgbz59sdDfnHWZ82qM/MSQCN3dQs2QdaQgAJwZNdd1NVdkzvzLhYUvO1pHUBw+blcobvu2s+d3d77J3JcypFsBDEebQbJpsy4ML9zc+PayatfPeuU64a4cXpvRLO8efR7l56O2uifPNc6bQi49R3EwG4oHXCDCnHcsemOvIv3oWDfNbN03TXggA89rQMIIrSAP6rLEfO9v56zv/4l//3qV4354GdqW/MYvk/2xEg2gngQzzGAtdu65CC/UY9DGx0FYmBhqk0HTDAfxoMG2eRUZ82OGR/Vyo0fhHzYDmdB6W8hSz/I9qELmdRd06h6eRcTWIfddbmgI+8gXFKP6y462aprPepTi2qH8s/prL1NiW0kruthdT3eGNqPbj4QO0L5wWkEKH7+yHghwwBBBVyGYxC3wddDaYdgr9bQA3pFtTQ6v8CE712qBtbc9QP/weNEvA5Lr/vcgbeK2PBl85+zqosQHebqUj/TeReHJJV5N71hOtEOCuKunXdTO3ACFEgH+yP4BF/mkOJIT1Uf//9D4uwYeE4lxX/MYTrDt0kjoBgcZyCnI90+xOkY+nZFbnQ0OTOd13dhQ/TgetIGwpnbpvM+swymwGRYBIfgs23Z/2Z9JAN4kVp3MWw7H13pJ+8i82TdYQCmAffhmSmIXtRfZqaEDYeQCxmQJcgGBzhfw/cryN/5wJT87Z7X9oeU7Xyg8mR9Ep5ms1IatXedAHgH3XKWHLqbE7AjuLYJpU3X7s8x6dPV2Jv7XQIbYCMsg0gIBRWEww4olwpzA4+VYNc74TV00JeltyG7fTaEByszqKDqEOy7xroKf30KCuV2GgfCbxAJM2AFbIGjcAXuB54P1g3lVad0fJTkc/jErcwRovrXgVQ1aijZd02Twuo+A8JgCmqQBhTDUvDGWmAfeCqomv3LpXl/2HqY6tkMT2Et3Eki8LSbLPXz4G5IATISD/sy+oOVcFKPL2+ksuhahJDMYMPjCXiQNYvGwXSiGajvFEh7F4IAGAQFIVoe5h7NPkGX0n3XSIKfsRP9MKWNgXQYBmpvmvq4eHfx+t6iGCpAk+zaXZOcKyIKZcoH7iRX3kMUiBem+cKkxRc195QeP8PJkXfxEMaDKwMXjIqqw9cs6BdeGUpUNZz49kJ+dgnERhdOrohc48olCvddI0mghgEwvEUPpemw5K29+fcWxYHbm+QZzM9Utl8qDYhNbVh0DtirnKxbyPazSh0+eyuJL3Dd07XuEp7BcuUOjhovfMKOETgwItp/nM/wrXw29tau9ZElcDmDh3l/QpnnEPxgNMyFYzmTOrc33cEXVLC3ZLwiupRad3FuL+iTtIPA3SeWGnzKpqfZuGOaSntnBVw1sPd+N3Ejm88gbNFvt42UTJ/nNUiFTJgAt2E6PE7jTAoYA4ZT3vDVPl4REiE5UsQE6Ht5F2uBqf9X4ceH1a66a7bZdZfgdvSHd3mq95RqY7y/GLY7uUI0l+NZ8XZh9M1yBofgf8lKe97thSIIgUH2ywBOReLWlXeRpvbWXfPetZSJOvMOhjmCPOgIn7McUGpmNv9+04PocQZHNViCYljr7HooKiBEtw6N/f08i9ddDBnCkXZw7K275j/gJQXN4Km7Zj75up+Sw2EiUA2S1XvSNxS8/2S1Mh7IPeQ67JAG/xuVKssEwA2hsNIKSIRn8bqLEQG6xFd3jSloRjyUHyuH6mDBPguA0AOQmq0BsQGwa7h12MEC+379/LygGS/vj6g/bLtr7tUP89u5/mKDn4DaMFuSTvJxR3OH06TPCa66ayijdpmMIP2jfW3+sBHWZq7Y7MEyBGDp7a+ftxHqXCdgGz+f7oceYF3n0KmhHArNZh6te+vTf5Lwp8/++zAbpjv4abnHFI27y667GDyeC4Lyq9RRd42Z0OkNvrdU/PG6o++sW9nnmAcVFgwSBYPkjdvDkgjt9how3bXm1WX/mA4iLury+LtDC24rvvzA/xfevv8zG/HdhGYlTl+eOyYPiWFovQUpR9PBOfw2ydZdo9f/+R1/IEltDuXm3loQoQ3YS/Zd02t/ABh+GNzzk4eEycOYm3XWEt7uGv3DDyLWBSotWGLv9v2f1YN0E9x1uv/4D+s4eWABUZJOJAMF1eTHyJ+X7wkilFlf1CBoJg/31uAjH2qCN2wGj2HfNe1mKYOxPwgcgnhJOoMAsHzvr6bq6Mkw+7pkfoEd8SZwEGfVpP3OjJuv/kFVyDPh3X/e2QIzBJvtrIMePg6EgoJm6eeFDujCD3WYCGrYD8+z+wcpXXeRwIY5aYYkCQQQVz/4zI6un2n6/zJqHMeXMlSFL2ZAyKEJ44O6kKml7AwmWpAUmJVa/B4JpETsEx6oqsewBTLSmHmaF+1mwWI+2uaK1Gax1dBhJWTrf37HCwECQQB0ND7whUgjmm1cyg/MO22oRdWQDoIeqtALTtlW2j+FwMlrv18IPwEWQDy4IOOoZN81Y+NkVVXdUqISv0P6HVaQwaPJPmtiqUNwOxsNm8CRbteiyA4RzPQntC4tCFmO9ZNvS5g8ZAbLEtCZYJZxb03TPfwCiqJ9GdElPAG2wbg8bn7Tr4m3vvHXLWAWiFeT134/0ccqU8GGw/te/BGLlTbGJF9i/VQu9FLVVXeCG9Iyn8Yrx3/wdyL43AxUF5VQQarO8dpmDZi8im/8ycvxugJxBZln0i+fBcFAo73uNoye4EQP+64BR2umm8w6gjzVp6fqaz/97Q/dzbw8QAVTwn3XzGjDhZzrK/oTQo6/n4uJpu5S67rOUODHXzAubo6tixE4ywDrLrraeO3xO56sn96qjbtVrHcHQoANiPoUvey7BqKgxAIoApd+/htf0+NXv/wNn1yz5gHdPvjNQor2XcNLXuhTeUkyCzDrtlyYmTcEajuvBegAJ6AiVhGNcFT++d99lf2Xf/N1w3bGt6hbxaijcQwZcN81kIuNthl24/Bp7+s//j3v1t97y3/KAgz17TqwaN81rC/lUh15F9tyLWe97bsUFLgGfW5+K6+/f0nh050VfnoPzDRIGp2fL/3gz77r/Zv8Hb+T37+cdVD9AfddA/emC4cJ48PdPmcLwJoHrd/a02hK9l3Da64vZef+vhTZfdeoJP39y2R9+jVtu/O1/Tr51kML4c6ugeRhAJU8BTXbE+7NRnUFzYD7rjHNhDo+3C0YH+4UGGqYIuMH/3itW7LvGl4jFXd0ynIbIbfv0rLknMBTmLv3HPpC1N7hAIT5UAI7Y6yVWFXbfjHPuZs1Yg7Xf/wzavB+aBiNDeL6k3ZSipZ1F9fsb99V9ZH2YAndHjAKoiGnb4BBcCPRPPDeldWl6howQRNonEZ1UR0iBHOUR3WpXX0hFOy7lPsk7thX3TUlmDz8qJgzA1JgtycSOvnZOW1cxObmUOymwp6EBRvUpes1JKECDre04vpaFWF8+Ew4zDZ1Zhadau/8N7lg3zXUrTvsLcaKd19dkTzPOBAz/sCsmDzci5OHe4vJmMm330vuVuD3/+Jjtjf/590NNv7/HWGO5tDQZ7yagAyWrRa3g6ddPCKaHjmqInjVS3yY1ReNQDXgvmvOJZ8yprOP2+mjJ3e9FVYXflAbWkGI7X12NvCNJzbrvmu+KZL84sYm2lEyMLrYhXb3dRXbGXtilj99qHE/L5OHe6lrAH73RrtxO5uvt4Y1YWuEVK0mVAdNvuA6Oksz4TMku7FATKLOVV8I7lY1+cRg+645Pp9NQR1u7tqmZiijs1DzvmvM4etiL++iHfCUifaMhXbXbaUFMOkVhE52gjoIMF9/Sl/ZGlR1qPEMqkIVsIFvhi6RlgSDE0H29dPoHabCVfh9ULLvGrliXiKdbC/9ZbVn14QVOXxtmygelI32hIWoKLP8hfUzakKmmfmZVsaPPxIAFjC9fvECArt5l9rk0876IA2Q68QE+fBDIvi8fuLVznwsbW1YFFgklUjTzIHb62mz365iQlsSA+6klbYniU6tIIIkQQmkmW9IMIJQMNPOKTK9Ud5rTV/10L1/3fx1q/Y5tJRwChpA4CJcVCkqRSXMlvjjUXIWA/z+vojwpBSswt8mupikGX6iGUiuqIX5aBu02eMfr2fIJ+s5BwSzwZgsyLjro1/JlqTdIeuL15MEngJJ1ulGTg+WJWsrggzWO7ttdXfZltP4XLQKv9QmrJquIKHuYjbq8c44/sm6oR+vZrRJeWHlG7VIBGn2NvSRdxELftuZ9mBrtUImFEmTh3vZqnimLaNWUAaylTdfI4MVpL9uJN7Zba2tjfDpSCpYhb/usAD224RRzQqK2tAGfjCjTTuL/XdWIR+vhjUjR1dGvl77Rv9aoE/qrjE7G7RayGxOWO2xJPaotdr1XZ883FsnD/eyVVAkkALaBE7NjZy8NvLktbHOV0fw9M669f66rcF09mGC2fGDdQdn6fZpaJNmZzSJjpZftL301611bR9vTYCvK4Fo4+P96/0bZHS9umuem8aqbd81ayjhvmsakEzDq4v3ebJSUSraL/xS0vZskU+Z9sp2fRpGT+h/32vgauMrQZBRm00RIu5C4vseYBMnduK1pu6as7N43zVd3NFODZRWpfbuzLja9BbcdvYe5/XGMY3PJZdB6hts4JL2ccsUdde8zu27xk4NxlKzfCjT8ZL4Zmbf2SObfH/xtcQmZ901bGHTZ901Bx3+0dK9xXsfL/UApKMmE/v5cJatu+gOvNVJ3TWn6KfumoMW1T8edHfJ0aTrkD844N3OiGuHp8d1FzlO1l3mriVoh+xA5AdYIJb81JdL17DxZQ5YOaDEZ478dXO+kwrgkf15F/kIxeGxvS7SeOKP/JE9bID6TbP6x2AASwn1t40MP7bBu+H2awoKnPOz0bujokxg1VxILZz67nVs28Pr+pP1zBcPssIjWjGrf5QSYgeYwXLzu39VLDL373duwibIGGi/pmTvQpuPdtcvKhRIqpnEmT+xsnxd8C/KHxcJFkndNYdZwJJZFg7xJ3K6fm9T/SPwQk9NFZHVsyWIYAGjUusHtfMP8Js83FvnuYpIst82FH7yxTdXdlY7qPTReakvgcgjaLioijYwepo1jArHnXszGyf7voD/5OHeDpalsRA6vASrMaOwYBiDgZCiqa8mJ5mI5jmt2xldv5AEhlA2LrVOuVbph9PzoB5mpB5v76fQj5Wji7noif3/JGETlMORuk2H6BVIy7lN5EPoMVozWgcTnLQYCxrTmLQRv8nnkG/cvzfXIM4lKLNWQ1d7UFGw1ZmV5pIgc1m0Cv/RSzgAY2E7fLe0QTQTUlUYQl3wHha1vZkCj7qV9gsKQQKpbN81BS3IsLRCpdQkGvsKHp0XarfpUAKBWEntkybopDNzCR1FuRU8cUyBIXAYHJKK1l2UBIlw0nEMSiBbUpjHh0UZ/c78VI3FgOLxCoBRtqrl1VdJk7MziuqSq4L6KVjnkU3mVfjjt+QlnPMuQ6E7LINYKI7hM8wa2WrRDg5ShAy4DbHE5eR9UFAIIMcZte67JgbH4+5kPS3GE+zozhjGzzA/AqTIb01ekt/BPVhEdEDtsT9AAwiDELCB1mdoBt2rdSdUHSqAAvgKH+AtvPCOx1AqqR8kXm1hgE1xsEjlXRxH4zrJu2imHeB8thrIzyhW3pojSeL2oN5dL7b728KqG9n1kN64clUSQP3Qp/L7dzRNtmgazkof+nb9EjLsu+ZXV3GsMnkXa9vBN/dgGzL4DDErdpgFUXEqljFNPp8Yj+gp+l/plL/P+XGH/JXZRorFkyMG25basxSn+D//IEnpQXNcy0y7DpLPGAGWTtzgWq55KRcg6fjOit68i5Zy/v/9kYo7zjx111zCTesK+47cSH9xRzk99NcjlZz6NLT4P8ipz6Mo7qjJuzjtsotFiBSaGCy9g1SxWmX24kQ0vvL3ydlqNcsS8A9uFeqEKTM3p6yZhcKYYpa218HJy7JQO0FtaOANb1jm1VJI73cEzJJJZdwaD4euKzRxJUokzoms8TabzRS9IM1lNptpPq7g0ETGjJBVnBbHCYMLvzGz09DQ2w/34mz2XMEpkVG9EzLG2NYVOxWSu/liMlUWJhjDovdKatOAptPKG2JyurZvkNlSFc1aLpdcJsdOwSkyZwN5gypLNd9W5HI2W850V8n5S/3lK/9a/OThvvJyt1RxOj4+qXt8Z0utoeTWWAjjzak9eXld0iKC+ivi7Syr6iyc+kbzTpbkqZjXNeVuNyCH2oJ2HoLdQ3LoOM07o97CUmPQ8330b6DLBh508ZOXM3NqxKMK41LH6Xx1fvp/kIfDod7Q4eP9o/+shXA4yPvrH0YWR/179Wo0Sn49gZLTY0mEtGct4QC7RhgOd32Md48rvCqK1XznwXYY+G6p5bs6r1FVBKxmajuD3S8ul8s+DL27O7baNLYhqmLGOEYAtIBdmhQUBFf80j5svFFpX0h0uCx0wPnkR9OsEKt+YfgbfkBZm9+VDgt8bz6RSRzVaaveMKMVEBf8KJXPQ82f+CAXhdrQN/qAEiu+KQ1FvzUTWQipxkvBbAEKxGSmDm8e7QFCUmtqA41lSFI6XJV4sxYVyVLbKZvjkCRMTqXWUCukWHNW8j3xxoRIUi7olXiznc0kGwOVh6wC0rRf3nw2tXgDRXOAx49xwUKFt469rysiFQJ1/jvBruml7Yt7TnTyVjtbccIld0rCZWmXO9kSbk6YlYaO7U2aTYCd8uMDDU85Qa6TPgxt+kAJ68RquwPaD9l+GXX4s4oNKC43nGQxKFQDwYknam8TK2Z/UA3KZcvrusKV2CFRetwUeIfGVrQDrpQdUl1vdIWebqIzTKqStTlh8eOdQnywFI9PAwRz2Gw0fJP8iGN7TZyAqJN3bFKGYrepa9WINJs9j0ac5Am1zSfU30QN3luRIeK4Y72jwHjgz/2N1kKd/rYmm2PLN7Wi82Q2LG02kjj3S2VTmguazaYe+91XJ4CTE9NwbM5+Y+I9CI/PWMhDXSv4juumvSgxkM+OEig3P969yRiq4svlrCgKYsLF9rHazWfnM/jx2YIMgeOJNdM63qtkV58g82VVLHdNDHyNMhg4mDxukCxkyN8gnK9c9LxpPscZJs20JczHadf053V8wZKdK+28fFuoKpLkCWUvgWOvoXunoTv//Side+IFbvEQy/TMHsGHrxSUoLjtsWbIB162fOA5P7GtfWDITl22W/dvnuHUisKxZ+MbbFEyc5ckHO2Y/YxL3bJj4W7sw9FV6cyTJBvWlc9QeHzFkuGwKQ5uvg/H7Tbr7CccQbcVPcbQYejh1Ioz881Hyl36bowZjzH4yB4b3I1vJgrhGIPjsf+h5dumbVzv54tTP2wwumJUeZ478Nt4OB6drn6zjZQvXqeQ8D3g4aJ/ODhje1XCt3Ld0283R5cx+Znls+g+cBnqNq3K3SPRG9E0LT8cPIba0WXoxuOSTdOXjpnRAD2mxaJw4nsoYVC7b7dVaUVM7ndpiNothPbpnBqsEnuyf+FXcpB9Lv4GaepawYcaJcfux/WhFLyTOzwNFN7A75sgNWFZQ6F2C47j+53TY8lxggyPgJszO3i6vWwlUB4vMrA1Ctopm9EdOscY3zTPxPAMSeM68KMUBcV8I//YbEB48EjZWkSbDeMOky9k2fLDGV6kvBBuiv1XyqR3y8vsd5hAtgXt5JulTZcCWRuPlMRFnPODb8R4x8Jkugwdx487z+Cd53mak/Ahf2Q+Q9+Rwaag6dJusVlhqGRTZJ3wouUnqH1308d+ZrNHnsU/Ugr8b6bfUk0t7H0zCULjGmTcY/JvWPnEHpvpMZOGUb3nM2XTr6wSQU8SlY20s/+uaCqJFAueicQxrvjiCbycfkm85dh0d6TRKFuKR53XC/UjW6RqYzlEtZXFE/fyfS82ahEGfUnSVnEUKAxFJZEyp51wZqfwDrRMrthNGi8LWGje+L2tmkr4fACDxHnDeChJrx+SPisD5kNcQbmVIf3mJJFmxkCkxAtDBSekB96ZHm6jTbSrJtD566NJHKcMHcedwgtnnm8SThtbQanh++tpKtHECdzbSK2hMg8pKedrIEn6PmuRvoQvqX29+k4SJCG8MYXFhtGoCmisHrkRNsYoWKVddI8Mv7dM1nEyZ7zoOKGcGMgaLGFJa51Bxel3hKBkz1Dr0QBTGXqSBGwMUWGF0aTi+9vZSCIMxljUht4ZpVkYBx4fQcVp3PImxiT/GdVbkfwSaURQQIazMmbzBgjiimMetU9ofyouSdpVy+kXVyTHudLSP6o1WYy7s/Lt8x9mUJBkvCid8Ed4EkVY6A1FTBtK5THuc+XEbxRRFkd1yOrPEEqO79SE/3rYcKzPbVFsSLOqzf1LurLgXa02dEke9WGAvxz6MtQEkgP+nzl+P2OS4mMt/ipjGCSixT/ikYQ3MNbCkKRAjb/Lvjj9NVb9cOI/JPtwAp/1xYkEAA==" vertex="1" parent="1">
          <mxGeometry x="240" y="1100" width="53" height="53" as="geometry" />
        </mxCell>
        <mxCell id="LvrDcGgFmxN_GRHWmqSq-334" value="" style="endArrow=classic;html=1;rounded=0;entryX=0.5;entryY=0;entryDx=0;entryDy=0;entryPerimeter=0;exitX=0.5;exitY=1;exitDx=0;exitDy=0;exitPerimeter=0;edgeStyle=orthogonalEdgeStyle;curved=1;" edge="1" parent="1" source="LvrDcGgFmxN_GRHWmqSq-251" target="LvrDcGgFmxN_GRHWmqSq-322">
          <mxGeometry width="50" height="50" relative="1" as="geometry">
            <mxPoint x="170" y="570" as="sourcePoint" />
            <mxPoint x="220" y="520" as="targetPoint" />
          </mxGeometry>
        </mxCell>
        <mxCell id="LvrDcGgFmxN_GRHWmqSq-335" value="" style="endArrow=classic;html=1;rounded=0;exitX=0.5;exitY=1;exitDx=0;exitDy=0;exitPerimeter=0;entryX=0.5;entryY=0;entryDx=0;entryDy=0;entryPerimeter=0;edgeStyle=orthogonalEdgeStyle;curved=1;" edge="1" parent="1" source="LvrDcGgFmxN_GRHWmqSq-251" target="LvrDcGgFmxN_GRHWmqSq-321">
          <mxGeometry width="50" height="50" relative="1" as="geometry">
            <mxPoint x="410" y="640" as="sourcePoint" />
            <mxPoint x="460" y="590" as="targetPoint" />
          </mxGeometry>
        </mxCell>
        <mxCell id="LvrDcGgFmxN_GRHWmqSq-336" value="" style="endArrow=classic;html=1;rounded=0;exitX=0.5;exitY=1;exitDx=0;exitDy=0;exitPerimeter=0;edgeStyle=orthogonalEdgeStyle;curved=1;" edge="1" parent="1" source="LvrDcGgFmxN_GRHWmqSq-322">
          <mxGeometry width="50" height="50" relative="1" as="geometry">
            <mxPoint x="410" y="640" as="sourcePoint" />
            <mxPoint x="380" y="700" as="targetPoint" />
          </mxGeometry>
        </mxCell>
        <mxCell id="LvrDcGgFmxN_GRHWmqSq-337" value="" style="endArrow=classic;html=1;rounded=0;exitX=0.5;exitY=1;exitDx=0;exitDy=0;exitPerimeter=0;edgeStyle=orthogonalEdgeStyle;curved=1;" edge="1" parent="1" source="LvrDcGgFmxN_GRHWmqSq-321">
          <mxGeometry width="50" height="50" relative="1" as="geometry">
            <mxPoint x="410" y="640" as="sourcePoint" />
            <mxPoint x="380" y="700" as="targetPoint" />
          </mxGeometry>
        </mxCell>
        <mxCell id="LvrDcGgFmxN_GRHWmqSq-341" value="" style="outlineConnect=0;dashed=0;verticalLabelPosition=bottom;verticalAlign=top;align=center;html=1;shape=mxgraph.aws3.queue;fillColor=#D9A741;gradientColor=none;" vertex="1" parent="1">
          <mxGeometry x="279" y="1202" width="73.5" height="48" as="geometry" />
        </mxCell>
        <mxCell id="LvrDcGgFmxN_GRHWmqSq-365" style="edgeStyle=orthogonalEdgeStyle;rounded=0;orthogonalLoop=1;jettySize=auto;html=1;startArrow=classic;startFill=1;" edge="1" parent="1" source="LvrDcGgFmxN_GRHWmqSq-342">
          <mxGeometry relative="1" as="geometry">
            <mxPoint x="790" y="1073" as="targetPoint" />
          </mxGeometry>
        </mxCell>
        <mxCell id="LvrDcGgFmxN_GRHWmqSq-342" value="Notification" style="rounded=0;whiteSpace=wrap;html=1;" vertex="1" parent="1">
          <mxGeometry x="540" y="1058" width="150" height="30" as="geometry" />
        </mxCell>
        <mxCell id="LvrDcGgFmxN_GRHWmqSq-343" value="ElasticSearch" style="rounded=0;whiteSpace=wrap;html=1;" vertex="1" parent="1">
          <mxGeometry x="540" y="1097" width="150" height="30" as="geometry" />
        </mxCell>
        <mxCell id="LvrDcGgFmxN_GRHWmqSq-354" value="" style="edgeStyle=orthogonalEdgeStyle;rounded=0;orthogonalLoop=1;jettySize=auto;html=1;" edge="1" parent="1" source="LvrDcGgFmxN_GRHWmqSq-350" target="LvrDcGgFmxN_GRHWmqSq-226">
          <mxGeometry relative="1" as="geometry" />
        </mxCell>
        <mxCell id="LvrDcGgFmxN_GRHWmqSq-350" value="" style="image;aspect=fixed;html=1;points=[];align=center;fontSize=12;image=img/lib/azure2/networking/Front_Doors.svg;" vertex="1" parent="1">
          <mxGeometry x="2" y="170" width="68" height="60" as="geometry" />
        </mxCell>
        <mxCell id="LvrDcGgFmxN_GRHWmqSq-352" value="CDN" style="text;html=1;align=center;verticalAlign=middle;whiteSpace=wrap;rounded=0;" vertex="1" parent="1">
          <mxGeometry x="6" y="230" width="60" height="30" as="geometry" />
        </mxCell>
        <mxCell id="LvrDcGgFmxN_GRHWmqSq-362" value="" style="endArrow=classic;startArrow=classic;html=1;rounded=0;entryX=0.5;entryY=0;entryDx=0;entryDy=0;" edge="1" parent="1">
          <mxGeometry width="50" height="50" relative="1" as="geometry">
            <mxPoint x="262" y="1074" as="sourcePoint" />
            <mxPoint x="261.50000000000045" y="1104" as="targetPoint" />
          </mxGeometry>
        </mxCell>
      </root>
    </mxGraphModel>
  </diagram>
</mxfile>
